%TF.GenerationSoftware,KiCad,Pcbnew,10.0.3*%
%TF.CreationDate,2026-08-13T21:28:07-04:00*%
%TF.ProjectId,Hackpad,4861636b-7061-4642-9e6b-696361645f70,rev?*%
%TF.SameCoordinates,Original*%
%TF.FileFunction,Copper,L1,Top*%
%TF.FilePolarity,Positive*%
%FSLAX46Y46*%
G04 Gerber Fmt 4.6, Leading zero omitted, Abs format (unit mm)*
G04 Created by KiCad (PCBNEW 10.0.3) date 2026-08-13 21:28:07*
%MOMM*%
%LPD*%
G01*
G04 APERTURE LIST*
G04 Aperture macros list*
%AMRoundRect*
0 Rectangle with rounded corners*
0 $1 Rounding radius*
0 $2 $3 $4 $5 $6 $7 $8 $9 X,Y pos of 4 corners*
0 Add a 4 corners polygon primitive as box body*
4,1,4,$2,$3,$4,$5,$6,$7,$8,$9,$2,$3,0*
0 Add four circle primitives for the rounded corners*
1,1,$1+$1,$2,$3*
1,1,$1+$1,$4,$5*
1,1,$1+$1,$6,$7*
1,1,$1+$1,$8,$9*
0 Add four rect primitives between the rounded corners*
20,1,$1+$1,$2,$3,$4,$5,0*
20,1,$1+$1,$4,$5,$6,$7,0*
20,1,$1+$1,$6,$7,$8,$9,0*
20,1,$1+$1,$8,$9,$2,$3,0*%
G04 Aperture macros list end*
%TA.AperFunction,ComponentPad*%
%ADD10RoundRect,0.190500X1.079500X0.444500X-1.079500X0.444500X-1.079500X-0.444500X1.079500X-0.444500X0*%
%TD*%
%TA.AperFunction,ComponentPad*%
%ADD11O,1.700000X3.700000*%
%TD*%
%TA.AperFunction,ComponentPad*%
%ADD12O,1.700000X3.600000*%
%TD*%
%TA.AperFunction,ComponentPad*%
%ADD13R,1.700000X3.500000*%
%TD*%
%TA.AperFunction,ComponentPad*%
%ADD14C,1.200000*%
%TD*%
%TA.AperFunction,ComponentPad*%
%ADD15C,2.200000*%
%TD*%
%TA.AperFunction,ComponentPad*%
%ADD16RoundRect,0.190500X-1.079500X-0.444500X1.079500X-0.444500X1.079500X0.444500X-1.079500X0.444500X0*%
%TD*%
%TA.AperFunction,SMDPad,CuDef*%
%ADD17RoundRect,0.225000X-0.225000X-0.250000X0.225000X-0.250000X0.225000X0.250000X-0.225000X0.250000X0*%
%TD*%
%TA.AperFunction,SMDPad,CuDef*%
%ADD18RoundRect,0.225000X0.225000X0.250000X-0.225000X0.250000X-0.225000X-0.250000X0.225000X-0.250000X0*%
%TD*%
%TA.AperFunction,SMDPad,CuDef*%
%ADD19R,0.533400X1.701800*%
%TD*%
%TA.AperFunction,SMDPad,CuDef*%
%ADD20RoundRect,0.225000X0.250000X-0.225000X0.250000X0.225000X-0.250000X0.225000X-0.250000X-0.225000X0*%
%TD*%
%TA.AperFunction,ViaPad*%
%ADD21C,0.600000*%
%TD*%
%TA.AperFunction,Conductor*%
%ADD22C,0.200000*%
%TD*%
G04 APERTURE END LIST*
D10*
%TO.P,U7,6,VCC_6*%
%TO.N,+3V3*%
X112628600Y-87490000D03*
%TO.P,U7,5,GND_5*%
%TO.N,GND*%
X115338600Y-87490000D03*
%TO.P,U7,4,SCL_4*%
%TO.N,/SPI_MOSI*%
X118128600Y-87490000D03*
%TO.P,U7,3,SDA_3*%
%TO.N,/SPI_SCK*%
X120878600Y-87490000D03*
%TO.P,U7,2,DC_2*%
%TO.N,/<NO NET>*%
X123628600Y-87490000D03*
%TO.P,U7,1,CS_1*%
%TO.N,Net-(U10-~{Y5})*%
X126378600Y-87490000D03*
%TO.P,U7,0,RST_0*%
%TO.N,/RST*%
X129128600Y-87490000D03*
%TD*%
D11*
%TO.P,U3,14,5V_14*%
%TO.N,unconnected-(U3-5V-Pad14)*%
X38100000Y-69358000D03*
%TO.P,U3,13,GND_13*%
%TO.N,GND*%
X40640000Y-69358000D03*
%TO.P,U3,12,3V3_12*%
%TO.N,+3V3*%
X43180000Y-69358000D03*
%TO.P,U3,11,PA6_A10_D10_MOSI_11*%
%TO.N,/SPI_MOSI*%
X45720000Y-69358000D03*
D12*
%TO.P,U3,10,PA5_A9_D9_MISO_10*%
%TO.N,unconnected-(U3-PA5_A9_D9_MISO-Pad10)*%
X48260000Y-69358000D03*
%TO.P,U3,9,PA7_A8_D8_SCK_9*%
%TO.N,/SPI_SCK*%
X50800000Y-69358000D03*
%TO.P,U3,8,PB09_A7_D7_RX_8*%
%TO.N,unconnected-(U3-PB09_A7_D7_RX-Pad8)*%
X53340000Y-69358000D03*
%TO.P,U3,7,PB08_A6_D6_TX_7*%
%TO.N,unconnected-(R1-Pad2)*%
X53340000Y-86608000D03*
%TO.P,U3,6,PA9_A5_D5_SCL_6*%
%TO.N,unconnected-(R8-Pad2)*%
X50800000Y-86608000D03*
%TO.P,U3,5,PA8_A4_D4_SDA_5*%
%TO.N,Net-(U10-A0)*%
X48260000Y-86608000D03*
%TO.P,U3,4,PA11_A3_D3_4*%
%TO.N,Net-(U10-A1)*%
X45720000Y-86608000D03*
%TO.P,U3,3,PA10_A2_D2_3*%
%TO.N,Net-(U10-A2)*%
X43180000Y-86608000D03*
%TO.P,U3,2,PA4_A1_D1_2*%
%TO.N,/RST*%
X40640000Y-86608000D03*
D13*
%TO.P,U3,1,PA02_A0_D0_1*%
%TO.N,/<NO NET>*%
X38100000Y-86608000D03*
%TD*%
D14*
%TO.P,R2,2*%
%TO.N,Net-(R2-Pad2)*%
X75604000Y-131572000D03*
%TO.P,R2,1*%
%TO.N,GND*%
X64604000Y-131572000D03*
%TD*%
D15*
%TO.P,SW6,1,1_1*%
%TO.N,Net-(R4-Pad2)*%
X174244000Y-105410000D03*
%TO.P,SW6,2,2_2*%
%TO.N,unconnected-(R1-Pad2)*%
X167894000Y-107950000D03*
%TD*%
D16*
%TO.P,U4,0,RST_0*%
%TO.N,/RST*%
X112628600Y-67450000D03*
%TO.P,U4,1,CS_1*%
%TO.N,Net-(U10-~{Y2})*%
X115378600Y-67450000D03*
%TO.P,U4,2,DC_2*%
%TO.N,/<NO NET>*%
X118128600Y-67450000D03*
%TO.P,U4,3,SDA_3*%
%TO.N,/SPI_SCK*%
X120878600Y-67450000D03*
%TO.P,U4,4,SCL_4*%
%TO.N,/SPI_MOSI*%
X123628600Y-67450000D03*
%TO.P,U4,5,GND_5*%
%TO.N,GND*%
X126418600Y-67450000D03*
%TO.P,U4,6,VCC_6*%
%TO.N,+3V3*%
X129128600Y-67450000D03*
%TD*%
D17*
%TO.P,C3,1*%
%TO.N,GND*%
X75933000Y-70612000D03*
%TO.P,C3,2*%
%TO.N,+3V3*%
X77483000Y-70612000D03*
%TD*%
D14*
%TO.P,R3,1*%
%TO.N,GND*%
X115658000Y-131572000D03*
%TO.P,R3,2*%
%TO.N,Net-(R3-Pad2)*%
X126658000Y-131572000D03*
%TD*%
D18*
%TO.P,C7,1*%
%TO.N,GND*%
X113779600Y-84074000D03*
%TO.P,C7,2*%
%TO.N,+3V3*%
X112229600Y-84074000D03*
%TD*%
D10*
%TO.P,U6,0,RST_0*%
%TO.N,/RST*%
X179954000Y-87490000D03*
%TO.P,U6,1,CS_1*%
%TO.N,Net-(U10-~{Y4})*%
X177204000Y-87490000D03*
%TO.P,U6,2,DC_2*%
%TO.N,/<NO NET>*%
X174454000Y-87490000D03*
%TO.P,U6,3,SDA_3*%
%TO.N,/SPI_SCK*%
X171704000Y-87490000D03*
%TO.P,U6,4,SCL_4*%
%TO.N,/SPI_MOSI*%
X168954000Y-87490000D03*
%TO.P,U6,5,GND_5*%
%TO.N,GND*%
X166164000Y-87490000D03*
%TO.P,U6,6,VCC_6*%
%TO.N,+3V3*%
X163454000Y-87490000D03*
%TD*%
D14*
%TO.P,R7,1*%
%TO.N,GND*%
X64350000Y-22606000D03*
%TO.P,R7,2*%
%TO.N,Net-(R7-Pad2)*%
X75350000Y-22606000D03*
%TD*%
D15*
%TO.P,SW8,1,1_1*%
%TO.N,Net-(R6-Pad2)*%
X123418600Y-39370000D03*
%TO.P,SW8,2,2_2*%
%TO.N,unconnected-(R8-Pad2)*%
X117068600Y-41910000D03*
%TD*%
D16*
%TO.P,U1,0,RST_0*%
%TO.N,/RST*%
X61775400Y-67255400D03*
%TO.P,U1,1,CS_1*%
%TO.N,Net-(U1-CS)*%
X64525400Y-67255400D03*
%TO.P,U1,2,DC_2*%
%TO.N,/<NO NET>*%
X67275400Y-67255400D03*
%TO.P,U1,3,SDA_3*%
%TO.N,/SPI_SCK*%
X70025400Y-67255400D03*
%TO.P,U1,4,SCL_4*%
%TO.N,/SPI_MOSI*%
X72775400Y-67255400D03*
%TO.P,U1,5,GND_5*%
%TO.N,GND*%
X75565400Y-67255400D03*
%TO.P,U1,6,VCC_6*%
%TO.N,+3V3*%
X78275400Y-67255400D03*
%TD*%
D14*
%TO.P,R5,1*%
%TO.N,GND*%
X166204000Y-23114000D03*
%TO.P,R5,2*%
%TO.N,Net-(R5-Pad2)*%
X177204000Y-23114000D03*
%TD*%
D16*
%TO.P,U5,0,RST_0*%
%TO.N,/RST*%
X163454000Y-67450000D03*
%TO.P,U5,1,CS_1*%
%TO.N,Net-(U10-~{Y3})*%
X166204000Y-67450000D03*
%TO.P,U5,2,DC_2*%
%TO.N,/<NO NET>*%
X168954000Y-67450000D03*
%TO.P,U5,3,SDA_3*%
%TO.N,/SPI_SCK*%
X171704000Y-67450000D03*
%TO.P,U5,4,SCL_4*%
%TO.N,/SPI_MOSI*%
X174454000Y-67450000D03*
%TO.P,U5,5,GND_5*%
%TO.N,GND*%
X177244000Y-67450000D03*
%TO.P,U5,6,VCC_6*%
%TO.N,+3V3*%
X179954000Y-67450000D03*
%TD*%
D15*
%TO.P,SW5,1,1_1*%
%TO.N,Net-(R3-Pad2)*%
X123418600Y-105410000D03*
%TO.P,SW5,2,2_2*%
%TO.N,unconnected-(R1-Pad2)*%
X117068600Y-107950000D03*
%TD*%
%TO.P,SW9,1,1_1*%
%TO.N,Net-(R7-Pad2)*%
X72565400Y-39175400D03*
%TO.P,SW9,2,2_2*%
%TO.N,unconnected-(R8-Pad2)*%
X66215400Y-41715400D03*
%TD*%
D17*
%TO.P,C6,1*%
%TO.N,GND*%
X178041000Y-70866000D03*
%TO.P,C6,2*%
%TO.N,+3V3*%
X179591000Y-70866000D03*
%TD*%
D19*
%TO.P,U10,1,A0_1*%
%TO.N,Net-(U10-A0)*%
X61595000Y-79806800D03*
%TO.P,U10,2,A1_2*%
%TO.N,Net-(U10-A1)*%
X62865000Y-79806800D03*
%TO.P,U10,3,A2_3*%
%TO.N,Net-(U10-A2)*%
X64135000Y-79806800D03*
%TO.P,U10,4,~{E0}_4*%
%TO.N,GND*%
X65405000Y-79806800D03*
%TO.P,U10,5,~{E1}_5*%
X66675000Y-79806800D03*
%TO.P,U10,6,E2_6*%
%TO.N,+3V3*%
X67945000Y-79806800D03*
%TO.P,U10,7,~{Y7}_7*%
%TO.N,/CS_Y7*%
X69215000Y-79806800D03*
%TO.P,U10,8,GND_8*%
%TO.N,GND*%
X70485000Y-79806800D03*
%TO.P,U10,9,~{Y6}_9*%
%TO.N,unconnected-(U10-~{Y6}-Pad9)*%
X70485000Y-74625200D03*
%TO.P,U10,10,~{Y5}_10*%
%TO.N,Net-(U10-~{Y5})*%
X69215000Y-74625200D03*
%TO.P,U10,11,~{Y4}_11*%
%TO.N,Net-(U10-~{Y4})*%
X67945000Y-74625200D03*
%TO.P,U10,12,~{Y3}_12*%
%TO.N,Net-(U10-~{Y3})*%
X66675000Y-74625200D03*
%TO.P,U10,13,~{Y2}_13*%
%TO.N,Net-(U10-~{Y2})*%
X65405000Y-74625200D03*
%TO.P,U10,14,~{Y1}_14*%
%TO.N,unconnected-(U10-~{Y1}-Pad14)*%
X64135000Y-74625200D03*
%TO.P,U10,15,~{Y0}_15*%
%TO.N,Net-(U1-CS)*%
X62865000Y-74625200D03*
%TO.P,U10,16,VCC_16*%
%TO.N,+3V3*%
X61595000Y-74625200D03*
%TD*%
D17*
%TO.P,C4,1*%
%TO.N,GND*%
X127215600Y-70866000D03*
%TO.P,C4,2*%
%TO.N,+3V3*%
X128765600Y-70866000D03*
%TD*%
D14*
%TO.P,R6,1*%
%TO.N,GND*%
X115404000Y-22606000D03*
%TO.P,R6,2*%
%TO.N,Net-(R6-Pad2)*%
X126404000Y-22606000D03*
%TD*%
D15*
%TO.P,SW7,1,1_1*%
%TO.N,Net-(R5-Pad2)*%
X174244000Y-39370000D03*
%TO.P,SW7,2,2_2*%
%TO.N,unconnected-(R8-Pad2)*%
X167894000Y-41910000D03*
%TD*%
D14*
%TO.P,R4,1*%
%TO.N,GND*%
X166204000Y-131318000D03*
%TO.P,R4,2*%
%TO.N,Net-(R4-Pad2)*%
X177204000Y-131318000D03*
%TD*%
D15*
%TO.P,SW4,1,1_1*%
%TO.N,Net-(R2-Pad2)*%
X72644000Y-105410000D03*
%TO.P,SW4,2,2_2*%
%TO.N,unconnected-(R1-Pad2)*%
X66294000Y-107950000D03*
%TD*%
D20*
%TO.P,C2,1*%
%TO.N,GND*%
X59690000Y-77483000D03*
%TO.P,C2,2*%
%TO.N,+3V3*%
X59690000Y-75933000D03*
%TD*%
D18*
%TO.P,C5,1*%
%TO.N,GND*%
X165354000Y-84074000D03*
%TO.P,C5,2*%
%TO.N,+3V3*%
X163804000Y-84074000D03*
%TD*%
D14*
%TO.P,R1,1*%
%TO.N,+3V3*%
X44958000Y-101434000D03*
%TO.P,R1,2*%
%TO.N,unconnected-(R1-Pad2)*%
X44958000Y-112434000D03*
%TD*%
D17*
%TO.P,C8,1*%
%TO.N,+3V3*%
X62458000Y-83820000D03*
%TO.P,C8,2*%
%TO.N,GND*%
X64008000Y-83820000D03*
%TD*%
D10*
%TO.P,U2,0,RST_0*%
%TO.N,/RST*%
X78354000Y-87490000D03*
%TO.P,U2,1,CS_1*%
%TO.N,/CS_Y7*%
X75604000Y-87490000D03*
%TO.P,U2,2,DC_2*%
%TO.N,/<NO NET>*%
X72854000Y-87490000D03*
%TO.P,U2,3,SDA_3*%
%TO.N,/SPI_SCK*%
X70104000Y-87490000D03*
%TO.P,U2,4,SCL_4*%
%TO.N,/SPI_MOSI*%
X67354000Y-87490000D03*
%TO.P,U2,5,GND_5*%
%TO.N,GND*%
X64564000Y-87490000D03*
%TO.P,U2,6,VCC_6*%
%TO.N,+3V3*%
X61854000Y-87490000D03*
%TD*%
D14*
%TO.P,R8,1*%
%TO.N,+3V3*%
X44704000Y-56554000D03*
%TO.P,R8,2*%
%TO.N,unconnected-(R8-Pad2)*%
X44704000Y-45554000D03*
%TD*%
D21*
%TO.N,GND*%
X60706000Y-77470000D03*
%TO.N,unconnected-(R8-Pad2)*%
X50546000Y-91186000D03*
X41148000Y-92456000D03*
%TO.N,/RST*%
X127254000Y-81398775D03*
X128628874Y-80198775D03*
%TO.N,/<NO NET>*%
X128751981Y-81398775D03*
%TO.N,+3V3*%
X130820090Y-76935230D03*
X127762000Y-74806000D03*
%TO.N,GND*%
X130784600Y-76136015D03*
%TO.N,/SPI_MOSI*%
X130784600Y-75336012D03*
%TO.N,/SPI_SCK*%
X130784600Y-74536009D03*
%TO.N,/<NO NET>*%
X130784600Y-73736006D03*
%TO.N,/RST*%
X130784600Y-72136000D03*
X72136000Y-84074000D03*
X61214000Y-84074000D03*
X110680035Y-72367435D03*
X56473994Y-77724000D03*
X56895815Y-75102941D03*
X59436000Y-83820000D03*
%TO.N,Net-(U10-~{Y2})*%
X66322657Y-73244000D03*
X76962000Y-72806000D03*
%TO.N,/<NO NET>*%
X73141672Y-83462702D03*
X114274600Y-73152000D03*
X57658000Y-75346000D03*
X122656600Y-82782000D03*
X79756000Y-73406000D03*
X56642000Y-87122000D03*
X57273997Y-77724000D03*
%TO.N,/SPI_SCK*%
X128903143Y-82184367D03*
X78099544Y-75605472D03*
X76899544Y-76594718D03*
X76986263Y-80379728D03*
X119499389Y-83473314D03*
X70104000Y-82550000D03*
X117068600Y-73606000D03*
X68580000Y-82804000D03*
%TO.N,/SPI_MOSI*%
X67337825Y-82862702D03*
X129120955Y-82954147D03*
X76577809Y-75862265D03*
X76962000Y-81203994D03*
X66294000Y-71882000D03*
X64516000Y-71882000D03*
X78099544Y-76454000D03*
X119608600Y-73936000D03*
X117576600Y-84074000D03*
%TO.N,GND*%
X73152000Y-70601665D03*
X73412193Y-71801665D03*
X71374000Y-77724000D03*
X114498035Y-82834565D03*
X66040000Y-70104000D03*
X70439665Y-70439665D03*
X61468000Y-82426000D03*
X75899544Y-74064228D03*
X128973980Y-83740533D03*
X76962000Y-82003997D03*
X125958600Y-74406000D03*
X58420000Y-76962000D03*
X80772000Y-75438000D03*
%TO.N,+3V3*%
X76708000Y-74584000D03*
X129051865Y-84536735D03*
X113004600Y-82750000D03*
X75184000Y-74422000D03*
X76962000Y-82804000D03*
X81537624Y-75206000D03*
X67818000Y-81534000D03*
X58074000Y-77724000D03*
X60593422Y-82437422D03*
X58420000Y-75946000D03*
X69677665Y-71201665D03*
X65422135Y-71010135D03*
%TO.N,Net-(U10-~{Y4})*%
X77378000Y-77654000D03*
X72990000Y-76962000D03*
X78578000Y-77978000D03*
X68072000Y-73244000D03*
%TO.N,Net-(U1-CS)*%
X62992000Y-73244000D03*
%TO.N,Net-(U10-~{Y3})*%
X79756000Y-71790000D03*
X75692000Y-72644000D03*
X82296000Y-75606000D03*
X67122660Y-73244000D03*
%TO.N,Net-(U10-~{Y5})*%
X86106000Y-79756000D03*
X88646000Y-80350000D03*
X77308000Y-78486000D03*
X73365470Y-78186000D03*
X78578000Y-78778003D03*
X68872003Y-73244000D03*
%TD*%
%TO.N,+3V3*%
D22*
X59690000Y-75933000D02*
X60287200Y-75933000D01*
X60287200Y-75933000D02*
X61595000Y-74625200D01*
%TO.N,GND*%
X60693000Y-77483000D02*
X60706000Y-77470000D01*
X59690000Y-77483000D02*
X60693000Y-77483000D01*
X58420000Y-76962000D02*
X59169000Y-76962000D01*
X59169000Y-76962000D02*
X59690000Y-77483000D01*
%TO.N,+3V3*%
X58420000Y-75946000D02*
X59677000Y-75946000D01*
X59677000Y-75946000D02*
X59690000Y-75933000D01*
%TO.N,/SPI_MOSI*%
X55010000Y-68434000D02*
X55029685Y-68434000D01*
X55029685Y-68434000D02*
X56670842Y-70075157D01*
%TO.N,GND*%
X165354000Y-84074000D02*
X165354000Y-86680000D01*
X165354000Y-86680000D02*
X166164000Y-87490000D01*
%TO.N,+3V3*%
X163804000Y-84074000D02*
X163804000Y-87140000D01*
X163804000Y-87140000D02*
X163454000Y-87490000D01*
%TO.N,unconnected-(R8-Pad2)*%
X49276000Y-92456000D02*
X50546000Y-91186000D01*
X41148000Y-92456000D02*
X49276000Y-92456000D01*
%TO.N,GND*%
X113372000Y-133858000D02*
X163664000Y-133858000D01*
X163664000Y-133858000D02*
X166204000Y-131318000D01*
X60706000Y-131572000D02*
X62992000Y-133858000D01*
X62992000Y-133858000D02*
X113372000Y-133858000D01*
X59944000Y-131572000D02*
X60706000Y-131572000D01*
X56388000Y-131572000D02*
X59944000Y-131572000D01*
X113372000Y-133858000D02*
X115658000Y-131572000D01*
X33274000Y-67818000D02*
X33274000Y-99568000D01*
X33274000Y-99568000D02*
X34036000Y-100330000D01*
X40640000Y-65786000D02*
X40640000Y-46316000D01*
X40640000Y-65786000D02*
X35306000Y-65786000D01*
X35306000Y-65786000D02*
X33274000Y-67818000D01*
X34036000Y-100330000D02*
X34036000Y-109220000D01*
X34036000Y-109220000D02*
X56388000Y-131572000D01*
X59944000Y-131572000D02*
X64604000Y-131572000D01*
X40640000Y-70358000D02*
X40640000Y-65786000D01*
X113328000Y-24682000D02*
X164636000Y-24682000D01*
X164636000Y-24682000D02*
X166204000Y-23114000D01*
X62274000Y-24682000D02*
X64350000Y-22606000D01*
X62274000Y-24682000D02*
X113328000Y-24682000D01*
X113328000Y-24682000D02*
X115404000Y-22606000D01*
X40640000Y-46316000D02*
X62274000Y-24682000D01*
%TO.N,/RST*%
X137160000Y-80912001D02*
X176162001Y-80912001D01*
X180086000Y-84836000D02*
X179954000Y-84968000D01*
X176162001Y-80912001D02*
X180086000Y-84836000D01*
X179954000Y-84968000D02*
X179954000Y-87490000D01*
%TO.N,Net-(U10-~{Y4})*%
X173768001Y-81312001D02*
X177292000Y-84836000D01*
X177204000Y-84924000D02*
X177204000Y-87490000D01*
X137160001Y-81312001D02*
X173768001Y-81312001D01*
X177292000Y-84836000D02*
X177204000Y-84924000D01*
%TO.N,/<NO NET>*%
X171374001Y-81712001D02*
X174498000Y-84836000D01*
X137235999Y-81712001D02*
X171374001Y-81712001D01*
X174498000Y-84836000D02*
X174454000Y-84880000D01*
X174454000Y-84880000D02*
X174454000Y-87490000D01*
%TO.N,/RST*%
X128992461Y-80198775D02*
X129426775Y-80633090D01*
X125200600Y-81534000D02*
X127118775Y-81534000D01*
X127118775Y-81534000D02*
X127254000Y-81398775D01*
X128628874Y-80198775D02*
X128992461Y-80198775D01*
X129426775Y-80633090D02*
X130975686Y-82182000D01*
X136673894Y-80911998D02*
X137160000Y-80912001D01*
X130975686Y-82182000D02*
X135403888Y-82182000D01*
X135403888Y-82182000D02*
X136673894Y-80911998D01*
%TO.N,Net-(U10-~{Y4})*%
X129026775Y-80798775D02*
X130702000Y-82474000D01*
X125679681Y-80798775D02*
X129026775Y-80798775D01*
X125355371Y-81123085D02*
X125679681Y-80798775D01*
X115090430Y-79750000D02*
X116463515Y-81123085D01*
X89636600Y-79750000D02*
X115090430Y-79750000D01*
X116463515Y-81123085D02*
X125355371Y-81123085D01*
X135569573Y-82582000D02*
X136839577Y-81311999D01*
X130702000Y-82582000D02*
X135569573Y-82582000D01*
X79864000Y-77362000D02*
X87248600Y-77362000D01*
X87248600Y-77362000D02*
X89636600Y-79750000D01*
X79248000Y-77978000D02*
X79864000Y-77362000D01*
X78578000Y-77978000D02*
X79248000Y-77978000D01*
X136839577Y-81311999D02*
X137160001Y-81312001D01*
X130702000Y-82474000D02*
X130702000Y-82582000D01*
%TO.N,/<NO NET>*%
X128979797Y-81398775D02*
X130302000Y-82720978D01*
X130302000Y-82982000D02*
X135735258Y-82982000D01*
X137005260Y-81712000D02*
X137235999Y-81712001D01*
X130302000Y-82720978D02*
X130302000Y-82982000D01*
X128751981Y-81398775D02*
X128979797Y-81398775D01*
X135735258Y-82982000D02*
X137005260Y-81712000D01*
%TO.N,/SPI_SCK*%
X168980000Y-82112000D02*
X171704000Y-84836000D01*
X137170945Y-82112000D02*
X168980000Y-82112000D01*
X135900943Y-83382000D02*
X137170945Y-82112000D01*
X130114494Y-83382000D02*
X135900943Y-83382000D01*
X129779547Y-83047053D02*
X130114494Y-83382000D01*
X129779547Y-82764210D02*
X129779547Y-83047053D01*
X129199704Y-82184367D02*
X129779547Y-82764210D01*
X128903143Y-82184367D02*
X129199704Y-82184367D01*
X171704000Y-84836000D02*
X171704000Y-87490000D01*
%TO.N,/SPI_MOSI*%
X129120955Y-82954147D02*
X129948808Y-83782000D01*
X129948808Y-83782000D02*
X136066628Y-83782000D01*
X136066628Y-83782000D02*
X137336630Y-82512000D01*
X166586000Y-82512000D02*
X168954000Y-84880000D01*
X137336630Y-82512000D02*
X166586000Y-82512000D01*
X168954000Y-84880000D02*
X168954000Y-87490000D01*
%TO.N,GND*%
X136232314Y-84182000D02*
X137502315Y-82912000D01*
X129622600Y-84182000D02*
X136232314Y-84182000D01*
X165208000Y-82912000D02*
X165354000Y-83058000D01*
X137502315Y-82912000D02*
X165208000Y-82912000D01*
X129181133Y-83740533D02*
X129622600Y-84182000D01*
X128973980Y-83740533D02*
X129181133Y-83740533D01*
X165354000Y-83058000D02*
X165354000Y-84074000D01*
%TO.N,+3V3*%
X129051865Y-84536735D02*
X129097130Y-84582000D01*
X136398000Y-84582000D02*
X137668000Y-83312000D01*
X129097130Y-84582000D02*
X136398000Y-84582000D01*
X137668000Y-83312000D02*
X162560000Y-83312000D01*
X162560000Y-83312000D02*
X163322000Y-84074000D01*
X163322000Y-84074000D02*
X163804000Y-84074000D01*
X179591000Y-70866000D02*
X179591000Y-70853000D01*
X179591000Y-70853000D02*
X179954000Y-70490000D01*
X179954000Y-70490000D02*
X179954000Y-67450000D01*
%TO.N,GND*%
X178041000Y-70866000D02*
X178041000Y-68247000D01*
X178041000Y-68247000D02*
X177244000Y-67450000D01*
%TO.N,+3V3*%
X130820090Y-76935230D02*
X130836770Y-76935230D01*
X132842000Y-74930000D02*
X132842000Y-74790000D01*
X130836770Y-76935230D02*
X132842000Y-74930000D01*
X132842000Y-74790000D02*
X175667000Y-74790000D01*
X175667000Y-74790000D02*
X179591000Y-70866000D01*
%TO.N,GND*%
X130784600Y-76136015D02*
X130848585Y-76136015D01*
X132562600Y-74422000D02*
X132562600Y-74390000D01*
X130848585Y-76136015D02*
X132562600Y-74422000D01*
X132562600Y-74390000D02*
X174517000Y-74390000D01*
X174517000Y-74390000D02*
X178041000Y-70866000D01*
%TO.N,+3V3*%
X126492000Y-74930000D02*
X127638000Y-74930000D01*
X127638000Y-74930000D02*
X127762000Y-74806000D01*
X126492000Y-74930000D02*
X128765600Y-72656400D01*
X81537624Y-75206000D02*
X81737624Y-75006000D01*
X81737624Y-75006000D02*
X126416000Y-75006000D01*
X126416000Y-75006000D02*
X126492000Y-74930000D01*
X128765600Y-72656400D02*
X128765600Y-70866000D01*
%TO.N,/SPI_MOSI*%
X130784600Y-75336012D02*
X130886588Y-75336012D01*
X130886588Y-75336012D02*
X132232600Y-73990000D01*
X132232600Y-73990000D02*
X169850000Y-73990000D01*
X174454000Y-69386000D02*
X174454000Y-67450000D01*
X169850000Y-73990000D02*
X174454000Y-69386000D01*
%TO.N,/SPI_SCK*%
X131800600Y-73590000D02*
X167710000Y-73590000D01*
X167710000Y-73590000D02*
X171704000Y-69596000D01*
X131800600Y-73660000D02*
X131800600Y-73590000D01*
X130924591Y-74536009D02*
X131800600Y-73660000D01*
X130784600Y-74536009D02*
X130924591Y-74536009D01*
X171704000Y-69596000D02*
X171704000Y-67450000D01*
%TO.N,/<NO NET>*%
X130784600Y-73736006D02*
X130833126Y-73736006D01*
X130833126Y-73736006D02*
X131379132Y-73190000D01*
X131379132Y-73190000D02*
X165316000Y-73190000D01*
X165316000Y-73190000D02*
X168954000Y-69552000D01*
X168954000Y-69552000D02*
X168954000Y-67450000D01*
%TO.N,Net-(U10-~{Y3})*%
X82296000Y-75606000D02*
X82296000Y-75946000D01*
X82296000Y-75946000D02*
X83312000Y-76962000D01*
X83312000Y-76962000D02*
X84836000Y-76962000D01*
X128763135Y-75406000D02*
X130184600Y-73984535D01*
X84836000Y-76962000D02*
X86392000Y-75406000D01*
X86392000Y-75406000D02*
X128763135Y-75406000D01*
X130184600Y-73984535D02*
X130184600Y-73487477D01*
X162922000Y-72790000D02*
X166204000Y-69508000D01*
X130184600Y-73487477D02*
X130882077Y-72790000D01*
X130882077Y-72790000D02*
X162922000Y-72790000D01*
X166204000Y-69508000D02*
X166204000Y-67450000D01*
%TO.N,/RST*%
X130784600Y-72136000D02*
X131038600Y-72390000D01*
X131038600Y-72390000D02*
X160248600Y-72390000D01*
X160248600Y-72390000D02*
X163428600Y-69210000D01*
X163428600Y-69210000D02*
X163428600Y-67450000D01*
X77499544Y-76702529D02*
X77499544Y-76205471D01*
X78133843Y-80362157D02*
X78321686Y-80550000D01*
X88397471Y-79750000D02*
X89008000Y-79750000D01*
X77978000Y-77180985D02*
X77499544Y-76702529D01*
X77286000Y-72206000D02*
X77470000Y-72390000D01*
X58498000Y-84250000D02*
X58420000Y-84328000D01*
X77499544Y-76205471D02*
X77675279Y-76029736D01*
X111506000Y-70104000D02*
X111506000Y-68572600D01*
X78321686Y-80550000D02*
X88046000Y-80550000D01*
X40640000Y-86644346D02*
X40640000Y-85608000D01*
X77499544Y-75854001D02*
X77499544Y-75356943D01*
X56473994Y-75524762D02*
X56895815Y-75102941D01*
X72136000Y-84074000D02*
X75450215Y-84074000D01*
X109004000Y-72606000D02*
X110441470Y-72606000D01*
X58420000Y-84328000D02*
X55880000Y-86868000D01*
X111506000Y-68572600D02*
X112628600Y-67450000D01*
X77675279Y-76029736D02*
X77499544Y-75854001D01*
X55880000Y-86868000D02*
X55880000Y-88565057D01*
X88046000Y-80550000D02*
X88046000Y-80101471D01*
X129128600Y-85462000D02*
X129128600Y-87490000D01*
X89408000Y-80150000D02*
X114924744Y-80150000D01*
X80154215Y-72390000D02*
X80370214Y-72606000D01*
X72136000Y-83566000D02*
X76322272Y-79379728D01*
X109004000Y-72606000D02*
X111506000Y-70104000D01*
X76962000Y-73406000D02*
X76713471Y-73406000D01*
X43903653Y-89907999D02*
X40640000Y-86644346D01*
X77470000Y-72390000D02*
X80154215Y-72390000D01*
X77724000Y-75132487D02*
X77724000Y-74168000D01*
X76362000Y-72557471D02*
X76713471Y-72206000D01*
X116308744Y-81534000D02*
X125200600Y-81534000D01*
X77978000Y-79248000D02*
X77978000Y-77180985D01*
X58928000Y-83820000D02*
X59436000Y-83820000D01*
X88046000Y-80101471D02*
X88397471Y-79750000D01*
X72136000Y-84074000D02*
X72136000Y-83566000D01*
X75450215Y-84074000D02*
X78354000Y-86977785D01*
X125200600Y-81534000D02*
X129128600Y-85462000D01*
X76322272Y-79379728D02*
X77400478Y-79379728D01*
X78133843Y-80113093D02*
X78133843Y-80362157D01*
X61038000Y-84250000D02*
X61214000Y-84074000D01*
X110441470Y-72606000D02*
X110680035Y-72367435D01*
X77400478Y-79379728D02*
X77846272Y-79379728D01*
X58420000Y-84328000D02*
X58928000Y-83820000D01*
X78354000Y-86977785D02*
X78354000Y-87490000D01*
X76362000Y-73054529D02*
X76362000Y-72557471D01*
X76713471Y-73406000D02*
X76362000Y-73054529D01*
X89008000Y-79750000D02*
X89408000Y-80150000D01*
X80370214Y-72606000D02*
X109004000Y-72606000D01*
X58498000Y-84250000D02*
X61038000Y-84250000D01*
X76713471Y-72206000D02*
X77286000Y-72206000D01*
X77724000Y-74168000D02*
X76962000Y-73406000D01*
X77846272Y-79379728D02*
X77978000Y-79248000D01*
X77400478Y-79379728D02*
X78133843Y-80113093D01*
X55880000Y-88565057D02*
X54537057Y-89908000D01*
X56473994Y-77724000D02*
X56473994Y-75524762D01*
X114924744Y-80150000D02*
X116308744Y-81534000D01*
X77499544Y-75356943D02*
X77724000Y-75132487D01*
X54537057Y-89908000D02*
X43903653Y-89907999D01*
%TO.N,Net-(U10-~{Y2})*%
X76962000Y-72806000D02*
X80004529Y-72806000D01*
X65405000Y-74161657D02*
X66322657Y-73244000D01*
X115290600Y-67538000D02*
X115378600Y-67450000D01*
X115290600Y-68605400D02*
X115290600Y-67538000D01*
X65405000Y-74625200D02*
X65405000Y-74161657D01*
X80204529Y-73006000D02*
X110890000Y-73006000D01*
X110890000Y-73006000D02*
X115290600Y-68605400D01*
X80004529Y-72806000D02*
X80204529Y-73006000D01*
%TO.N,/<NO NET>*%
X121383757Y-83060843D02*
X123628600Y-85305686D01*
X57273997Y-77724000D02*
X57273997Y-75730003D01*
X113258600Y-73406000D02*
X118128600Y-68536000D01*
X77234792Y-79779728D02*
X77724000Y-80268936D01*
X73141672Y-83375790D02*
X76737734Y-79779728D01*
X121662600Y-82782000D02*
X122656600Y-82782000D01*
X121196228Y-82873314D02*
X121383757Y-83060843D01*
X123628600Y-85305686D02*
X123628600Y-87490000D01*
X38100000Y-86644346D02*
X41763654Y-90308000D01*
X78156000Y-80950000D02*
X114593372Y-80950000D01*
X38100000Y-85608000D02*
X38100000Y-86644346D01*
X77724000Y-80268936D02*
X77724000Y-80518000D01*
X57273997Y-75730003D02*
X57658000Y-75346000D01*
X113258600Y-73406000D02*
X114020600Y-73406000D01*
X114593372Y-80950000D02*
X116516686Y-82873314D01*
X41763654Y-90308000D02*
X54702743Y-90308000D01*
X116516686Y-82873314D02*
X121196228Y-82873314D01*
X118128600Y-68536000D02*
X118128600Y-67450000D01*
X114020600Y-73406000D02*
X114274600Y-73152000D01*
X76737734Y-79779728D02*
X77234792Y-79779728D01*
X73141672Y-83462702D02*
X73141672Y-83375790D01*
X77724000Y-80518000D02*
X78156000Y-80950000D01*
X54702743Y-90308000D02*
X56642000Y-88368743D01*
X79756000Y-73406000D02*
X113258600Y-73406000D01*
X56642000Y-88368743D02*
X56642000Y-87122000D01*
X121383757Y-83060843D02*
X121662600Y-82782000D01*
%TO.N,/SPI_SCK*%
X68580000Y-82804000D02*
X68580000Y-85966000D01*
X54050000Y-67258000D02*
X54610000Y-67818000D01*
X78405057Y-75605472D02*
X80204529Y-73806000D01*
X114427686Y-81350000D02*
X116351001Y-83273314D01*
X116868600Y-73806000D02*
X117068600Y-73606000D01*
X72390000Y-74168000D02*
X72390000Y-80264000D01*
X120878600Y-68834000D02*
X120878600Y-67450000D01*
X119373757Y-83800843D02*
X119499389Y-83675211D01*
X118846228Y-83273314D02*
X119373757Y-83800843D01*
X72390000Y-80264000D02*
X70104000Y-82550000D01*
X64636800Y-72644000D02*
X70025400Y-67255400D01*
X71628000Y-72684985D02*
X72750508Y-73807492D01*
X58674000Y-72644000D02*
X64636800Y-72644000D01*
X119373757Y-83800843D02*
X119608600Y-84035686D01*
X119920000Y-86646000D02*
X120034600Y-86646000D01*
X68580000Y-85966000D02*
X70104000Y-87490000D01*
X120034600Y-86646000D02*
X120878600Y-87490000D01*
X80204529Y-73806000D02*
X115906600Y-73806000D01*
X75537734Y-76594718D02*
X72750508Y-73807492D01*
X119608600Y-84035686D02*
X119608600Y-86334600D01*
X76986263Y-80379728D02*
X77956535Y-81350000D01*
X115906600Y-73806000D02*
X116868600Y-73806000D01*
X52863654Y-67258000D02*
X54050000Y-67258000D01*
X54610000Y-68834000D02*
X54864000Y-68834000D01*
X78099544Y-75605472D02*
X78405057Y-75605472D01*
X76899544Y-76594718D02*
X75537734Y-76594718D01*
X50800000Y-69321654D02*
X52863654Y-67258000D01*
X50800000Y-70358000D02*
X50800000Y-69321654D01*
X116351001Y-83273314D02*
X118846228Y-83273314D01*
X119499389Y-83675211D02*
X119499389Y-83473314D01*
X56388000Y-70358000D02*
X57334003Y-71304000D01*
X119608600Y-86334600D02*
X119920000Y-86646000D01*
X115906600Y-73806000D02*
X120878600Y-68834000D01*
X54864000Y-68834000D02*
X56388000Y-70358000D01*
X57334003Y-71304003D02*
X58674000Y-72644000D01*
X64636800Y-72644000D02*
X71628000Y-72644000D01*
X77956535Y-81350000D02*
X114427686Y-81350000D01*
X72750508Y-73807492D02*
X72390000Y-74168000D01*
X71628000Y-72644000D02*
X71628000Y-72684985D01*
X57334003Y-71304000D02*
X57334003Y-71304003D01*
X54610000Y-67818000D02*
X54610000Y-68834000D01*
%TO.N,/SPI_MOSI*%
X64477997Y-71843997D02*
X64516000Y-71882000D01*
X119338600Y-74206000D02*
X119608600Y-73936000D01*
X57499688Y-70904000D02*
X58439685Y-71843997D01*
X117322600Y-84328000D02*
X117576600Y-84074000D01*
X116800600Y-86162000D02*
X118128600Y-87490000D01*
X116332000Y-84328000D02*
X116332000Y-86162000D01*
X116332000Y-83820000D02*
X116332000Y-84328000D01*
X118300600Y-74206000D02*
X123672600Y-68834000D01*
X54215686Y-66858000D02*
X55010000Y-67652315D01*
X118300600Y-74206000D02*
X119338600Y-74206000D01*
X123628600Y-68790000D02*
X123628600Y-67450000D01*
X45720000Y-70358000D02*
X45720000Y-69321654D01*
X76577809Y-75862265D02*
X75608265Y-75862265D01*
X75608265Y-75862265D02*
X71628000Y-71882000D01*
X66294000Y-71882000D02*
X68148800Y-71882000D01*
X78099544Y-76454000D02*
X78122215Y-76454000D01*
X55010000Y-67652315D02*
X55010000Y-68434000D01*
X77010526Y-81203994D02*
X77556532Y-81750000D01*
X123672600Y-68834000D02*
X123628600Y-68790000D01*
X52697969Y-66858000D02*
X54215686Y-66858000D01*
X68148800Y-71882000D02*
X72775400Y-67255400D01*
X56670842Y-70075157D02*
X57499688Y-70904000D01*
X77556532Y-81750000D02*
X114262000Y-81750000D01*
X116332000Y-84328000D02*
X117322600Y-84328000D01*
X116332000Y-86162000D02*
X116800600Y-86162000D01*
X76962000Y-81203994D02*
X77010526Y-81203994D01*
X67354000Y-82878877D02*
X67354000Y-87490000D01*
X114262000Y-81750000D02*
X116332000Y-83820000D01*
X71628000Y-71882000D02*
X68148800Y-71882000D01*
X47783654Y-67258000D02*
X52297968Y-67258000D01*
X52297968Y-67258000D02*
X52697969Y-66858000D01*
X80370215Y-74206000D02*
X118300600Y-74206000D01*
X45720000Y-69321654D02*
X47783654Y-67258000D01*
X67337825Y-82862702D02*
X67354000Y-82878877D01*
X78122215Y-76454000D02*
X80370215Y-74206000D01*
X58439685Y-71843997D02*
X64477997Y-71843997D01*
%TO.N,GND*%
X125758600Y-74606000D02*
X125958600Y-74406000D01*
X65405000Y-80391000D02*
X65405000Y-79806800D01*
X63373000Y-82423000D02*
X65405000Y-80391000D01*
X72426400Y-70394400D02*
X72607600Y-70394400D01*
X73914000Y-70612000D02*
X75679000Y-70612000D01*
X75933000Y-67623000D02*
X75565400Y-67255400D01*
X75184000Y-73660000D02*
X75495316Y-73660000D01*
X113779600Y-82289800D02*
X113953270Y-82289800D01*
X113779600Y-82289800D02*
X113779600Y-84074000D01*
X42703654Y-67208000D02*
X44602000Y-67208000D01*
X127215600Y-68247000D02*
X126418600Y-67450000D01*
X113639800Y-82150000D02*
X113779600Y-82289800D01*
X80772000Y-75438000D02*
X80772000Y-74930000D01*
X65405000Y-82423000D02*
X66675000Y-81153000D01*
X62614000Y-82426000D02*
X63370000Y-82426000D01*
X40640000Y-70358000D02*
X40640000Y-69271654D01*
X71374000Y-78917800D02*
X70485000Y-79806800D01*
X63370000Y-82426000D02*
X63373000Y-82423000D01*
X57971049Y-70243991D02*
X65900009Y-70243991D01*
X75679000Y-70612000D02*
X75933000Y-70866000D01*
X113779600Y-85931000D02*
X113779600Y-84074000D01*
X64008000Y-83820000D02*
X64008000Y-84328000D01*
X64405400Y-84725400D02*
X64405400Y-87500000D01*
X55839529Y-68112471D02*
X57971049Y-70243991D01*
X65900009Y-70243991D02*
X66040000Y-70104000D01*
X66675000Y-81153000D02*
X66675000Y-79806800D01*
X72633665Y-70601665D02*
X73152000Y-70601665D01*
X72898000Y-70104000D02*
X73406000Y-70104000D01*
X81096000Y-74606000D02*
X124758600Y-74606000D01*
X44639984Y-67245984D02*
X45427969Y-66458000D01*
X127228600Y-72136000D02*
X127215600Y-72123000D01*
X54547058Y-66058000D02*
X55839529Y-67350472D01*
X63373000Y-82423000D02*
X65405000Y-82423000D01*
X113953270Y-82289800D02*
X114498035Y-82834565D01*
X51966598Y-66458000D02*
X52366599Y-66058000D01*
X73412193Y-71888193D02*
X75184000Y-73660000D01*
X62614000Y-82426000D02*
X64008000Y-83820000D01*
X44602000Y-67208000D02*
X44639984Y-67245984D01*
X72381135Y-70439665D02*
X72426400Y-70394400D01*
X127215600Y-72123000D02*
X127215600Y-70866000D01*
X80772000Y-74930000D02*
X81096000Y-74606000D01*
X113779600Y-85931000D02*
X115338600Y-87490000D01*
X72607600Y-70394400D02*
X72898000Y-70104000D01*
X75933000Y-70866000D02*
X75933000Y-67623000D01*
X124758600Y-74606000D02*
X125758600Y-74606000D01*
X72426400Y-70394400D02*
X72633665Y-70601665D01*
X45427969Y-66458000D02*
X51966598Y-66458000D01*
X52366599Y-66058000D02*
X54547058Y-66058000D01*
X75495316Y-73660000D02*
X75899544Y-74064228D01*
X76962000Y-82003997D02*
X77108003Y-82150000D01*
X73412193Y-71801665D02*
X73412193Y-71888193D01*
X77108003Y-82150000D02*
X113639800Y-82150000D01*
X124758600Y-74606000D02*
X127228600Y-72136000D01*
X71374000Y-77724000D02*
X71374000Y-78917800D01*
X73406000Y-70104000D02*
X73914000Y-70612000D01*
X55839529Y-67350472D02*
X55839529Y-68112471D01*
X40640000Y-69271654D02*
X42703654Y-67208000D01*
X70439665Y-70439665D02*
X72381135Y-70439665D01*
X61468000Y-82426000D02*
X62614000Y-82426000D01*
X127215600Y-70866000D02*
X127215600Y-68247000D01*
X64008000Y-84328000D02*
X64405400Y-84725400D01*
%TO.N,+3V3*%
X69677665Y-71201665D02*
X72136000Y-71201665D01*
X55429686Y-68268314D02*
X58205367Y-71043994D01*
X65388276Y-71043994D02*
X65422135Y-71010135D01*
X76627772Y-74664228D02*
X76708000Y-74584000D01*
X76381696Y-71387000D02*
X76394696Y-71374000D01*
X111747000Y-82804000D02*
X111994800Y-83051800D01*
X129128600Y-70490000D02*
X129128600Y-67450000D01*
X61976000Y-83820000D02*
X62458000Y-83820000D01*
X75426228Y-74664228D02*
X76627772Y-74664228D01*
X76962000Y-82804000D02*
X111747000Y-82804000D01*
X60593422Y-82437422D02*
X61976000Y-83820000D01*
X72136000Y-71201665D02*
X74503665Y-71201665D01*
X112229600Y-84074000D02*
X112229600Y-86339600D01*
X111994800Y-83051800D02*
X112229600Y-83286600D01*
X112229600Y-86339600D02*
X112628600Y-86738600D01*
X77451685Y-70897315D02*
X77483000Y-70866000D01*
X75184000Y-71882000D02*
X75632696Y-71882000D01*
X75184000Y-74422000D02*
X75426228Y-74664228D01*
X52132283Y-66858000D02*
X52532284Y-66458000D01*
X76127696Y-71387000D02*
X76381696Y-71387000D01*
X76394696Y-71374000D02*
X77451685Y-71374000D01*
X72136000Y-71374000D02*
X75184000Y-74422000D01*
X112628600Y-86738600D02*
X112628600Y-87490000D01*
X54381372Y-66458000D02*
X55429686Y-67506314D01*
X77483000Y-70866000D02*
X77483000Y-68047800D01*
X111994800Y-83051800D02*
X112296600Y-82750000D01*
X67818000Y-81534000D02*
X67818000Y-79933800D01*
X57820000Y-76546000D02*
X57820000Y-77470000D01*
X112296600Y-82750000D02*
X113004600Y-82750000D01*
X58205367Y-71043994D02*
X65388276Y-71043994D01*
X58420000Y-75946000D02*
X57820000Y-76546000D01*
X62458000Y-83820000D02*
X62458000Y-86737400D01*
X75632696Y-71882000D02*
X76127696Y-71387000D01*
X77451685Y-71374000D02*
X77451685Y-70897315D01*
X77483000Y-68047800D02*
X78275400Y-67255400D01*
X43180000Y-69271654D02*
X45593654Y-66858000D01*
X74503665Y-71201665D02*
X75184000Y-71882000D01*
X128765600Y-70853000D02*
X129128600Y-70490000D01*
X57820000Y-77470000D02*
X58074000Y-77724000D01*
X43180000Y-70358000D02*
X43180000Y-69271654D01*
X45593654Y-66858000D02*
X52132283Y-66858000D01*
X128765600Y-70866000D02*
X128765600Y-70853000D01*
X67818000Y-79933800D02*
X67945000Y-79806800D01*
X52532284Y-66458000D02*
X54381372Y-66458000D01*
X55429686Y-67506314D02*
X55429686Y-68268314D01*
X112229600Y-83286600D02*
X112229600Y-84074000D01*
X62458000Y-86737400D02*
X61695400Y-87500000D01*
X72136000Y-71201665D02*
X72136000Y-71374000D01*
%TO.N,Net-(R2-Pad2)*%
X72570000Y-104810000D02*
X72460000Y-104920000D01*
%TO.N,Net-(U10-~{Y4})*%
X73244000Y-77216000D02*
X72990000Y-76962000D01*
X76524000Y-77654000D02*
X76086000Y-77216000D01*
X76086000Y-77216000D02*
X73244000Y-77216000D01*
X67945000Y-73371000D02*
X68072000Y-73244000D01*
X67945000Y-74625200D02*
X67945000Y-73371000D01*
X77378000Y-77654000D02*
X76524000Y-77654000D01*
%TO.N,Net-(U1-CS)*%
X62865000Y-74625200D02*
X62865000Y-73371000D01*
X62865000Y-73371000D02*
X62992000Y-73244000D01*
%TO.N,Net-(U10-~{Y3})*%
X75692000Y-72644000D02*
X76546000Y-71790000D01*
X66675000Y-74625200D02*
X67122660Y-74177540D01*
X76546000Y-71790000D02*
X79756000Y-71790000D01*
X67122660Y-74177540D02*
X67122660Y-73244000D01*
%TO.N,Net-(U10-A2)*%
X62700000Y-81826000D02*
X64135000Y-80391000D01*
X54371372Y-89508000D02*
X55419843Y-88459527D01*
X64135000Y-80391000D02*
X64135000Y-79806800D01*
X60356314Y-81826000D02*
X62700000Y-81826000D01*
X43180000Y-86644346D02*
X46043654Y-89508000D01*
X43180000Y-85608000D02*
X43180000Y-86644346D01*
X55500785Y-86681529D02*
X60356314Y-81826000D01*
X55419843Y-86681529D02*
X55500785Y-86681529D01*
X46043654Y-89508000D02*
X54371372Y-89508000D01*
X55419843Y-88459527D02*
X55419843Y-86681529D01*
%TO.N,Net-(U10-A1)*%
X61830000Y-81426000D02*
X62865000Y-80391000D01*
X48183654Y-89108000D02*
X54205686Y-89108000D01*
X45720000Y-85608000D02*
X45720000Y-86644346D01*
X54205686Y-89108000D02*
X55019843Y-88293842D01*
X45720000Y-86644346D02*
X48183654Y-89108000D01*
X55019843Y-86515843D02*
X60109686Y-81426000D01*
X62865000Y-80391000D02*
X62865000Y-79806800D01*
X55019843Y-88293842D02*
X55019843Y-86515843D01*
X60109686Y-81426000D02*
X61830000Y-81426000D01*
%TO.N,Net-(U10-A0)*%
X48260000Y-86644346D02*
X50323654Y-88708000D01*
X54610000Y-88138000D02*
X54610000Y-86360000D01*
X61468000Y-79933800D02*
X61595000Y-79806800D01*
X48260000Y-85608000D02*
X48260000Y-86644346D01*
X54610000Y-86360000D02*
X59944000Y-81026000D01*
X50323654Y-88708000D02*
X54040000Y-88708000D01*
X54040000Y-88708000D02*
X54610000Y-88138000D01*
X59944000Y-81026000D02*
X61468000Y-81026000D01*
X61468000Y-81026000D02*
X61468000Y-79933800D01*
%TO.N,/CS_Y7*%
X69215000Y-79806800D02*
X69215000Y-82677000D01*
X75604000Y-84924000D02*
X75604000Y-87490000D01*
X71396735Y-84858735D02*
X75669265Y-84858735D01*
X75669265Y-84858735D02*
X75604000Y-84924000D01*
X69215000Y-82677000D02*
X71396735Y-84858735D01*
%TO.N,unconnected-(U10-~{Y6}-Pad9)*%
X70485000Y-74625200D02*
X70485000Y-73879000D01*
%TO.N,Net-(U10-~{Y5})*%
X69215000Y-74625200D02*
X69215000Y-73586997D01*
X84582000Y-77762000D02*
X84582000Y-78232000D01*
X73365470Y-78186000D02*
X77008000Y-78186000D01*
X114759058Y-80550000D02*
X116143059Y-81934000D01*
X126378600Y-84748000D02*
X126378600Y-87490000D01*
X88986000Y-80350000D02*
X89186000Y-80550000D01*
X69215000Y-73586997D02*
X68872003Y-73244000D01*
X88646000Y-80350000D02*
X88986000Y-80350000D01*
X89186000Y-80550000D02*
X114759058Y-80550000D01*
X123564600Y-81934000D02*
X126378600Y-84748000D01*
X78578000Y-78778003D02*
X79013683Y-78778003D01*
X80029686Y-77762000D02*
X84582000Y-77762000D01*
X77008000Y-78186000D02*
X77308000Y-78486000D01*
X79013683Y-78778003D02*
X80029686Y-77762000D01*
X84582000Y-78232000D02*
X86106000Y-79756000D01*
X116143059Y-81934000D02*
X123564600Y-81934000D01*
%TD*%
M02*
