M48
; DRILL file KiCad 10.0.3 date 2026-08-13T21:29:39
; FORMAT={-:-/ absolute / metric / decimal}
; #@! TF.CreationDate,2026-08-13T21:29:39-04:00
; #@! TF.GenerationSoftware,Kicad,Pcbnew,10.0.3
; #@! TF.FileFunction,Plated,1,2,PTH
FMAT,2
METRIC
; #@! TA.AperFunction,Plated,PTH,ViaDrill
T1C0.300
; #@! TA.AperFunction,Plated,PTH,ComponentDrill
T2C0.800
; #@! TA.AperFunction,Plated,PTH,ComponentDrill
T3C1.000
; #@! TA.AperFunction,Plated,PTH,ComponentDrill
T4C1.500
%
G90
G05
T1
X41.148Y-92.456
X50.546Y-91.186
X56.474Y-77.724
X56.642Y-87.122
X56.896Y-75.103
X57.274Y-77.724
X57.658Y-75.346
X58.074Y-77.724
X58.42Y-75.946
X58.42Y-76.962
X59.436Y-83.82
X60.593Y-82.437
X60.706Y-77.47
X61.214Y-84.074
X61.468Y-82.426
X62.992Y-73.244
X64.516Y-71.882
X65.422Y-71.01
X66.04Y-70.104
X66.294Y-71.882
X66.323Y-73.244
X67.123Y-73.244
X67.338Y-82.863
X67.818Y-81.534
X68.072Y-73.244
X68.58Y-82.804
X68.872Y-73.244
X69.678Y-71.202
X70.104Y-82.55
X70.44Y-70.44
X71.374Y-77.724
X72.136Y-84.074
X72.99Y-76.962
X73.142Y-83.463
X73.152Y-70.602
X73.365Y-78.186
X73.412Y-71.802
X75.184Y-74.422
X75.692Y-72.644
X75.9Y-74.064
X76.578Y-75.862
X76.708Y-74.584
X76.9Y-76.595
X76.962Y-72.806
X76.962Y-81.204
X76.962Y-82.004
X76.962Y-82.804
X76.986Y-80.38
X77.308Y-78.486
X77.378Y-77.654
X78.1Y-75.605
X78.1Y-76.454
X78.578Y-77.978
X78.578Y-78.778
X79.756Y-71.79
X79.756Y-73.406
X80.772Y-75.438
X81.538Y-75.206
X82.296Y-75.606
X86.106Y-79.756
X88.646Y-80.35
X110.68Y-72.367
X113.005Y-82.75
X114.275Y-73.152
X114.498Y-82.835
X117.069Y-73.606
X117.577Y-84.074
X119.499Y-83.473
X119.609Y-73.936
X122.657Y-82.782
X125.959Y-74.406
X127.254Y-81.399
X127.762Y-74.806
X128.629Y-80.199
X128.752Y-81.399
X128.903Y-82.184
X128.974Y-83.741
X129.052Y-84.537
X129.121Y-82.954
X130.785Y-72.136
X130.785Y-73.736
X130.785Y-74.536
X130.785Y-75.336
X130.785Y-76.136
X130.82Y-76.935
T2
X44.704Y-45.554
X44.704Y-56.554
X44.958Y-101.434
X44.958Y-112.434
X64.35Y-22.606
X64.604Y-131.572
X75.35Y-22.606
X75.604Y-131.572
X115.404Y-22.606
X115.658Y-131.572
X126.404Y-22.606
X126.658Y-131.572
X166.204Y-23.114
X166.204Y-131.318
X177.204Y-23.114
X177.204Y-131.318
T3
X38.1Y-70.358
X38.1Y-85.608
X40.64Y-70.358
X40.64Y-85.608
X43.18Y-70.358
X43.18Y-85.608
X45.72Y-70.358
X45.72Y-85.608
X48.26Y-70.358
X48.26Y-85.608
X50.8Y-70.358
X50.8Y-85.608
X53.34Y-70.358
X53.34Y-85.608
X61.775Y-67.255
X61.854Y-87.49
X64.525Y-67.255
X64.564Y-87.49
X67.275Y-67.255
X67.354Y-87.49
X70.025Y-67.255
X70.104Y-87.49
X72.775Y-67.255
X72.854Y-87.49
X75.565Y-67.255
X75.604Y-87.49
X78.275Y-67.255
X78.354Y-87.49
X112.629Y-67.45
X112.629Y-87.49
X115.339Y-87.49
X115.379Y-67.45
X118.129Y-67.45
X118.129Y-87.49
X120.879Y-67.45
X120.879Y-87.49
X123.629Y-67.45
X123.629Y-87.49
X126.379Y-87.49
X126.419Y-67.45
X129.129Y-67.45
X129.129Y-87.49
X163.454Y-67.45
X163.454Y-87.49
X166.164Y-87.49
X166.204Y-67.45
X168.954Y-67.45
X168.954Y-87.49
X171.704Y-67.45
X171.704Y-87.49
X174.454Y-67.45
X174.454Y-87.49
X177.204Y-87.49
X177.244Y-67.45
X179.954Y-67.45
X179.954Y-87.49
T4
X66.215Y-41.715
X66.294Y-107.95
X72.565Y-39.175
X72.644Y-105.41
X117.069Y-41.91
X117.069Y-107.95
X123.419Y-39.37
X123.419Y-105.41
X167.894Y-41.91
X167.894Y-107.95
X174.244Y-39.37
X174.244Y-105.41
M30
