%TF.GenerationSoftware,KiCad,Pcbnew,10.0.3*%
%TF.CreationDate,2026-08-13T21:28:07-04:00*%
%TF.ProjectId,Hackpad,4861636b-7061-4642-9e6b-696361645f70,rev?*%
%TF.SameCoordinates,Original*%
%TF.FileFunction,Legend,Top*%
%TF.FilePolarity,Positive*%
%FSLAX46Y46*%
G04 Gerber Fmt 4.6, Leading zero omitted, Abs format (unit mm)*
G04 Created by KiCad (PCBNEW 10.0.3) date 2026-08-13 21:28:07*
%MOMM*%
%LPD*%
G01*
G04 APERTURE LIST*
%ADD10C,0.100000*%
%ADD11C,0.150000*%
%ADD12C,0.123000*%
%ADD13C,0.025400*%
%ADD14C,0.254000*%
%ADD15C,0.120000*%
%ADD16C,0.127000*%
%ADD17C,0.152400*%
G04 APERTURE END LIST*
D10*
X128506180Y-89365312D02*
X128982371Y-89031979D01*
X128506180Y-88793884D02*
X129506180Y-88793884D01*
X129506180Y-88793884D02*
X129506180Y-89174836D01*
X129506180Y-89174836D02*
X129458561Y-89270074D01*
X129458561Y-89270074D02*
X129410942Y-89317693D01*
X129410942Y-89317693D02*
X129315704Y-89365312D01*
X129315704Y-89365312D02*
X129172847Y-89365312D01*
X129172847Y-89365312D02*
X129077609Y-89317693D01*
X129077609Y-89317693D02*
X129029990Y-89270074D01*
X129029990Y-89270074D02*
X128982371Y-89174836D01*
X128982371Y-89174836D02*
X128982371Y-88793884D01*
X128553800Y-89746265D02*
X128506180Y-89889122D01*
X128506180Y-89889122D02*
X128506180Y-90127217D01*
X128506180Y-90127217D02*
X128553800Y-90222455D01*
X128553800Y-90222455D02*
X128601419Y-90270074D01*
X128601419Y-90270074D02*
X128696657Y-90317693D01*
X128696657Y-90317693D02*
X128791895Y-90317693D01*
X128791895Y-90317693D02*
X128887133Y-90270074D01*
X128887133Y-90270074D02*
X128934752Y-90222455D01*
X128934752Y-90222455D02*
X128982371Y-90127217D01*
X128982371Y-90127217D02*
X129029990Y-89936741D01*
X129029990Y-89936741D02*
X129077609Y-89841503D01*
X129077609Y-89841503D02*
X129125228Y-89793884D01*
X129125228Y-89793884D02*
X129220466Y-89746265D01*
X129220466Y-89746265D02*
X129315704Y-89746265D01*
X129315704Y-89746265D02*
X129410942Y-89793884D01*
X129410942Y-89793884D02*
X129458561Y-89841503D01*
X129458561Y-89841503D02*
X129506180Y-89936741D01*
X129506180Y-89936741D02*
X129506180Y-90174836D01*
X129506180Y-90174836D02*
X129458561Y-90317693D01*
X129506180Y-90603408D02*
X129506180Y-91174836D01*
X128506180Y-90889122D02*
X129506180Y-90889122D01*
X126101419Y-89365312D02*
X126053800Y-89317693D01*
X126053800Y-89317693D02*
X126006180Y-89174836D01*
X126006180Y-89174836D02*
X126006180Y-89079598D01*
X126006180Y-89079598D02*
X126053800Y-88936741D01*
X126053800Y-88936741D02*
X126149038Y-88841503D01*
X126149038Y-88841503D02*
X126244276Y-88793884D01*
X126244276Y-88793884D02*
X126434752Y-88746265D01*
X126434752Y-88746265D02*
X126577609Y-88746265D01*
X126577609Y-88746265D02*
X126768085Y-88793884D01*
X126768085Y-88793884D02*
X126863323Y-88841503D01*
X126863323Y-88841503D02*
X126958561Y-88936741D01*
X126958561Y-88936741D02*
X127006180Y-89079598D01*
X127006180Y-89079598D02*
X127006180Y-89174836D01*
X127006180Y-89174836D02*
X126958561Y-89317693D01*
X126958561Y-89317693D02*
X126910942Y-89365312D01*
X126053800Y-89746265D02*
X126006180Y-89889122D01*
X126006180Y-89889122D02*
X126006180Y-90127217D01*
X126006180Y-90127217D02*
X126053800Y-90222455D01*
X126053800Y-90222455D02*
X126101419Y-90270074D01*
X126101419Y-90270074D02*
X126196657Y-90317693D01*
X126196657Y-90317693D02*
X126291895Y-90317693D01*
X126291895Y-90317693D02*
X126387133Y-90270074D01*
X126387133Y-90270074D02*
X126434752Y-90222455D01*
X126434752Y-90222455D02*
X126482371Y-90127217D01*
X126482371Y-90127217D02*
X126529990Y-89936741D01*
X126529990Y-89936741D02*
X126577609Y-89841503D01*
X126577609Y-89841503D02*
X126625228Y-89793884D01*
X126625228Y-89793884D02*
X126720466Y-89746265D01*
X126720466Y-89746265D02*
X126815704Y-89746265D01*
X126815704Y-89746265D02*
X126910942Y-89793884D01*
X126910942Y-89793884D02*
X126958561Y-89841503D01*
X126958561Y-89841503D02*
X127006180Y-89936741D01*
X127006180Y-89936741D02*
X127006180Y-90174836D01*
X127006180Y-90174836D02*
X126958561Y-90317693D01*
X123006180Y-88793884D02*
X124006180Y-88793884D01*
X124006180Y-88793884D02*
X124006180Y-89031979D01*
X124006180Y-89031979D02*
X123958561Y-89174836D01*
X123958561Y-89174836D02*
X123863323Y-89270074D01*
X123863323Y-89270074D02*
X123768085Y-89317693D01*
X123768085Y-89317693D02*
X123577609Y-89365312D01*
X123577609Y-89365312D02*
X123434752Y-89365312D01*
X123434752Y-89365312D02*
X123244276Y-89317693D01*
X123244276Y-89317693D02*
X123149038Y-89270074D01*
X123149038Y-89270074D02*
X123053800Y-89174836D01*
X123053800Y-89174836D02*
X123006180Y-89031979D01*
X123006180Y-89031979D02*
X123006180Y-88793884D01*
X123101419Y-90365312D02*
X123053800Y-90317693D01*
X123053800Y-90317693D02*
X123006180Y-90174836D01*
X123006180Y-90174836D02*
X123006180Y-90079598D01*
X123006180Y-90079598D02*
X123053800Y-89936741D01*
X123053800Y-89936741D02*
X123149038Y-89841503D01*
X123149038Y-89841503D02*
X123244276Y-89793884D01*
X123244276Y-89793884D02*
X123434752Y-89746265D01*
X123434752Y-89746265D02*
X123577609Y-89746265D01*
X123577609Y-89746265D02*
X123768085Y-89793884D01*
X123768085Y-89793884D02*
X123863323Y-89841503D01*
X123863323Y-89841503D02*
X123958561Y-89936741D01*
X123958561Y-89936741D02*
X124006180Y-90079598D01*
X124006180Y-90079598D02*
X124006180Y-90174836D01*
X124006180Y-90174836D02*
X123958561Y-90317693D01*
X123958561Y-90317693D02*
X123910942Y-90365312D01*
X120553800Y-88746265D02*
X120506180Y-88889122D01*
X120506180Y-88889122D02*
X120506180Y-89127217D01*
X120506180Y-89127217D02*
X120553800Y-89222455D01*
X120553800Y-89222455D02*
X120601419Y-89270074D01*
X120601419Y-89270074D02*
X120696657Y-89317693D01*
X120696657Y-89317693D02*
X120791895Y-89317693D01*
X120791895Y-89317693D02*
X120887133Y-89270074D01*
X120887133Y-89270074D02*
X120934752Y-89222455D01*
X120934752Y-89222455D02*
X120982371Y-89127217D01*
X120982371Y-89127217D02*
X121029990Y-88936741D01*
X121029990Y-88936741D02*
X121077609Y-88841503D01*
X121077609Y-88841503D02*
X121125228Y-88793884D01*
X121125228Y-88793884D02*
X121220466Y-88746265D01*
X121220466Y-88746265D02*
X121315704Y-88746265D01*
X121315704Y-88746265D02*
X121410942Y-88793884D01*
X121410942Y-88793884D02*
X121458561Y-88841503D01*
X121458561Y-88841503D02*
X121506180Y-88936741D01*
X121506180Y-88936741D02*
X121506180Y-89174836D01*
X121506180Y-89174836D02*
X121458561Y-89317693D01*
X120506180Y-89746265D02*
X121506180Y-89746265D01*
X121506180Y-89746265D02*
X121506180Y-89984360D01*
X121506180Y-89984360D02*
X121458561Y-90127217D01*
X121458561Y-90127217D02*
X121363323Y-90222455D01*
X121363323Y-90222455D02*
X121268085Y-90270074D01*
X121268085Y-90270074D02*
X121077609Y-90317693D01*
X121077609Y-90317693D02*
X120934752Y-90317693D01*
X120934752Y-90317693D02*
X120744276Y-90270074D01*
X120744276Y-90270074D02*
X120649038Y-90222455D01*
X120649038Y-90222455D02*
X120553800Y-90127217D01*
X120553800Y-90127217D02*
X120506180Y-89984360D01*
X120506180Y-89984360D02*
X120506180Y-89746265D01*
X120791895Y-90698646D02*
X120791895Y-91174836D01*
X120506180Y-90603408D02*
X121506180Y-90936741D01*
X121506180Y-90936741D02*
X120506180Y-91270074D01*
X117553800Y-88746265D02*
X117506180Y-88889122D01*
X117506180Y-88889122D02*
X117506180Y-89127217D01*
X117506180Y-89127217D02*
X117553800Y-89222455D01*
X117553800Y-89222455D02*
X117601419Y-89270074D01*
X117601419Y-89270074D02*
X117696657Y-89317693D01*
X117696657Y-89317693D02*
X117791895Y-89317693D01*
X117791895Y-89317693D02*
X117887133Y-89270074D01*
X117887133Y-89270074D02*
X117934752Y-89222455D01*
X117934752Y-89222455D02*
X117982371Y-89127217D01*
X117982371Y-89127217D02*
X118029990Y-88936741D01*
X118029990Y-88936741D02*
X118077609Y-88841503D01*
X118077609Y-88841503D02*
X118125228Y-88793884D01*
X118125228Y-88793884D02*
X118220466Y-88746265D01*
X118220466Y-88746265D02*
X118315704Y-88746265D01*
X118315704Y-88746265D02*
X118410942Y-88793884D01*
X118410942Y-88793884D02*
X118458561Y-88841503D01*
X118458561Y-88841503D02*
X118506180Y-88936741D01*
X118506180Y-88936741D02*
X118506180Y-89174836D01*
X118506180Y-89174836D02*
X118458561Y-89317693D01*
X117601419Y-90317693D02*
X117553800Y-90270074D01*
X117553800Y-90270074D02*
X117506180Y-90127217D01*
X117506180Y-90127217D02*
X117506180Y-90031979D01*
X117506180Y-90031979D02*
X117553800Y-89889122D01*
X117553800Y-89889122D02*
X117649038Y-89793884D01*
X117649038Y-89793884D02*
X117744276Y-89746265D01*
X117744276Y-89746265D02*
X117934752Y-89698646D01*
X117934752Y-89698646D02*
X118077609Y-89698646D01*
X118077609Y-89698646D02*
X118268085Y-89746265D01*
X118268085Y-89746265D02*
X118363323Y-89793884D01*
X118363323Y-89793884D02*
X118458561Y-89889122D01*
X118458561Y-89889122D02*
X118506180Y-90031979D01*
X118506180Y-90031979D02*
X118506180Y-90127217D01*
X118506180Y-90127217D02*
X118458561Y-90270074D01*
X118458561Y-90270074D02*
X118410942Y-90317693D01*
X117506180Y-91222455D02*
X117506180Y-90746265D01*
X117506180Y-90746265D02*
X118506180Y-90746265D01*
X115958561Y-89317693D02*
X116006180Y-89222455D01*
X116006180Y-89222455D02*
X116006180Y-89079598D01*
X116006180Y-89079598D02*
X115958561Y-88936741D01*
X115958561Y-88936741D02*
X115863323Y-88841503D01*
X115863323Y-88841503D02*
X115768085Y-88793884D01*
X115768085Y-88793884D02*
X115577609Y-88746265D01*
X115577609Y-88746265D02*
X115434752Y-88746265D01*
X115434752Y-88746265D02*
X115244276Y-88793884D01*
X115244276Y-88793884D02*
X115149038Y-88841503D01*
X115149038Y-88841503D02*
X115053800Y-88936741D01*
X115053800Y-88936741D02*
X115006180Y-89079598D01*
X115006180Y-89079598D02*
X115006180Y-89174836D01*
X115006180Y-89174836D02*
X115053800Y-89317693D01*
X115053800Y-89317693D02*
X115101419Y-89365312D01*
X115101419Y-89365312D02*
X115434752Y-89365312D01*
X115434752Y-89365312D02*
X115434752Y-89174836D01*
X115006180Y-89793884D02*
X116006180Y-89793884D01*
X116006180Y-89793884D02*
X115006180Y-90365312D01*
X115006180Y-90365312D02*
X116006180Y-90365312D01*
X115006180Y-90841503D02*
X116006180Y-90841503D01*
X116006180Y-90841503D02*
X116006180Y-91079598D01*
X116006180Y-91079598D02*
X115958561Y-91222455D01*
X115958561Y-91222455D02*
X115863323Y-91317693D01*
X115863323Y-91317693D02*
X115768085Y-91365312D01*
X115768085Y-91365312D02*
X115577609Y-91412931D01*
X115577609Y-91412931D02*
X115434752Y-91412931D01*
X115434752Y-91412931D02*
X115244276Y-91365312D01*
X115244276Y-91365312D02*
X115149038Y-91317693D01*
X115149038Y-91317693D02*
X115053800Y-91222455D01*
X115053800Y-91222455D02*
X115006180Y-91079598D01*
X115006180Y-91079598D02*
X115006180Y-90841503D01*
X113006180Y-88651027D02*
X112006180Y-88984360D01*
X112006180Y-88984360D02*
X113006180Y-89317693D01*
X112101419Y-90222455D02*
X112053800Y-90174836D01*
X112053800Y-90174836D02*
X112006180Y-90031979D01*
X112006180Y-90031979D02*
X112006180Y-89936741D01*
X112006180Y-89936741D02*
X112053800Y-89793884D01*
X112053800Y-89793884D02*
X112149038Y-89698646D01*
X112149038Y-89698646D02*
X112244276Y-89651027D01*
X112244276Y-89651027D02*
X112434752Y-89603408D01*
X112434752Y-89603408D02*
X112577609Y-89603408D01*
X112577609Y-89603408D02*
X112768085Y-89651027D01*
X112768085Y-89651027D02*
X112863323Y-89698646D01*
X112863323Y-89698646D02*
X112958561Y-89793884D01*
X112958561Y-89793884D02*
X113006180Y-89936741D01*
X113006180Y-89936741D02*
X113006180Y-90031979D01*
X113006180Y-90031979D02*
X112958561Y-90174836D01*
X112958561Y-90174836D02*
X112910942Y-90222455D01*
X112101419Y-91222455D02*
X112053800Y-91174836D01*
X112053800Y-91174836D02*
X112006180Y-91031979D01*
X112006180Y-91031979D02*
X112006180Y-90936741D01*
X112006180Y-90936741D02*
X112053800Y-90793884D01*
X112053800Y-90793884D02*
X112149038Y-90698646D01*
X112149038Y-90698646D02*
X112244276Y-90651027D01*
X112244276Y-90651027D02*
X112434752Y-90603408D01*
X112434752Y-90603408D02*
X112577609Y-90603408D01*
X112577609Y-90603408D02*
X112768085Y-90651027D01*
X112768085Y-90651027D02*
X112863323Y-90698646D01*
X112863323Y-90698646D02*
X112958561Y-90793884D01*
X112958561Y-90793884D02*
X113006180Y-90936741D01*
X113006180Y-90936741D02*
X113006180Y-91031979D01*
X113006180Y-91031979D02*
X112958561Y-91174836D01*
X112958561Y-91174836D02*
X112910942Y-91222455D01*
D11*
X44627200Y-82744904D02*
X44674819Y-82602047D01*
X44674819Y-82602047D02*
X44674819Y-82363952D01*
X44674819Y-82363952D02*
X44627200Y-82268714D01*
X44627200Y-82268714D02*
X44579580Y-82221095D01*
X44579580Y-82221095D02*
X44484342Y-82173476D01*
X44484342Y-82173476D02*
X44389104Y-82173476D01*
X44389104Y-82173476D02*
X44293866Y-82221095D01*
X44293866Y-82221095D02*
X44246247Y-82268714D01*
X44246247Y-82268714D02*
X44198628Y-82363952D01*
X44198628Y-82363952D02*
X44151009Y-82554428D01*
X44151009Y-82554428D02*
X44103390Y-82649666D01*
X44103390Y-82649666D02*
X44055771Y-82697285D01*
X44055771Y-82697285D02*
X43960533Y-82744904D01*
X43960533Y-82744904D02*
X43865295Y-82744904D01*
X43865295Y-82744904D02*
X43770057Y-82697285D01*
X43770057Y-82697285D02*
X43722438Y-82649666D01*
X43722438Y-82649666D02*
X43674819Y-82554428D01*
X43674819Y-82554428D02*
X43674819Y-82316333D01*
X43674819Y-82316333D02*
X43722438Y-82173476D01*
X44627200Y-81363952D02*
X44674819Y-81459190D01*
X44674819Y-81459190D02*
X44674819Y-81649666D01*
X44674819Y-81649666D02*
X44627200Y-81744904D01*
X44627200Y-81744904D02*
X44531961Y-81792523D01*
X44531961Y-81792523D02*
X44151009Y-81792523D01*
X44151009Y-81792523D02*
X44055771Y-81744904D01*
X44055771Y-81744904D02*
X44008152Y-81649666D01*
X44008152Y-81649666D02*
X44008152Y-81459190D01*
X44008152Y-81459190D02*
X44055771Y-81363952D01*
X44055771Y-81363952D02*
X44151009Y-81316333D01*
X44151009Y-81316333D02*
X44246247Y-81316333D01*
X44246247Y-81316333D02*
X44341485Y-81792523D01*
X44627200Y-80506809D02*
X44674819Y-80602047D01*
X44674819Y-80602047D02*
X44674819Y-80792523D01*
X44674819Y-80792523D02*
X44627200Y-80887761D01*
X44627200Y-80887761D02*
X44531961Y-80935380D01*
X44531961Y-80935380D02*
X44151009Y-80935380D01*
X44151009Y-80935380D02*
X44055771Y-80887761D01*
X44055771Y-80887761D02*
X44008152Y-80792523D01*
X44008152Y-80792523D02*
X44008152Y-80602047D01*
X44008152Y-80602047D02*
X44055771Y-80506809D01*
X44055771Y-80506809D02*
X44151009Y-80459190D01*
X44151009Y-80459190D02*
X44246247Y-80459190D01*
X44246247Y-80459190D02*
X44341485Y-80935380D01*
X44627200Y-79649666D02*
X44674819Y-79744904D01*
X44674819Y-79744904D02*
X44674819Y-79935380D01*
X44674819Y-79935380D02*
X44627200Y-80030618D01*
X44627200Y-80030618D02*
X44531961Y-80078237D01*
X44531961Y-80078237D02*
X44151009Y-80078237D01*
X44151009Y-80078237D02*
X44055771Y-80030618D01*
X44055771Y-80030618D02*
X44008152Y-79935380D01*
X44008152Y-79935380D02*
X44008152Y-79744904D01*
X44008152Y-79744904D02*
X44055771Y-79649666D01*
X44055771Y-79649666D02*
X44151009Y-79602047D01*
X44151009Y-79602047D02*
X44246247Y-79602047D01*
X44246247Y-79602047D02*
X44341485Y-80078237D01*
X44674819Y-78744904D02*
X43674819Y-78744904D01*
X44627200Y-78744904D02*
X44674819Y-78840142D01*
X44674819Y-78840142D02*
X44674819Y-79030618D01*
X44674819Y-79030618D02*
X44627200Y-79125856D01*
X44627200Y-79125856D02*
X44579580Y-79173475D01*
X44579580Y-79173475D02*
X44484342Y-79221094D01*
X44484342Y-79221094D02*
X44198628Y-79221094D01*
X44198628Y-79221094D02*
X44103390Y-79173475D01*
X44103390Y-79173475D02*
X44055771Y-79125856D01*
X44055771Y-79125856D02*
X44008152Y-79030618D01*
X44008152Y-79030618D02*
X44008152Y-78840142D01*
X44008152Y-78840142D02*
X44055771Y-78744904D01*
X44627200Y-77554427D02*
X44674819Y-77411570D01*
X44674819Y-77411570D02*
X44674819Y-77173475D01*
X44674819Y-77173475D02*
X44627200Y-77078237D01*
X44627200Y-77078237D02*
X44579580Y-77030618D01*
X44579580Y-77030618D02*
X44484342Y-76982999D01*
X44484342Y-76982999D02*
X44389104Y-76982999D01*
X44389104Y-76982999D02*
X44293866Y-77030618D01*
X44293866Y-77030618D02*
X44246247Y-77078237D01*
X44246247Y-77078237D02*
X44198628Y-77173475D01*
X44198628Y-77173475D02*
X44151009Y-77363951D01*
X44151009Y-77363951D02*
X44103390Y-77459189D01*
X44103390Y-77459189D02*
X44055771Y-77506808D01*
X44055771Y-77506808D02*
X43960533Y-77554427D01*
X43960533Y-77554427D02*
X43865295Y-77554427D01*
X43865295Y-77554427D02*
X43770057Y-77506808D01*
X43770057Y-77506808D02*
X43722438Y-77459189D01*
X43722438Y-77459189D02*
X43674819Y-77363951D01*
X43674819Y-77363951D02*
X43674819Y-77125856D01*
X43674819Y-77125856D02*
X43722438Y-76982999D01*
X44008152Y-76697284D02*
X44008152Y-76316332D01*
X43674819Y-76554427D02*
X44531961Y-76554427D01*
X44531961Y-76554427D02*
X44627200Y-76506808D01*
X44627200Y-76506808D02*
X44674819Y-76411570D01*
X44674819Y-76411570D02*
X44674819Y-76316332D01*
X44008152Y-75554427D02*
X44674819Y-75554427D01*
X44008152Y-75982998D02*
X44531961Y-75982998D01*
X44531961Y-75982998D02*
X44627200Y-75935379D01*
X44627200Y-75935379D02*
X44674819Y-75840141D01*
X44674819Y-75840141D02*
X44674819Y-75697284D01*
X44674819Y-75697284D02*
X44627200Y-75602046D01*
X44627200Y-75602046D02*
X44579580Y-75554427D01*
X44674819Y-74649665D02*
X43674819Y-74649665D01*
X44627200Y-74649665D02*
X44674819Y-74744903D01*
X44674819Y-74744903D02*
X44674819Y-74935379D01*
X44674819Y-74935379D02*
X44627200Y-75030617D01*
X44627200Y-75030617D02*
X44579580Y-75078236D01*
X44579580Y-75078236D02*
X44484342Y-75125855D01*
X44484342Y-75125855D02*
X44198628Y-75125855D01*
X44198628Y-75125855D02*
X44103390Y-75078236D01*
X44103390Y-75078236D02*
X44055771Y-75030617D01*
X44055771Y-75030617D02*
X44008152Y-74935379D01*
X44008152Y-74935379D02*
X44008152Y-74744903D01*
X44008152Y-74744903D02*
X44055771Y-74649665D01*
X44674819Y-74173474D02*
X44008152Y-74173474D01*
X43674819Y-74173474D02*
X43722438Y-74221093D01*
X43722438Y-74221093D02*
X43770057Y-74173474D01*
X43770057Y-74173474D02*
X43722438Y-74125855D01*
X43722438Y-74125855D02*
X43674819Y-74173474D01*
X43674819Y-74173474D02*
X43770057Y-74173474D01*
X44674819Y-73554427D02*
X44627200Y-73649665D01*
X44627200Y-73649665D02*
X44579580Y-73697284D01*
X44579580Y-73697284D02*
X44484342Y-73744903D01*
X44484342Y-73744903D02*
X44198628Y-73744903D01*
X44198628Y-73744903D02*
X44103390Y-73697284D01*
X44103390Y-73697284D02*
X44055771Y-73649665D01*
X44055771Y-73649665D02*
X44008152Y-73554427D01*
X44008152Y-73554427D02*
X44008152Y-73411570D01*
X44008152Y-73411570D02*
X44055771Y-73316332D01*
X44055771Y-73316332D02*
X44103390Y-73268713D01*
X44103390Y-73268713D02*
X44198628Y-73221094D01*
X44198628Y-73221094D02*
X44484342Y-73221094D01*
X44484342Y-73221094D02*
X44579580Y-73268713D01*
X44579580Y-73268713D02*
X44627200Y-73316332D01*
X44627200Y-73316332D02*
X44674819Y-73411570D01*
X44674819Y-73411570D02*
X44674819Y-73554427D01*
X69612333Y-129391819D02*
X69279000Y-128915628D01*
X69040905Y-129391819D02*
X69040905Y-128391819D01*
X69040905Y-128391819D02*
X69421857Y-128391819D01*
X69421857Y-128391819D02*
X69517095Y-128439438D01*
X69517095Y-128439438D02*
X69564714Y-128487057D01*
X69564714Y-128487057D02*
X69612333Y-128582295D01*
X69612333Y-128582295D02*
X69612333Y-128725152D01*
X69612333Y-128725152D02*
X69564714Y-128820390D01*
X69564714Y-128820390D02*
X69517095Y-128868009D01*
X69517095Y-128868009D02*
X69421857Y-128915628D01*
X69421857Y-128915628D02*
X69040905Y-128915628D01*
X69993286Y-128487057D02*
X70040905Y-128439438D01*
X70040905Y-128439438D02*
X70136143Y-128391819D01*
X70136143Y-128391819D02*
X70374238Y-128391819D01*
X70374238Y-128391819D02*
X70469476Y-128439438D01*
X70469476Y-128439438D02*
X70517095Y-128487057D01*
X70517095Y-128487057D02*
X70564714Y-128582295D01*
X70564714Y-128582295D02*
X70564714Y-128677533D01*
X70564714Y-128677533D02*
X70517095Y-128820390D01*
X70517095Y-128820390D02*
X69945667Y-129391819D01*
X69945667Y-129391819D02*
X70564714Y-129391819D01*
X170370667Y-103023200D02*
X170513524Y-103070819D01*
X170513524Y-103070819D02*
X170751619Y-103070819D01*
X170751619Y-103070819D02*
X170846857Y-103023200D01*
X170846857Y-103023200D02*
X170894476Y-102975580D01*
X170894476Y-102975580D02*
X170942095Y-102880342D01*
X170942095Y-102880342D02*
X170942095Y-102785104D01*
X170942095Y-102785104D02*
X170894476Y-102689866D01*
X170894476Y-102689866D02*
X170846857Y-102642247D01*
X170846857Y-102642247D02*
X170751619Y-102594628D01*
X170751619Y-102594628D02*
X170561143Y-102547009D01*
X170561143Y-102547009D02*
X170465905Y-102499390D01*
X170465905Y-102499390D02*
X170418286Y-102451771D01*
X170418286Y-102451771D02*
X170370667Y-102356533D01*
X170370667Y-102356533D02*
X170370667Y-102261295D01*
X170370667Y-102261295D02*
X170418286Y-102166057D01*
X170418286Y-102166057D02*
X170465905Y-102118438D01*
X170465905Y-102118438D02*
X170561143Y-102070819D01*
X170561143Y-102070819D02*
X170799238Y-102070819D01*
X170799238Y-102070819D02*
X170942095Y-102118438D01*
X171275429Y-102070819D02*
X171513524Y-103070819D01*
X171513524Y-103070819D02*
X171704000Y-102356533D01*
X171704000Y-102356533D02*
X171894476Y-103070819D01*
X171894476Y-103070819D02*
X172132572Y-102070819D01*
X172942095Y-102070819D02*
X172751619Y-102070819D01*
X172751619Y-102070819D02*
X172656381Y-102118438D01*
X172656381Y-102118438D02*
X172608762Y-102166057D01*
X172608762Y-102166057D02*
X172513524Y-102308914D01*
X172513524Y-102308914D02*
X172465905Y-102499390D01*
X172465905Y-102499390D02*
X172465905Y-102880342D01*
X172465905Y-102880342D02*
X172513524Y-102975580D01*
X172513524Y-102975580D02*
X172561143Y-103023200D01*
X172561143Y-103023200D02*
X172656381Y-103070819D01*
X172656381Y-103070819D02*
X172846857Y-103070819D01*
X172846857Y-103070819D02*
X172942095Y-103023200D01*
X172942095Y-103023200D02*
X172989714Y-102975580D01*
X172989714Y-102975580D02*
X173037333Y-102880342D01*
X173037333Y-102880342D02*
X173037333Y-102642247D01*
X173037333Y-102642247D02*
X172989714Y-102547009D01*
X172989714Y-102547009D02*
X172942095Y-102499390D01*
X172942095Y-102499390D02*
X172846857Y-102451771D01*
X172846857Y-102451771D02*
X172656381Y-102451771D01*
X172656381Y-102451771D02*
X172561143Y-102499390D01*
X172561143Y-102499390D02*
X172513524Y-102547009D01*
X172513524Y-102547009D02*
X172465905Y-102642247D01*
D10*
X113251019Y-65574687D02*
X112774828Y-65908020D01*
X113251019Y-66146115D02*
X112251019Y-66146115D01*
X112251019Y-66146115D02*
X112251019Y-65765163D01*
X112251019Y-65765163D02*
X112298638Y-65669925D01*
X112298638Y-65669925D02*
X112346257Y-65622306D01*
X112346257Y-65622306D02*
X112441495Y-65574687D01*
X112441495Y-65574687D02*
X112584352Y-65574687D01*
X112584352Y-65574687D02*
X112679590Y-65622306D01*
X112679590Y-65622306D02*
X112727209Y-65669925D01*
X112727209Y-65669925D02*
X112774828Y-65765163D01*
X112774828Y-65765163D02*
X112774828Y-66146115D01*
X113203400Y-65193734D02*
X113251019Y-65050877D01*
X113251019Y-65050877D02*
X113251019Y-64812782D01*
X113251019Y-64812782D02*
X113203400Y-64717544D01*
X113203400Y-64717544D02*
X113155780Y-64669925D01*
X113155780Y-64669925D02*
X113060542Y-64622306D01*
X113060542Y-64622306D02*
X112965304Y-64622306D01*
X112965304Y-64622306D02*
X112870066Y-64669925D01*
X112870066Y-64669925D02*
X112822447Y-64717544D01*
X112822447Y-64717544D02*
X112774828Y-64812782D01*
X112774828Y-64812782D02*
X112727209Y-65003258D01*
X112727209Y-65003258D02*
X112679590Y-65098496D01*
X112679590Y-65098496D02*
X112631971Y-65146115D01*
X112631971Y-65146115D02*
X112536733Y-65193734D01*
X112536733Y-65193734D02*
X112441495Y-65193734D01*
X112441495Y-65193734D02*
X112346257Y-65146115D01*
X112346257Y-65146115D02*
X112298638Y-65098496D01*
X112298638Y-65098496D02*
X112251019Y-65003258D01*
X112251019Y-65003258D02*
X112251019Y-64765163D01*
X112251019Y-64765163D02*
X112298638Y-64622306D01*
X112251019Y-64336591D02*
X112251019Y-63765163D01*
X113251019Y-64050877D02*
X112251019Y-64050877D01*
X115655780Y-65574687D02*
X115703400Y-65622306D01*
X115703400Y-65622306D02*
X115751019Y-65765163D01*
X115751019Y-65765163D02*
X115751019Y-65860401D01*
X115751019Y-65860401D02*
X115703400Y-66003258D01*
X115703400Y-66003258D02*
X115608161Y-66098496D01*
X115608161Y-66098496D02*
X115512923Y-66146115D01*
X115512923Y-66146115D02*
X115322447Y-66193734D01*
X115322447Y-66193734D02*
X115179590Y-66193734D01*
X115179590Y-66193734D02*
X114989114Y-66146115D01*
X114989114Y-66146115D02*
X114893876Y-66098496D01*
X114893876Y-66098496D02*
X114798638Y-66003258D01*
X114798638Y-66003258D02*
X114751019Y-65860401D01*
X114751019Y-65860401D02*
X114751019Y-65765163D01*
X114751019Y-65765163D02*
X114798638Y-65622306D01*
X114798638Y-65622306D02*
X114846257Y-65574687D01*
X115703400Y-65193734D02*
X115751019Y-65050877D01*
X115751019Y-65050877D02*
X115751019Y-64812782D01*
X115751019Y-64812782D02*
X115703400Y-64717544D01*
X115703400Y-64717544D02*
X115655780Y-64669925D01*
X115655780Y-64669925D02*
X115560542Y-64622306D01*
X115560542Y-64622306D02*
X115465304Y-64622306D01*
X115465304Y-64622306D02*
X115370066Y-64669925D01*
X115370066Y-64669925D02*
X115322447Y-64717544D01*
X115322447Y-64717544D02*
X115274828Y-64812782D01*
X115274828Y-64812782D02*
X115227209Y-65003258D01*
X115227209Y-65003258D02*
X115179590Y-65098496D01*
X115179590Y-65098496D02*
X115131971Y-65146115D01*
X115131971Y-65146115D02*
X115036733Y-65193734D01*
X115036733Y-65193734D02*
X114941495Y-65193734D01*
X114941495Y-65193734D02*
X114846257Y-65146115D01*
X114846257Y-65146115D02*
X114798638Y-65098496D01*
X114798638Y-65098496D02*
X114751019Y-65003258D01*
X114751019Y-65003258D02*
X114751019Y-64765163D01*
X114751019Y-64765163D02*
X114798638Y-64622306D01*
X118751019Y-66146115D02*
X117751019Y-66146115D01*
X117751019Y-66146115D02*
X117751019Y-65908020D01*
X117751019Y-65908020D02*
X117798638Y-65765163D01*
X117798638Y-65765163D02*
X117893876Y-65669925D01*
X117893876Y-65669925D02*
X117989114Y-65622306D01*
X117989114Y-65622306D02*
X118179590Y-65574687D01*
X118179590Y-65574687D02*
X118322447Y-65574687D01*
X118322447Y-65574687D02*
X118512923Y-65622306D01*
X118512923Y-65622306D02*
X118608161Y-65669925D01*
X118608161Y-65669925D02*
X118703400Y-65765163D01*
X118703400Y-65765163D02*
X118751019Y-65908020D01*
X118751019Y-65908020D02*
X118751019Y-66146115D01*
X118655780Y-64574687D02*
X118703400Y-64622306D01*
X118703400Y-64622306D02*
X118751019Y-64765163D01*
X118751019Y-64765163D02*
X118751019Y-64860401D01*
X118751019Y-64860401D02*
X118703400Y-65003258D01*
X118703400Y-65003258D02*
X118608161Y-65098496D01*
X118608161Y-65098496D02*
X118512923Y-65146115D01*
X118512923Y-65146115D02*
X118322447Y-65193734D01*
X118322447Y-65193734D02*
X118179590Y-65193734D01*
X118179590Y-65193734D02*
X117989114Y-65146115D01*
X117989114Y-65146115D02*
X117893876Y-65098496D01*
X117893876Y-65098496D02*
X117798638Y-65003258D01*
X117798638Y-65003258D02*
X117751019Y-64860401D01*
X117751019Y-64860401D02*
X117751019Y-64765163D01*
X117751019Y-64765163D02*
X117798638Y-64622306D01*
X117798638Y-64622306D02*
X117846257Y-64574687D01*
X121203400Y-66193734D02*
X121251019Y-66050877D01*
X121251019Y-66050877D02*
X121251019Y-65812782D01*
X121251019Y-65812782D02*
X121203400Y-65717544D01*
X121203400Y-65717544D02*
X121155780Y-65669925D01*
X121155780Y-65669925D02*
X121060542Y-65622306D01*
X121060542Y-65622306D02*
X120965304Y-65622306D01*
X120965304Y-65622306D02*
X120870066Y-65669925D01*
X120870066Y-65669925D02*
X120822447Y-65717544D01*
X120822447Y-65717544D02*
X120774828Y-65812782D01*
X120774828Y-65812782D02*
X120727209Y-66003258D01*
X120727209Y-66003258D02*
X120679590Y-66098496D01*
X120679590Y-66098496D02*
X120631971Y-66146115D01*
X120631971Y-66146115D02*
X120536733Y-66193734D01*
X120536733Y-66193734D02*
X120441495Y-66193734D01*
X120441495Y-66193734D02*
X120346257Y-66146115D01*
X120346257Y-66146115D02*
X120298638Y-66098496D01*
X120298638Y-66098496D02*
X120251019Y-66003258D01*
X120251019Y-66003258D02*
X120251019Y-65765163D01*
X120251019Y-65765163D02*
X120298638Y-65622306D01*
X121251019Y-65193734D02*
X120251019Y-65193734D01*
X120251019Y-65193734D02*
X120251019Y-64955639D01*
X120251019Y-64955639D02*
X120298638Y-64812782D01*
X120298638Y-64812782D02*
X120393876Y-64717544D01*
X120393876Y-64717544D02*
X120489114Y-64669925D01*
X120489114Y-64669925D02*
X120679590Y-64622306D01*
X120679590Y-64622306D02*
X120822447Y-64622306D01*
X120822447Y-64622306D02*
X121012923Y-64669925D01*
X121012923Y-64669925D02*
X121108161Y-64717544D01*
X121108161Y-64717544D02*
X121203400Y-64812782D01*
X121203400Y-64812782D02*
X121251019Y-64955639D01*
X121251019Y-64955639D02*
X121251019Y-65193734D01*
X120965304Y-64241353D02*
X120965304Y-63765163D01*
X121251019Y-64336591D02*
X120251019Y-64003258D01*
X120251019Y-64003258D02*
X121251019Y-63669925D01*
X124203400Y-66193734D02*
X124251019Y-66050877D01*
X124251019Y-66050877D02*
X124251019Y-65812782D01*
X124251019Y-65812782D02*
X124203400Y-65717544D01*
X124203400Y-65717544D02*
X124155780Y-65669925D01*
X124155780Y-65669925D02*
X124060542Y-65622306D01*
X124060542Y-65622306D02*
X123965304Y-65622306D01*
X123965304Y-65622306D02*
X123870066Y-65669925D01*
X123870066Y-65669925D02*
X123822447Y-65717544D01*
X123822447Y-65717544D02*
X123774828Y-65812782D01*
X123774828Y-65812782D02*
X123727209Y-66003258D01*
X123727209Y-66003258D02*
X123679590Y-66098496D01*
X123679590Y-66098496D02*
X123631971Y-66146115D01*
X123631971Y-66146115D02*
X123536733Y-66193734D01*
X123536733Y-66193734D02*
X123441495Y-66193734D01*
X123441495Y-66193734D02*
X123346257Y-66146115D01*
X123346257Y-66146115D02*
X123298638Y-66098496D01*
X123298638Y-66098496D02*
X123251019Y-66003258D01*
X123251019Y-66003258D02*
X123251019Y-65765163D01*
X123251019Y-65765163D02*
X123298638Y-65622306D01*
X124155780Y-64622306D02*
X124203400Y-64669925D01*
X124203400Y-64669925D02*
X124251019Y-64812782D01*
X124251019Y-64812782D02*
X124251019Y-64908020D01*
X124251019Y-64908020D02*
X124203400Y-65050877D01*
X124203400Y-65050877D02*
X124108161Y-65146115D01*
X124108161Y-65146115D02*
X124012923Y-65193734D01*
X124012923Y-65193734D02*
X123822447Y-65241353D01*
X123822447Y-65241353D02*
X123679590Y-65241353D01*
X123679590Y-65241353D02*
X123489114Y-65193734D01*
X123489114Y-65193734D02*
X123393876Y-65146115D01*
X123393876Y-65146115D02*
X123298638Y-65050877D01*
X123298638Y-65050877D02*
X123251019Y-64908020D01*
X123251019Y-64908020D02*
X123251019Y-64812782D01*
X123251019Y-64812782D02*
X123298638Y-64669925D01*
X123298638Y-64669925D02*
X123346257Y-64622306D01*
X124251019Y-63717544D02*
X124251019Y-64193734D01*
X124251019Y-64193734D02*
X123251019Y-64193734D01*
X125798638Y-65622306D02*
X125751019Y-65717544D01*
X125751019Y-65717544D02*
X125751019Y-65860401D01*
X125751019Y-65860401D02*
X125798638Y-66003258D01*
X125798638Y-66003258D02*
X125893876Y-66098496D01*
X125893876Y-66098496D02*
X125989114Y-66146115D01*
X125989114Y-66146115D02*
X126179590Y-66193734D01*
X126179590Y-66193734D02*
X126322447Y-66193734D01*
X126322447Y-66193734D02*
X126512923Y-66146115D01*
X126512923Y-66146115D02*
X126608161Y-66098496D01*
X126608161Y-66098496D02*
X126703400Y-66003258D01*
X126703400Y-66003258D02*
X126751019Y-65860401D01*
X126751019Y-65860401D02*
X126751019Y-65765163D01*
X126751019Y-65765163D02*
X126703400Y-65622306D01*
X126703400Y-65622306D02*
X126655780Y-65574687D01*
X126655780Y-65574687D02*
X126322447Y-65574687D01*
X126322447Y-65574687D02*
X126322447Y-65765163D01*
X126751019Y-65146115D02*
X125751019Y-65146115D01*
X125751019Y-65146115D02*
X126751019Y-64574687D01*
X126751019Y-64574687D02*
X125751019Y-64574687D01*
X126751019Y-64098496D02*
X125751019Y-64098496D01*
X125751019Y-64098496D02*
X125751019Y-63860401D01*
X125751019Y-63860401D02*
X125798638Y-63717544D01*
X125798638Y-63717544D02*
X125893876Y-63622306D01*
X125893876Y-63622306D02*
X125989114Y-63574687D01*
X125989114Y-63574687D02*
X126179590Y-63527068D01*
X126179590Y-63527068D02*
X126322447Y-63527068D01*
X126322447Y-63527068D02*
X126512923Y-63574687D01*
X126512923Y-63574687D02*
X126608161Y-63622306D01*
X126608161Y-63622306D02*
X126703400Y-63717544D01*
X126703400Y-63717544D02*
X126751019Y-63860401D01*
X126751019Y-63860401D02*
X126751019Y-64098496D01*
X128751019Y-66288972D02*
X129751019Y-65955639D01*
X129751019Y-65955639D02*
X128751019Y-65622306D01*
X129655780Y-64717544D02*
X129703400Y-64765163D01*
X129703400Y-64765163D02*
X129751019Y-64908020D01*
X129751019Y-64908020D02*
X129751019Y-65003258D01*
X129751019Y-65003258D02*
X129703400Y-65146115D01*
X129703400Y-65146115D02*
X129608161Y-65241353D01*
X129608161Y-65241353D02*
X129512923Y-65288972D01*
X129512923Y-65288972D02*
X129322447Y-65336591D01*
X129322447Y-65336591D02*
X129179590Y-65336591D01*
X129179590Y-65336591D02*
X128989114Y-65288972D01*
X128989114Y-65288972D02*
X128893876Y-65241353D01*
X128893876Y-65241353D02*
X128798638Y-65146115D01*
X128798638Y-65146115D02*
X128751019Y-65003258D01*
X128751019Y-65003258D02*
X128751019Y-64908020D01*
X128751019Y-64908020D02*
X128798638Y-64765163D01*
X128798638Y-64765163D02*
X128846257Y-64717544D01*
X129655780Y-63717544D02*
X129703400Y-63765163D01*
X129703400Y-63765163D02*
X129751019Y-63908020D01*
X129751019Y-63908020D02*
X129751019Y-64003258D01*
X129751019Y-64003258D02*
X129703400Y-64146115D01*
X129703400Y-64146115D02*
X129608161Y-64241353D01*
X129608161Y-64241353D02*
X129512923Y-64288972D01*
X129512923Y-64288972D02*
X129322447Y-64336591D01*
X129322447Y-64336591D02*
X129179590Y-64336591D01*
X129179590Y-64336591D02*
X128989114Y-64288972D01*
X128989114Y-64288972D02*
X128893876Y-64241353D01*
X128893876Y-64241353D02*
X128798638Y-64146115D01*
X128798638Y-64146115D02*
X128751019Y-64003258D01*
X128751019Y-64003258D02*
X128751019Y-63908020D01*
X128751019Y-63908020D02*
X128798638Y-63765163D01*
X128798638Y-63765163D02*
X128846257Y-63717544D01*
D12*
X78658000Y-70786355D02*
X78634572Y-70809784D01*
X78634572Y-70809784D02*
X78564286Y-70833212D01*
X78564286Y-70833212D02*
X78517429Y-70833212D01*
X78517429Y-70833212D02*
X78447143Y-70809784D01*
X78447143Y-70809784D02*
X78400286Y-70762926D01*
X78400286Y-70762926D02*
X78376857Y-70716069D01*
X78376857Y-70716069D02*
X78353429Y-70622355D01*
X78353429Y-70622355D02*
X78353429Y-70552069D01*
X78353429Y-70552069D02*
X78376857Y-70458355D01*
X78376857Y-70458355D02*
X78400286Y-70411498D01*
X78400286Y-70411498D02*
X78447143Y-70364641D01*
X78447143Y-70364641D02*
X78517429Y-70341212D01*
X78517429Y-70341212D02*
X78564286Y-70341212D01*
X78564286Y-70341212D02*
X78634572Y-70364641D01*
X78634572Y-70364641D02*
X78658000Y-70388069D01*
X78822000Y-70341212D02*
X79126572Y-70341212D01*
X79126572Y-70341212D02*
X78962572Y-70528641D01*
X78962572Y-70528641D02*
X79032857Y-70528641D01*
X79032857Y-70528641D02*
X79079715Y-70552069D01*
X79079715Y-70552069D02*
X79103143Y-70575498D01*
X79103143Y-70575498D02*
X79126572Y-70622355D01*
X79126572Y-70622355D02*
X79126572Y-70739498D01*
X79126572Y-70739498D02*
X79103143Y-70786355D01*
X79103143Y-70786355D02*
X79079715Y-70809784D01*
X79079715Y-70809784D02*
X79032857Y-70833212D01*
X79032857Y-70833212D02*
X78892286Y-70833212D01*
X78892286Y-70833212D02*
X78845429Y-70809784D01*
X78845429Y-70809784D02*
X78822000Y-70786355D01*
D11*
X120666333Y-129391819D02*
X120333000Y-128915628D01*
X120094905Y-129391819D02*
X120094905Y-128391819D01*
X120094905Y-128391819D02*
X120475857Y-128391819D01*
X120475857Y-128391819D02*
X120571095Y-128439438D01*
X120571095Y-128439438D02*
X120618714Y-128487057D01*
X120618714Y-128487057D02*
X120666333Y-128582295D01*
X120666333Y-128582295D02*
X120666333Y-128725152D01*
X120666333Y-128725152D02*
X120618714Y-128820390D01*
X120618714Y-128820390D02*
X120571095Y-128868009D01*
X120571095Y-128868009D02*
X120475857Y-128915628D01*
X120475857Y-128915628D02*
X120094905Y-128915628D01*
X120999667Y-128391819D02*
X121618714Y-128391819D01*
X121618714Y-128391819D02*
X121285381Y-128772771D01*
X121285381Y-128772771D02*
X121428238Y-128772771D01*
X121428238Y-128772771D02*
X121523476Y-128820390D01*
X121523476Y-128820390D02*
X121571095Y-128868009D01*
X121571095Y-128868009D02*
X121618714Y-128963247D01*
X121618714Y-128963247D02*
X121618714Y-129201342D01*
X121618714Y-129201342D02*
X121571095Y-129296580D01*
X121571095Y-129296580D02*
X121523476Y-129344200D01*
X121523476Y-129344200D02*
X121428238Y-129391819D01*
X121428238Y-129391819D02*
X121142524Y-129391819D01*
X121142524Y-129391819D02*
X121047286Y-129344200D01*
X121047286Y-129344200D02*
X120999667Y-129296580D01*
X110323333Y-84433580D02*
X110275714Y-84481200D01*
X110275714Y-84481200D02*
X110132857Y-84528819D01*
X110132857Y-84528819D02*
X110037619Y-84528819D01*
X110037619Y-84528819D02*
X109894762Y-84481200D01*
X109894762Y-84481200D02*
X109799524Y-84385961D01*
X109799524Y-84385961D02*
X109751905Y-84290723D01*
X109751905Y-84290723D02*
X109704286Y-84100247D01*
X109704286Y-84100247D02*
X109704286Y-83957390D01*
X109704286Y-83957390D02*
X109751905Y-83766914D01*
X109751905Y-83766914D02*
X109799524Y-83671676D01*
X109799524Y-83671676D02*
X109894762Y-83576438D01*
X109894762Y-83576438D02*
X110037619Y-83528819D01*
X110037619Y-83528819D02*
X110132857Y-83528819D01*
X110132857Y-83528819D02*
X110275714Y-83576438D01*
X110275714Y-83576438D02*
X110323333Y-83624057D01*
X110656667Y-83528819D02*
X111323333Y-83528819D01*
X111323333Y-83528819D02*
X110894762Y-84528819D01*
D10*
X179331580Y-89365312D02*
X179807771Y-89031979D01*
X179331580Y-88793884D02*
X180331580Y-88793884D01*
X180331580Y-88793884D02*
X180331580Y-89174836D01*
X180331580Y-89174836D02*
X180283961Y-89270074D01*
X180283961Y-89270074D02*
X180236342Y-89317693D01*
X180236342Y-89317693D02*
X180141104Y-89365312D01*
X180141104Y-89365312D02*
X179998247Y-89365312D01*
X179998247Y-89365312D02*
X179903009Y-89317693D01*
X179903009Y-89317693D02*
X179855390Y-89270074D01*
X179855390Y-89270074D02*
X179807771Y-89174836D01*
X179807771Y-89174836D02*
X179807771Y-88793884D01*
X179379200Y-89746265D02*
X179331580Y-89889122D01*
X179331580Y-89889122D02*
X179331580Y-90127217D01*
X179331580Y-90127217D02*
X179379200Y-90222455D01*
X179379200Y-90222455D02*
X179426819Y-90270074D01*
X179426819Y-90270074D02*
X179522057Y-90317693D01*
X179522057Y-90317693D02*
X179617295Y-90317693D01*
X179617295Y-90317693D02*
X179712533Y-90270074D01*
X179712533Y-90270074D02*
X179760152Y-90222455D01*
X179760152Y-90222455D02*
X179807771Y-90127217D01*
X179807771Y-90127217D02*
X179855390Y-89936741D01*
X179855390Y-89936741D02*
X179903009Y-89841503D01*
X179903009Y-89841503D02*
X179950628Y-89793884D01*
X179950628Y-89793884D02*
X180045866Y-89746265D01*
X180045866Y-89746265D02*
X180141104Y-89746265D01*
X180141104Y-89746265D02*
X180236342Y-89793884D01*
X180236342Y-89793884D02*
X180283961Y-89841503D01*
X180283961Y-89841503D02*
X180331580Y-89936741D01*
X180331580Y-89936741D02*
X180331580Y-90174836D01*
X180331580Y-90174836D02*
X180283961Y-90317693D01*
X180331580Y-90603408D02*
X180331580Y-91174836D01*
X179331580Y-90889122D02*
X180331580Y-90889122D01*
X171379200Y-88746265D02*
X171331580Y-88889122D01*
X171331580Y-88889122D02*
X171331580Y-89127217D01*
X171331580Y-89127217D02*
X171379200Y-89222455D01*
X171379200Y-89222455D02*
X171426819Y-89270074D01*
X171426819Y-89270074D02*
X171522057Y-89317693D01*
X171522057Y-89317693D02*
X171617295Y-89317693D01*
X171617295Y-89317693D02*
X171712533Y-89270074D01*
X171712533Y-89270074D02*
X171760152Y-89222455D01*
X171760152Y-89222455D02*
X171807771Y-89127217D01*
X171807771Y-89127217D02*
X171855390Y-88936741D01*
X171855390Y-88936741D02*
X171903009Y-88841503D01*
X171903009Y-88841503D02*
X171950628Y-88793884D01*
X171950628Y-88793884D02*
X172045866Y-88746265D01*
X172045866Y-88746265D02*
X172141104Y-88746265D01*
X172141104Y-88746265D02*
X172236342Y-88793884D01*
X172236342Y-88793884D02*
X172283961Y-88841503D01*
X172283961Y-88841503D02*
X172331580Y-88936741D01*
X172331580Y-88936741D02*
X172331580Y-89174836D01*
X172331580Y-89174836D02*
X172283961Y-89317693D01*
X171331580Y-89746265D02*
X172331580Y-89746265D01*
X172331580Y-89746265D02*
X172331580Y-89984360D01*
X172331580Y-89984360D02*
X172283961Y-90127217D01*
X172283961Y-90127217D02*
X172188723Y-90222455D01*
X172188723Y-90222455D02*
X172093485Y-90270074D01*
X172093485Y-90270074D02*
X171903009Y-90317693D01*
X171903009Y-90317693D02*
X171760152Y-90317693D01*
X171760152Y-90317693D02*
X171569676Y-90270074D01*
X171569676Y-90270074D02*
X171474438Y-90222455D01*
X171474438Y-90222455D02*
X171379200Y-90127217D01*
X171379200Y-90127217D02*
X171331580Y-89984360D01*
X171331580Y-89984360D02*
X171331580Y-89746265D01*
X171617295Y-90698646D02*
X171617295Y-91174836D01*
X171331580Y-90603408D02*
X172331580Y-90936741D01*
X172331580Y-90936741D02*
X171331580Y-91270074D01*
X168379200Y-88746265D02*
X168331580Y-88889122D01*
X168331580Y-88889122D02*
X168331580Y-89127217D01*
X168331580Y-89127217D02*
X168379200Y-89222455D01*
X168379200Y-89222455D02*
X168426819Y-89270074D01*
X168426819Y-89270074D02*
X168522057Y-89317693D01*
X168522057Y-89317693D02*
X168617295Y-89317693D01*
X168617295Y-89317693D02*
X168712533Y-89270074D01*
X168712533Y-89270074D02*
X168760152Y-89222455D01*
X168760152Y-89222455D02*
X168807771Y-89127217D01*
X168807771Y-89127217D02*
X168855390Y-88936741D01*
X168855390Y-88936741D02*
X168903009Y-88841503D01*
X168903009Y-88841503D02*
X168950628Y-88793884D01*
X168950628Y-88793884D02*
X169045866Y-88746265D01*
X169045866Y-88746265D02*
X169141104Y-88746265D01*
X169141104Y-88746265D02*
X169236342Y-88793884D01*
X169236342Y-88793884D02*
X169283961Y-88841503D01*
X169283961Y-88841503D02*
X169331580Y-88936741D01*
X169331580Y-88936741D02*
X169331580Y-89174836D01*
X169331580Y-89174836D02*
X169283961Y-89317693D01*
X168426819Y-90317693D02*
X168379200Y-90270074D01*
X168379200Y-90270074D02*
X168331580Y-90127217D01*
X168331580Y-90127217D02*
X168331580Y-90031979D01*
X168331580Y-90031979D02*
X168379200Y-89889122D01*
X168379200Y-89889122D02*
X168474438Y-89793884D01*
X168474438Y-89793884D02*
X168569676Y-89746265D01*
X168569676Y-89746265D02*
X168760152Y-89698646D01*
X168760152Y-89698646D02*
X168903009Y-89698646D01*
X168903009Y-89698646D02*
X169093485Y-89746265D01*
X169093485Y-89746265D02*
X169188723Y-89793884D01*
X169188723Y-89793884D02*
X169283961Y-89889122D01*
X169283961Y-89889122D02*
X169331580Y-90031979D01*
X169331580Y-90031979D02*
X169331580Y-90127217D01*
X169331580Y-90127217D02*
X169283961Y-90270074D01*
X169283961Y-90270074D02*
X169236342Y-90317693D01*
X168331580Y-91222455D02*
X168331580Y-90746265D01*
X168331580Y-90746265D02*
X169331580Y-90746265D01*
X166783961Y-89317693D02*
X166831580Y-89222455D01*
X166831580Y-89222455D02*
X166831580Y-89079598D01*
X166831580Y-89079598D02*
X166783961Y-88936741D01*
X166783961Y-88936741D02*
X166688723Y-88841503D01*
X166688723Y-88841503D02*
X166593485Y-88793884D01*
X166593485Y-88793884D02*
X166403009Y-88746265D01*
X166403009Y-88746265D02*
X166260152Y-88746265D01*
X166260152Y-88746265D02*
X166069676Y-88793884D01*
X166069676Y-88793884D02*
X165974438Y-88841503D01*
X165974438Y-88841503D02*
X165879200Y-88936741D01*
X165879200Y-88936741D02*
X165831580Y-89079598D01*
X165831580Y-89079598D02*
X165831580Y-89174836D01*
X165831580Y-89174836D02*
X165879200Y-89317693D01*
X165879200Y-89317693D02*
X165926819Y-89365312D01*
X165926819Y-89365312D02*
X166260152Y-89365312D01*
X166260152Y-89365312D02*
X166260152Y-89174836D01*
X165831580Y-89793884D02*
X166831580Y-89793884D01*
X166831580Y-89793884D02*
X165831580Y-90365312D01*
X165831580Y-90365312D02*
X166831580Y-90365312D01*
X165831580Y-90841503D02*
X166831580Y-90841503D01*
X166831580Y-90841503D02*
X166831580Y-91079598D01*
X166831580Y-91079598D02*
X166783961Y-91222455D01*
X166783961Y-91222455D02*
X166688723Y-91317693D01*
X166688723Y-91317693D02*
X166593485Y-91365312D01*
X166593485Y-91365312D02*
X166403009Y-91412931D01*
X166403009Y-91412931D02*
X166260152Y-91412931D01*
X166260152Y-91412931D02*
X166069676Y-91365312D01*
X166069676Y-91365312D02*
X165974438Y-91317693D01*
X165974438Y-91317693D02*
X165879200Y-91222455D01*
X165879200Y-91222455D02*
X165831580Y-91079598D01*
X165831580Y-91079598D02*
X165831580Y-90841503D01*
X163831580Y-88651027D02*
X162831580Y-88984360D01*
X162831580Y-88984360D02*
X163831580Y-89317693D01*
X162926819Y-90222455D02*
X162879200Y-90174836D01*
X162879200Y-90174836D02*
X162831580Y-90031979D01*
X162831580Y-90031979D02*
X162831580Y-89936741D01*
X162831580Y-89936741D02*
X162879200Y-89793884D01*
X162879200Y-89793884D02*
X162974438Y-89698646D01*
X162974438Y-89698646D02*
X163069676Y-89651027D01*
X163069676Y-89651027D02*
X163260152Y-89603408D01*
X163260152Y-89603408D02*
X163403009Y-89603408D01*
X163403009Y-89603408D02*
X163593485Y-89651027D01*
X163593485Y-89651027D02*
X163688723Y-89698646D01*
X163688723Y-89698646D02*
X163783961Y-89793884D01*
X163783961Y-89793884D02*
X163831580Y-89936741D01*
X163831580Y-89936741D02*
X163831580Y-90031979D01*
X163831580Y-90031979D02*
X163783961Y-90174836D01*
X163783961Y-90174836D02*
X163736342Y-90222455D01*
X162926819Y-91222455D02*
X162879200Y-91174836D01*
X162879200Y-91174836D02*
X162831580Y-91031979D01*
X162831580Y-91031979D02*
X162831580Y-90936741D01*
X162831580Y-90936741D02*
X162879200Y-90793884D01*
X162879200Y-90793884D02*
X162974438Y-90698646D01*
X162974438Y-90698646D02*
X163069676Y-90651027D01*
X163069676Y-90651027D02*
X163260152Y-90603408D01*
X163260152Y-90603408D02*
X163403009Y-90603408D01*
X163403009Y-90603408D02*
X163593485Y-90651027D01*
X163593485Y-90651027D02*
X163688723Y-90698646D01*
X163688723Y-90698646D02*
X163783961Y-90793884D01*
X163783961Y-90793884D02*
X163831580Y-90936741D01*
X163831580Y-90936741D02*
X163831580Y-91031979D01*
X163831580Y-91031979D02*
X163783961Y-91174836D01*
X163783961Y-91174836D02*
X163736342Y-91222455D01*
D11*
X74763333Y-21282819D02*
X74430000Y-20806628D01*
X74191905Y-21282819D02*
X74191905Y-20282819D01*
X74191905Y-20282819D02*
X74572857Y-20282819D01*
X74572857Y-20282819D02*
X74668095Y-20330438D01*
X74668095Y-20330438D02*
X74715714Y-20378057D01*
X74715714Y-20378057D02*
X74763333Y-20473295D01*
X74763333Y-20473295D02*
X74763333Y-20616152D01*
X74763333Y-20616152D02*
X74715714Y-20711390D01*
X74715714Y-20711390D02*
X74668095Y-20759009D01*
X74668095Y-20759009D02*
X74572857Y-20806628D01*
X74572857Y-20806628D02*
X74191905Y-20806628D01*
X75096667Y-20282819D02*
X75763333Y-20282819D01*
X75763333Y-20282819D02*
X75334762Y-21282819D01*
X119545267Y-36983200D02*
X119688124Y-37030819D01*
X119688124Y-37030819D02*
X119926219Y-37030819D01*
X119926219Y-37030819D02*
X120021457Y-36983200D01*
X120021457Y-36983200D02*
X120069076Y-36935580D01*
X120069076Y-36935580D02*
X120116695Y-36840342D01*
X120116695Y-36840342D02*
X120116695Y-36745104D01*
X120116695Y-36745104D02*
X120069076Y-36649866D01*
X120069076Y-36649866D02*
X120021457Y-36602247D01*
X120021457Y-36602247D02*
X119926219Y-36554628D01*
X119926219Y-36554628D02*
X119735743Y-36507009D01*
X119735743Y-36507009D02*
X119640505Y-36459390D01*
X119640505Y-36459390D02*
X119592886Y-36411771D01*
X119592886Y-36411771D02*
X119545267Y-36316533D01*
X119545267Y-36316533D02*
X119545267Y-36221295D01*
X119545267Y-36221295D02*
X119592886Y-36126057D01*
X119592886Y-36126057D02*
X119640505Y-36078438D01*
X119640505Y-36078438D02*
X119735743Y-36030819D01*
X119735743Y-36030819D02*
X119973838Y-36030819D01*
X119973838Y-36030819D02*
X120116695Y-36078438D01*
X120450029Y-36030819D02*
X120688124Y-37030819D01*
X120688124Y-37030819D02*
X120878600Y-36316533D01*
X120878600Y-36316533D02*
X121069076Y-37030819D01*
X121069076Y-37030819D02*
X121307172Y-36030819D01*
X121830981Y-36459390D02*
X121735743Y-36411771D01*
X121735743Y-36411771D02*
X121688124Y-36364152D01*
X121688124Y-36364152D02*
X121640505Y-36268914D01*
X121640505Y-36268914D02*
X121640505Y-36221295D01*
X121640505Y-36221295D02*
X121688124Y-36126057D01*
X121688124Y-36126057D02*
X121735743Y-36078438D01*
X121735743Y-36078438D02*
X121830981Y-36030819D01*
X121830981Y-36030819D02*
X122021457Y-36030819D01*
X122021457Y-36030819D02*
X122116695Y-36078438D01*
X122116695Y-36078438D02*
X122164314Y-36126057D01*
X122164314Y-36126057D02*
X122211933Y-36221295D01*
X122211933Y-36221295D02*
X122211933Y-36268914D01*
X122211933Y-36268914D02*
X122164314Y-36364152D01*
X122164314Y-36364152D02*
X122116695Y-36411771D01*
X122116695Y-36411771D02*
X122021457Y-36459390D01*
X122021457Y-36459390D02*
X121830981Y-36459390D01*
X121830981Y-36459390D02*
X121735743Y-36507009D01*
X121735743Y-36507009D02*
X121688124Y-36554628D01*
X121688124Y-36554628D02*
X121640505Y-36649866D01*
X121640505Y-36649866D02*
X121640505Y-36840342D01*
X121640505Y-36840342D02*
X121688124Y-36935580D01*
X121688124Y-36935580D02*
X121735743Y-36983200D01*
X121735743Y-36983200D02*
X121830981Y-37030819D01*
X121830981Y-37030819D02*
X122021457Y-37030819D01*
X122021457Y-37030819D02*
X122116695Y-36983200D01*
X122116695Y-36983200D02*
X122164314Y-36935580D01*
X122164314Y-36935580D02*
X122211933Y-36840342D01*
X122211933Y-36840342D02*
X122211933Y-36649866D01*
X122211933Y-36649866D02*
X122164314Y-36554628D01*
X122164314Y-36554628D02*
X122116695Y-36507009D01*
X122116695Y-36507009D02*
X122021457Y-36459390D01*
D10*
X62397819Y-65380087D02*
X61921628Y-65713420D01*
X62397819Y-65951515D02*
X61397819Y-65951515D01*
X61397819Y-65951515D02*
X61397819Y-65570563D01*
X61397819Y-65570563D02*
X61445438Y-65475325D01*
X61445438Y-65475325D02*
X61493057Y-65427706D01*
X61493057Y-65427706D02*
X61588295Y-65380087D01*
X61588295Y-65380087D02*
X61731152Y-65380087D01*
X61731152Y-65380087D02*
X61826390Y-65427706D01*
X61826390Y-65427706D02*
X61874009Y-65475325D01*
X61874009Y-65475325D02*
X61921628Y-65570563D01*
X61921628Y-65570563D02*
X61921628Y-65951515D01*
X62350200Y-64999134D02*
X62397819Y-64856277D01*
X62397819Y-64856277D02*
X62397819Y-64618182D01*
X62397819Y-64618182D02*
X62350200Y-64522944D01*
X62350200Y-64522944D02*
X62302580Y-64475325D01*
X62302580Y-64475325D02*
X62207342Y-64427706D01*
X62207342Y-64427706D02*
X62112104Y-64427706D01*
X62112104Y-64427706D02*
X62016866Y-64475325D01*
X62016866Y-64475325D02*
X61969247Y-64522944D01*
X61969247Y-64522944D02*
X61921628Y-64618182D01*
X61921628Y-64618182D02*
X61874009Y-64808658D01*
X61874009Y-64808658D02*
X61826390Y-64903896D01*
X61826390Y-64903896D02*
X61778771Y-64951515D01*
X61778771Y-64951515D02*
X61683533Y-64999134D01*
X61683533Y-64999134D02*
X61588295Y-64999134D01*
X61588295Y-64999134D02*
X61493057Y-64951515D01*
X61493057Y-64951515D02*
X61445438Y-64903896D01*
X61445438Y-64903896D02*
X61397819Y-64808658D01*
X61397819Y-64808658D02*
X61397819Y-64570563D01*
X61397819Y-64570563D02*
X61445438Y-64427706D01*
X61397819Y-64141991D02*
X61397819Y-63570563D01*
X62397819Y-63856277D02*
X61397819Y-63856277D01*
X64802580Y-65380087D02*
X64850200Y-65427706D01*
X64850200Y-65427706D02*
X64897819Y-65570563D01*
X64897819Y-65570563D02*
X64897819Y-65665801D01*
X64897819Y-65665801D02*
X64850200Y-65808658D01*
X64850200Y-65808658D02*
X64754961Y-65903896D01*
X64754961Y-65903896D02*
X64659723Y-65951515D01*
X64659723Y-65951515D02*
X64469247Y-65999134D01*
X64469247Y-65999134D02*
X64326390Y-65999134D01*
X64326390Y-65999134D02*
X64135914Y-65951515D01*
X64135914Y-65951515D02*
X64040676Y-65903896D01*
X64040676Y-65903896D02*
X63945438Y-65808658D01*
X63945438Y-65808658D02*
X63897819Y-65665801D01*
X63897819Y-65665801D02*
X63897819Y-65570563D01*
X63897819Y-65570563D02*
X63945438Y-65427706D01*
X63945438Y-65427706D02*
X63993057Y-65380087D01*
X64850200Y-64999134D02*
X64897819Y-64856277D01*
X64897819Y-64856277D02*
X64897819Y-64618182D01*
X64897819Y-64618182D02*
X64850200Y-64522944D01*
X64850200Y-64522944D02*
X64802580Y-64475325D01*
X64802580Y-64475325D02*
X64707342Y-64427706D01*
X64707342Y-64427706D02*
X64612104Y-64427706D01*
X64612104Y-64427706D02*
X64516866Y-64475325D01*
X64516866Y-64475325D02*
X64469247Y-64522944D01*
X64469247Y-64522944D02*
X64421628Y-64618182D01*
X64421628Y-64618182D02*
X64374009Y-64808658D01*
X64374009Y-64808658D02*
X64326390Y-64903896D01*
X64326390Y-64903896D02*
X64278771Y-64951515D01*
X64278771Y-64951515D02*
X64183533Y-64999134D01*
X64183533Y-64999134D02*
X64088295Y-64999134D01*
X64088295Y-64999134D02*
X63993057Y-64951515D01*
X63993057Y-64951515D02*
X63945438Y-64903896D01*
X63945438Y-64903896D02*
X63897819Y-64808658D01*
X63897819Y-64808658D02*
X63897819Y-64570563D01*
X63897819Y-64570563D02*
X63945438Y-64427706D01*
X67897819Y-65951515D02*
X66897819Y-65951515D01*
X66897819Y-65951515D02*
X66897819Y-65713420D01*
X66897819Y-65713420D02*
X66945438Y-65570563D01*
X66945438Y-65570563D02*
X67040676Y-65475325D01*
X67040676Y-65475325D02*
X67135914Y-65427706D01*
X67135914Y-65427706D02*
X67326390Y-65380087D01*
X67326390Y-65380087D02*
X67469247Y-65380087D01*
X67469247Y-65380087D02*
X67659723Y-65427706D01*
X67659723Y-65427706D02*
X67754961Y-65475325D01*
X67754961Y-65475325D02*
X67850200Y-65570563D01*
X67850200Y-65570563D02*
X67897819Y-65713420D01*
X67897819Y-65713420D02*
X67897819Y-65951515D01*
X67802580Y-64380087D02*
X67850200Y-64427706D01*
X67850200Y-64427706D02*
X67897819Y-64570563D01*
X67897819Y-64570563D02*
X67897819Y-64665801D01*
X67897819Y-64665801D02*
X67850200Y-64808658D01*
X67850200Y-64808658D02*
X67754961Y-64903896D01*
X67754961Y-64903896D02*
X67659723Y-64951515D01*
X67659723Y-64951515D02*
X67469247Y-64999134D01*
X67469247Y-64999134D02*
X67326390Y-64999134D01*
X67326390Y-64999134D02*
X67135914Y-64951515D01*
X67135914Y-64951515D02*
X67040676Y-64903896D01*
X67040676Y-64903896D02*
X66945438Y-64808658D01*
X66945438Y-64808658D02*
X66897819Y-64665801D01*
X66897819Y-64665801D02*
X66897819Y-64570563D01*
X66897819Y-64570563D02*
X66945438Y-64427706D01*
X66945438Y-64427706D02*
X66993057Y-64380087D01*
X70350200Y-65999134D02*
X70397819Y-65856277D01*
X70397819Y-65856277D02*
X70397819Y-65618182D01*
X70397819Y-65618182D02*
X70350200Y-65522944D01*
X70350200Y-65522944D02*
X70302580Y-65475325D01*
X70302580Y-65475325D02*
X70207342Y-65427706D01*
X70207342Y-65427706D02*
X70112104Y-65427706D01*
X70112104Y-65427706D02*
X70016866Y-65475325D01*
X70016866Y-65475325D02*
X69969247Y-65522944D01*
X69969247Y-65522944D02*
X69921628Y-65618182D01*
X69921628Y-65618182D02*
X69874009Y-65808658D01*
X69874009Y-65808658D02*
X69826390Y-65903896D01*
X69826390Y-65903896D02*
X69778771Y-65951515D01*
X69778771Y-65951515D02*
X69683533Y-65999134D01*
X69683533Y-65999134D02*
X69588295Y-65999134D01*
X69588295Y-65999134D02*
X69493057Y-65951515D01*
X69493057Y-65951515D02*
X69445438Y-65903896D01*
X69445438Y-65903896D02*
X69397819Y-65808658D01*
X69397819Y-65808658D02*
X69397819Y-65570563D01*
X69397819Y-65570563D02*
X69445438Y-65427706D01*
X70397819Y-64999134D02*
X69397819Y-64999134D01*
X69397819Y-64999134D02*
X69397819Y-64761039D01*
X69397819Y-64761039D02*
X69445438Y-64618182D01*
X69445438Y-64618182D02*
X69540676Y-64522944D01*
X69540676Y-64522944D02*
X69635914Y-64475325D01*
X69635914Y-64475325D02*
X69826390Y-64427706D01*
X69826390Y-64427706D02*
X69969247Y-64427706D01*
X69969247Y-64427706D02*
X70159723Y-64475325D01*
X70159723Y-64475325D02*
X70254961Y-64522944D01*
X70254961Y-64522944D02*
X70350200Y-64618182D01*
X70350200Y-64618182D02*
X70397819Y-64761039D01*
X70397819Y-64761039D02*
X70397819Y-64999134D01*
X70112104Y-64046753D02*
X70112104Y-63570563D01*
X70397819Y-64141991D02*
X69397819Y-63808658D01*
X69397819Y-63808658D02*
X70397819Y-63475325D01*
X73350200Y-65999134D02*
X73397819Y-65856277D01*
X73397819Y-65856277D02*
X73397819Y-65618182D01*
X73397819Y-65618182D02*
X73350200Y-65522944D01*
X73350200Y-65522944D02*
X73302580Y-65475325D01*
X73302580Y-65475325D02*
X73207342Y-65427706D01*
X73207342Y-65427706D02*
X73112104Y-65427706D01*
X73112104Y-65427706D02*
X73016866Y-65475325D01*
X73016866Y-65475325D02*
X72969247Y-65522944D01*
X72969247Y-65522944D02*
X72921628Y-65618182D01*
X72921628Y-65618182D02*
X72874009Y-65808658D01*
X72874009Y-65808658D02*
X72826390Y-65903896D01*
X72826390Y-65903896D02*
X72778771Y-65951515D01*
X72778771Y-65951515D02*
X72683533Y-65999134D01*
X72683533Y-65999134D02*
X72588295Y-65999134D01*
X72588295Y-65999134D02*
X72493057Y-65951515D01*
X72493057Y-65951515D02*
X72445438Y-65903896D01*
X72445438Y-65903896D02*
X72397819Y-65808658D01*
X72397819Y-65808658D02*
X72397819Y-65570563D01*
X72397819Y-65570563D02*
X72445438Y-65427706D01*
X73302580Y-64427706D02*
X73350200Y-64475325D01*
X73350200Y-64475325D02*
X73397819Y-64618182D01*
X73397819Y-64618182D02*
X73397819Y-64713420D01*
X73397819Y-64713420D02*
X73350200Y-64856277D01*
X73350200Y-64856277D02*
X73254961Y-64951515D01*
X73254961Y-64951515D02*
X73159723Y-64999134D01*
X73159723Y-64999134D02*
X72969247Y-65046753D01*
X72969247Y-65046753D02*
X72826390Y-65046753D01*
X72826390Y-65046753D02*
X72635914Y-64999134D01*
X72635914Y-64999134D02*
X72540676Y-64951515D01*
X72540676Y-64951515D02*
X72445438Y-64856277D01*
X72445438Y-64856277D02*
X72397819Y-64713420D01*
X72397819Y-64713420D02*
X72397819Y-64618182D01*
X72397819Y-64618182D02*
X72445438Y-64475325D01*
X72445438Y-64475325D02*
X72493057Y-64427706D01*
X73397819Y-63522944D02*
X73397819Y-63999134D01*
X73397819Y-63999134D02*
X72397819Y-63999134D01*
X74945438Y-65427706D02*
X74897819Y-65522944D01*
X74897819Y-65522944D02*
X74897819Y-65665801D01*
X74897819Y-65665801D02*
X74945438Y-65808658D01*
X74945438Y-65808658D02*
X75040676Y-65903896D01*
X75040676Y-65903896D02*
X75135914Y-65951515D01*
X75135914Y-65951515D02*
X75326390Y-65999134D01*
X75326390Y-65999134D02*
X75469247Y-65999134D01*
X75469247Y-65999134D02*
X75659723Y-65951515D01*
X75659723Y-65951515D02*
X75754961Y-65903896D01*
X75754961Y-65903896D02*
X75850200Y-65808658D01*
X75850200Y-65808658D02*
X75897819Y-65665801D01*
X75897819Y-65665801D02*
X75897819Y-65570563D01*
X75897819Y-65570563D02*
X75850200Y-65427706D01*
X75850200Y-65427706D02*
X75802580Y-65380087D01*
X75802580Y-65380087D02*
X75469247Y-65380087D01*
X75469247Y-65380087D02*
X75469247Y-65570563D01*
X75897819Y-64951515D02*
X74897819Y-64951515D01*
X74897819Y-64951515D02*
X75897819Y-64380087D01*
X75897819Y-64380087D02*
X74897819Y-64380087D01*
X75897819Y-63903896D02*
X74897819Y-63903896D01*
X74897819Y-63903896D02*
X74897819Y-63665801D01*
X74897819Y-63665801D02*
X74945438Y-63522944D01*
X74945438Y-63522944D02*
X75040676Y-63427706D01*
X75040676Y-63427706D02*
X75135914Y-63380087D01*
X75135914Y-63380087D02*
X75326390Y-63332468D01*
X75326390Y-63332468D02*
X75469247Y-63332468D01*
X75469247Y-63332468D02*
X75659723Y-63380087D01*
X75659723Y-63380087D02*
X75754961Y-63427706D01*
X75754961Y-63427706D02*
X75850200Y-63522944D01*
X75850200Y-63522944D02*
X75897819Y-63665801D01*
X75897819Y-63665801D02*
X75897819Y-63903896D01*
X77897819Y-66094372D02*
X78897819Y-65761039D01*
X78897819Y-65761039D02*
X77897819Y-65427706D01*
X78802580Y-64522944D02*
X78850200Y-64570563D01*
X78850200Y-64570563D02*
X78897819Y-64713420D01*
X78897819Y-64713420D02*
X78897819Y-64808658D01*
X78897819Y-64808658D02*
X78850200Y-64951515D01*
X78850200Y-64951515D02*
X78754961Y-65046753D01*
X78754961Y-65046753D02*
X78659723Y-65094372D01*
X78659723Y-65094372D02*
X78469247Y-65141991D01*
X78469247Y-65141991D02*
X78326390Y-65141991D01*
X78326390Y-65141991D02*
X78135914Y-65094372D01*
X78135914Y-65094372D02*
X78040676Y-65046753D01*
X78040676Y-65046753D02*
X77945438Y-64951515D01*
X77945438Y-64951515D02*
X77897819Y-64808658D01*
X77897819Y-64808658D02*
X77897819Y-64713420D01*
X77897819Y-64713420D02*
X77945438Y-64570563D01*
X77945438Y-64570563D02*
X77993057Y-64522944D01*
X78802580Y-63522944D02*
X78850200Y-63570563D01*
X78850200Y-63570563D02*
X78897819Y-63713420D01*
X78897819Y-63713420D02*
X78897819Y-63808658D01*
X78897819Y-63808658D02*
X78850200Y-63951515D01*
X78850200Y-63951515D02*
X78754961Y-64046753D01*
X78754961Y-64046753D02*
X78659723Y-64094372D01*
X78659723Y-64094372D02*
X78469247Y-64141991D01*
X78469247Y-64141991D02*
X78326390Y-64141991D01*
X78326390Y-64141991D02*
X78135914Y-64094372D01*
X78135914Y-64094372D02*
X78040676Y-64046753D01*
X78040676Y-64046753D02*
X77945438Y-63951515D01*
X77945438Y-63951515D02*
X77897819Y-63808658D01*
X77897819Y-63808658D02*
X77897819Y-63713420D01*
X77897819Y-63713420D02*
X77945438Y-63570563D01*
X77945438Y-63570563D02*
X77993057Y-63522944D01*
D11*
X171537333Y-21282819D02*
X171204000Y-20806628D01*
X170965905Y-21282819D02*
X170965905Y-20282819D01*
X170965905Y-20282819D02*
X171346857Y-20282819D01*
X171346857Y-20282819D02*
X171442095Y-20330438D01*
X171442095Y-20330438D02*
X171489714Y-20378057D01*
X171489714Y-20378057D02*
X171537333Y-20473295D01*
X171537333Y-20473295D02*
X171537333Y-20616152D01*
X171537333Y-20616152D02*
X171489714Y-20711390D01*
X171489714Y-20711390D02*
X171442095Y-20759009D01*
X171442095Y-20759009D02*
X171346857Y-20806628D01*
X171346857Y-20806628D02*
X170965905Y-20806628D01*
X172442095Y-20282819D02*
X171965905Y-20282819D01*
X171965905Y-20282819D02*
X171918286Y-20759009D01*
X171918286Y-20759009D02*
X171965905Y-20711390D01*
X171965905Y-20711390D02*
X172061143Y-20663771D01*
X172061143Y-20663771D02*
X172299238Y-20663771D01*
X172299238Y-20663771D02*
X172394476Y-20711390D01*
X172394476Y-20711390D02*
X172442095Y-20759009D01*
X172442095Y-20759009D02*
X172489714Y-20854247D01*
X172489714Y-20854247D02*
X172489714Y-21092342D01*
X172489714Y-21092342D02*
X172442095Y-21187580D01*
X172442095Y-21187580D02*
X172394476Y-21235200D01*
X172394476Y-21235200D02*
X172299238Y-21282819D01*
X172299238Y-21282819D02*
X172061143Y-21282819D01*
X172061143Y-21282819D02*
X171965905Y-21235200D01*
X171965905Y-21235200D02*
X171918286Y-21187580D01*
D10*
X179576419Y-66288972D02*
X180576419Y-65955639D01*
X180576419Y-65955639D02*
X179576419Y-65622306D01*
X180481180Y-64717544D02*
X180528800Y-64765163D01*
X180528800Y-64765163D02*
X180576419Y-64908020D01*
X180576419Y-64908020D02*
X180576419Y-65003258D01*
X180576419Y-65003258D02*
X180528800Y-65146115D01*
X180528800Y-65146115D02*
X180433561Y-65241353D01*
X180433561Y-65241353D02*
X180338323Y-65288972D01*
X180338323Y-65288972D02*
X180147847Y-65336591D01*
X180147847Y-65336591D02*
X180004990Y-65336591D01*
X180004990Y-65336591D02*
X179814514Y-65288972D01*
X179814514Y-65288972D02*
X179719276Y-65241353D01*
X179719276Y-65241353D02*
X179624038Y-65146115D01*
X179624038Y-65146115D02*
X179576419Y-65003258D01*
X179576419Y-65003258D02*
X179576419Y-64908020D01*
X179576419Y-64908020D02*
X179624038Y-64765163D01*
X179624038Y-64765163D02*
X179671657Y-64717544D01*
X180481180Y-63717544D02*
X180528800Y-63765163D01*
X180528800Y-63765163D02*
X180576419Y-63908020D01*
X180576419Y-63908020D02*
X180576419Y-64003258D01*
X180576419Y-64003258D02*
X180528800Y-64146115D01*
X180528800Y-64146115D02*
X180433561Y-64241353D01*
X180433561Y-64241353D02*
X180338323Y-64288972D01*
X180338323Y-64288972D02*
X180147847Y-64336591D01*
X180147847Y-64336591D02*
X180004990Y-64336591D01*
X180004990Y-64336591D02*
X179814514Y-64288972D01*
X179814514Y-64288972D02*
X179719276Y-64241353D01*
X179719276Y-64241353D02*
X179624038Y-64146115D01*
X179624038Y-64146115D02*
X179576419Y-64003258D01*
X179576419Y-64003258D02*
X179576419Y-63908020D01*
X179576419Y-63908020D02*
X179624038Y-63765163D01*
X179624038Y-63765163D02*
X179671657Y-63717544D01*
X176624038Y-65622306D02*
X176576419Y-65717544D01*
X176576419Y-65717544D02*
X176576419Y-65860401D01*
X176576419Y-65860401D02*
X176624038Y-66003258D01*
X176624038Y-66003258D02*
X176719276Y-66098496D01*
X176719276Y-66098496D02*
X176814514Y-66146115D01*
X176814514Y-66146115D02*
X177004990Y-66193734D01*
X177004990Y-66193734D02*
X177147847Y-66193734D01*
X177147847Y-66193734D02*
X177338323Y-66146115D01*
X177338323Y-66146115D02*
X177433561Y-66098496D01*
X177433561Y-66098496D02*
X177528800Y-66003258D01*
X177528800Y-66003258D02*
X177576419Y-65860401D01*
X177576419Y-65860401D02*
X177576419Y-65765163D01*
X177576419Y-65765163D02*
X177528800Y-65622306D01*
X177528800Y-65622306D02*
X177481180Y-65574687D01*
X177481180Y-65574687D02*
X177147847Y-65574687D01*
X177147847Y-65574687D02*
X177147847Y-65765163D01*
X177576419Y-65146115D02*
X176576419Y-65146115D01*
X176576419Y-65146115D02*
X177576419Y-64574687D01*
X177576419Y-64574687D02*
X176576419Y-64574687D01*
X177576419Y-64098496D02*
X176576419Y-64098496D01*
X176576419Y-64098496D02*
X176576419Y-63860401D01*
X176576419Y-63860401D02*
X176624038Y-63717544D01*
X176624038Y-63717544D02*
X176719276Y-63622306D01*
X176719276Y-63622306D02*
X176814514Y-63574687D01*
X176814514Y-63574687D02*
X177004990Y-63527068D01*
X177004990Y-63527068D02*
X177147847Y-63527068D01*
X177147847Y-63527068D02*
X177338323Y-63574687D01*
X177338323Y-63574687D02*
X177433561Y-63622306D01*
X177433561Y-63622306D02*
X177528800Y-63717544D01*
X177528800Y-63717544D02*
X177576419Y-63860401D01*
X177576419Y-63860401D02*
X177576419Y-64098496D01*
X175028800Y-66193734D02*
X175076419Y-66050877D01*
X175076419Y-66050877D02*
X175076419Y-65812782D01*
X175076419Y-65812782D02*
X175028800Y-65717544D01*
X175028800Y-65717544D02*
X174981180Y-65669925D01*
X174981180Y-65669925D02*
X174885942Y-65622306D01*
X174885942Y-65622306D02*
X174790704Y-65622306D01*
X174790704Y-65622306D02*
X174695466Y-65669925D01*
X174695466Y-65669925D02*
X174647847Y-65717544D01*
X174647847Y-65717544D02*
X174600228Y-65812782D01*
X174600228Y-65812782D02*
X174552609Y-66003258D01*
X174552609Y-66003258D02*
X174504990Y-66098496D01*
X174504990Y-66098496D02*
X174457371Y-66146115D01*
X174457371Y-66146115D02*
X174362133Y-66193734D01*
X174362133Y-66193734D02*
X174266895Y-66193734D01*
X174266895Y-66193734D02*
X174171657Y-66146115D01*
X174171657Y-66146115D02*
X174124038Y-66098496D01*
X174124038Y-66098496D02*
X174076419Y-66003258D01*
X174076419Y-66003258D02*
X174076419Y-65765163D01*
X174076419Y-65765163D02*
X174124038Y-65622306D01*
X174981180Y-64622306D02*
X175028800Y-64669925D01*
X175028800Y-64669925D02*
X175076419Y-64812782D01*
X175076419Y-64812782D02*
X175076419Y-64908020D01*
X175076419Y-64908020D02*
X175028800Y-65050877D01*
X175028800Y-65050877D02*
X174933561Y-65146115D01*
X174933561Y-65146115D02*
X174838323Y-65193734D01*
X174838323Y-65193734D02*
X174647847Y-65241353D01*
X174647847Y-65241353D02*
X174504990Y-65241353D01*
X174504990Y-65241353D02*
X174314514Y-65193734D01*
X174314514Y-65193734D02*
X174219276Y-65146115D01*
X174219276Y-65146115D02*
X174124038Y-65050877D01*
X174124038Y-65050877D02*
X174076419Y-64908020D01*
X174076419Y-64908020D02*
X174076419Y-64812782D01*
X174076419Y-64812782D02*
X174124038Y-64669925D01*
X174124038Y-64669925D02*
X174171657Y-64622306D01*
X175076419Y-63717544D02*
X175076419Y-64193734D01*
X175076419Y-64193734D02*
X174076419Y-64193734D01*
X172028800Y-66193734D02*
X172076419Y-66050877D01*
X172076419Y-66050877D02*
X172076419Y-65812782D01*
X172076419Y-65812782D02*
X172028800Y-65717544D01*
X172028800Y-65717544D02*
X171981180Y-65669925D01*
X171981180Y-65669925D02*
X171885942Y-65622306D01*
X171885942Y-65622306D02*
X171790704Y-65622306D01*
X171790704Y-65622306D02*
X171695466Y-65669925D01*
X171695466Y-65669925D02*
X171647847Y-65717544D01*
X171647847Y-65717544D02*
X171600228Y-65812782D01*
X171600228Y-65812782D02*
X171552609Y-66003258D01*
X171552609Y-66003258D02*
X171504990Y-66098496D01*
X171504990Y-66098496D02*
X171457371Y-66146115D01*
X171457371Y-66146115D02*
X171362133Y-66193734D01*
X171362133Y-66193734D02*
X171266895Y-66193734D01*
X171266895Y-66193734D02*
X171171657Y-66146115D01*
X171171657Y-66146115D02*
X171124038Y-66098496D01*
X171124038Y-66098496D02*
X171076419Y-66003258D01*
X171076419Y-66003258D02*
X171076419Y-65765163D01*
X171076419Y-65765163D02*
X171124038Y-65622306D01*
X172076419Y-65193734D02*
X171076419Y-65193734D01*
X171076419Y-65193734D02*
X171076419Y-64955639D01*
X171076419Y-64955639D02*
X171124038Y-64812782D01*
X171124038Y-64812782D02*
X171219276Y-64717544D01*
X171219276Y-64717544D02*
X171314514Y-64669925D01*
X171314514Y-64669925D02*
X171504990Y-64622306D01*
X171504990Y-64622306D02*
X171647847Y-64622306D01*
X171647847Y-64622306D02*
X171838323Y-64669925D01*
X171838323Y-64669925D02*
X171933561Y-64717544D01*
X171933561Y-64717544D02*
X172028800Y-64812782D01*
X172028800Y-64812782D02*
X172076419Y-64955639D01*
X172076419Y-64955639D02*
X172076419Y-65193734D01*
X171790704Y-64241353D02*
X171790704Y-63765163D01*
X172076419Y-64336591D02*
X171076419Y-64003258D01*
X171076419Y-64003258D02*
X172076419Y-63669925D01*
X169576419Y-66146115D02*
X168576419Y-66146115D01*
X168576419Y-66146115D02*
X168576419Y-65908020D01*
X168576419Y-65908020D02*
X168624038Y-65765163D01*
X168624038Y-65765163D02*
X168719276Y-65669925D01*
X168719276Y-65669925D02*
X168814514Y-65622306D01*
X168814514Y-65622306D02*
X169004990Y-65574687D01*
X169004990Y-65574687D02*
X169147847Y-65574687D01*
X169147847Y-65574687D02*
X169338323Y-65622306D01*
X169338323Y-65622306D02*
X169433561Y-65669925D01*
X169433561Y-65669925D02*
X169528800Y-65765163D01*
X169528800Y-65765163D02*
X169576419Y-65908020D01*
X169576419Y-65908020D02*
X169576419Y-66146115D01*
X169481180Y-64574687D02*
X169528800Y-64622306D01*
X169528800Y-64622306D02*
X169576419Y-64765163D01*
X169576419Y-64765163D02*
X169576419Y-64860401D01*
X169576419Y-64860401D02*
X169528800Y-65003258D01*
X169528800Y-65003258D02*
X169433561Y-65098496D01*
X169433561Y-65098496D02*
X169338323Y-65146115D01*
X169338323Y-65146115D02*
X169147847Y-65193734D01*
X169147847Y-65193734D02*
X169004990Y-65193734D01*
X169004990Y-65193734D02*
X168814514Y-65146115D01*
X168814514Y-65146115D02*
X168719276Y-65098496D01*
X168719276Y-65098496D02*
X168624038Y-65003258D01*
X168624038Y-65003258D02*
X168576419Y-64860401D01*
X168576419Y-64860401D02*
X168576419Y-64765163D01*
X168576419Y-64765163D02*
X168624038Y-64622306D01*
X168624038Y-64622306D02*
X168671657Y-64574687D01*
X166481180Y-65574687D02*
X166528800Y-65622306D01*
X166528800Y-65622306D02*
X166576419Y-65765163D01*
X166576419Y-65765163D02*
X166576419Y-65860401D01*
X166576419Y-65860401D02*
X166528800Y-66003258D01*
X166528800Y-66003258D02*
X166433561Y-66098496D01*
X166433561Y-66098496D02*
X166338323Y-66146115D01*
X166338323Y-66146115D02*
X166147847Y-66193734D01*
X166147847Y-66193734D02*
X166004990Y-66193734D01*
X166004990Y-66193734D02*
X165814514Y-66146115D01*
X165814514Y-66146115D02*
X165719276Y-66098496D01*
X165719276Y-66098496D02*
X165624038Y-66003258D01*
X165624038Y-66003258D02*
X165576419Y-65860401D01*
X165576419Y-65860401D02*
X165576419Y-65765163D01*
X165576419Y-65765163D02*
X165624038Y-65622306D01*
X165624038Y-65622306D02*
X165671657Y-65574687D01*
X166528800Y-65193734D02*
X166576419Y-65050877D01*
X166576419Y-65050877D02*
X166576419Y-64812782D01*
X166576419Y-64812782D02*
X166528800Y-64717544D01*
X166528800Y-64717544D02*
X166481180Y-64669925D01*
X166481180Y-64669925D02*
X166385942Y-64622306D01*
X166385942Y-64622306D02*
X166290704Y-64622306D01*
X166290704Y-64622306D02*
X166195466Y-64669925D01*
X166195466Y-64669925D02*
X166147847Y-64717544D01*
X166147847Y-64717544D02*
X166100228Y-64812782D01*
X166100228Y-64812782D02*
X166052609Y-65003258D01*
X166052609Y-65003258D02*
X166004990Y-65098496D01*
X166004990Y-65098496D02*
X165957371Y-65146115D01*
X165957371Y-65146115D02*
X165862133Y-65193734D01*
X165862133Y-65193734D02*
X165766895Y-65193734D01*
X165766895Y-65193734D02*
X165671657Y-65146115D01*
X165671657Y-65146115D02*
X165624038Y-65098496D01*
X165624038Y-65098496D02*
X165576419Y-65003258D01*
X165576419Y-65003258D02*
X165576419Y-64765163D01*
X165576419Y-64765163D02*
X165624038Y-64622306D01*
X164076419Y-65574687D02*
X163600228Y-65908020D01*
X164076419Y-66146115D02*
X163076419Y-66146115D01*
X163076419Y-66146115D02*
X163076419Y-65765163D01*
X163076419Y-65765163D02*
X163124038Y-65669925D01*
X163124038Y-65669925D02*
X163171657Y-65622306D01*
X163171657Y-65622306D02*
X163266895Y-65574687D01*
X163266895Y-65574687D02*
X163409752Y-65574687D01*
X163409752Y-65574687D02*
X163504990Y-65622306D01*
X163504990Y-65622306D02*
X163552609Y-65669925D01*
X163552609Y-65669925D02*
X163600228Y-65765163D01*
X163600228Y-65765163D02*
X163600228Y-66146115D01*
X164028800Y-65193734D02*
X164076419Y-65050877D01*
X164076419Y-65050877D02*
X164076419Y-64812782D01*
X164076419Y-64812782D02*
X164028800Y-64717544D01*
X164028800Y-64717544D02*
X163981180Y-64669925D01*
X163981180Y-64669925D02*
X163885942Y-64622306D01*
X163885942Y-64622306D02*
X163790704Y-64622306D01*
X163790704Y-64622306D02*
X163695466Y-64669925D01*
X163695466Y-64669925D02*
X163647847Y-64717544D01*
X163647847Y-64717544D02*
X163600228Y-64812782D01*
X163600228Y-64812782D02*
X163552609Y-65003258D01*
X163552609Y-65003258D02*
X163504990Y-65098496D01*
X163504990Y-65098496D02*
X163457371Y-65146115D01*
X163457371Y-65146115D02*
X163362133Y-65193734D01*
X163362133Y-65193734D02*
X163266895Y-65193734D01*
X163266895Y-65193734D02*
X163171657Y-65146115D01*
X163171657Y-65146115D02*
X163124038Y-65098496D01*
X163124038Y-65098496D02*
X163076419Y-65003258D01*
X163076419Y-65003258D02*
X163076419Y-64765163D01*
X163076419Y-64765163D02*
X163124038Y-64622306D01*
X163076419Y-64336591D02*
X163076419Y-63765163D01*
X164076419Y-64050877D02*
X163076419Y-64050877D01*
D11*
X119545267Y-103023200D02*
X119688124Y-103070819D01*
X119688124Y-103070819D02*
X119926219Y-103070819D01*
X119926219Y-103070819D02*
X120021457Y-103023200D01*
X120021457Y-103023200D02*
X120069076Y-102975580D01*
X120069076Y-102975580D02*
X120116695Y-102880342D01*
X120116695Y-102880342D02*
X120116695Y-102785104D01*
X120116695Y-102785104D02*
X120069076Y-102689866D01*
X120069076Y-102689866D02*
X120021457Y-102642247D01*
X120021457Y-102642247D02*
X119926219Y-102594628D01*
X119926219Y-102594628D02*
X119735743Y-102547009D01*
X119735743Y-102547009D02*
X119640505Y-102499390D01*
X119640505Y-102499390D02*
X119592886Y-102451771D01*
X119592886Y-102451771D02*
X119545267Y-102356533D01*
X119545267Y-102356533D02*
X119545267Y-102261295D01*
X119545267Y-102261295D02*
X119592886Y-102166057D01*
X119592886Y-102166057D02*
X119640505Y-102118438D01*
X119640505Y-102118438D02*
X119735743Y-102070819D01*
X119735743Y-102070819D02*
X119973838Y-102070819D01*
X119973838Y-102070819D02*
X120116695Y-102118438D01*
X120450029Y-102070819D02*
X120688124Y-103070819D01*
X120688124Y-103070819D02*
X120878600Y-102356533D01*
X120878600Y-102356533D02*
X121069076Y-103070819D01*
X121069076Y-103070819D02*
X121307172Y-102070819D01*
X122164314Y-102070819D02*
X121688124Y-102070819D01*
X121688124Y-102070819D02*
X121640505Y-102547009D01*
X121640505Y-102547009D02*
X121688124Y-102499390D01*
X121688124Y-102499390D02*
X121783362Y-102451771D01*
X121783362Y-102451771D02*
X122021457Y-102451771D01*
X122021457Y-102451771D02*
X122116695Y-102499390D01*
X122116695Y-102499390D02*
X122164314Y-102547009D01*
X122164314Y-102547009D02*
X122211933Y-102642247D01*
X122211933Y-102642247D02*
X122211933Y-102880342D01*
X122211933Y-102880342D02*
X122164314Y-102975580D01*
X122164314Y-102975580D02*
X122116695Y-103023200D01*
X122116695Y-103023200D02*
X122021457Y-103070819D01*
X122021457Y-103070819D02*
X121783362Y-103070819D01*
X121783362Y-103070819D02*
X121688124Y-103023200D01*
X121688124Y-103023200D02*
X121640505Y-102975580D01*
X68692067Y-36788600D02*
X68834924Y-36836219D01*
X68834924Y-36836219D02*
X69073019Y-36836219D01*
X69073019Y-36836219D02*
X69168257Y-36788600D01*
X69168257Y-36788600D02*
X69215876Y-36740980D01*
X69215876Y-36740980D02*
X69263495Y-36645742D01*
X69263495Y-36645742D02*
X69263495Y-36550504D01*
X69263495Y-36550504D02*
X69215876Y-36455266D01*
X69215876Y-36455266D02*
X69168257Y-36407647D01*
X69168257Y-36407647D02*
X69073019Y-36360028D01*
X69073019Y-36360028D02*
X68882543Y-36312409D01*
X68882543Y-36312409D02*
X68787305Y-36264790D01*
X68787305Y-36264790D02*
X68739686Y-36217171D01*
X68739686Y-36217171D02*
X68692067Y-36121933D01*
X68692067Y-36121933D02*
X68692067Y-36026695D01*
X68692067Y-36026695D02*
X68739686Y-35931457D01*
X68739686Y-35931457D02*
X68787305Y-35883838D01*
X68787305Y-35883838D02*
X68882543Y-35836219D01*
X68882543Y-35836219D02*
X69120638Y-35836219D01*
X69120638Y-35836219D02*
X69263495Y-35883838D01*
X69596829Y-35836219D02*
X69834924Y-36836219D01*
X69834924Y-36836219D02*
X70025400Y-36121933D01*
X70025400Y-36121933D02*
X70215876Y-36836219D01*
X70215876Y-36836219D02*
X70453972Y-35836219D01*
X70882543Y-36836219D02*
X71073019Y-36836219D01*
X71073019Y-36836219D02*
X71168257Y-36788600D01*
X71168257Y-36788600D02*
X71215876Y-36740980D01*
X71215876Y-36740980D02*
X71311114Y-36598123D01*
X71311114Y-36598123D02*
X71358733Y-36407647D01*
X71358733Y-36407647D02*
X71358733Y-36026695D01*
X71358733Y-36026695D02*
X71311114Y-35931457D01*
X71311114Y-35931457D02*
X71263495Y-35883838D01*
X71263495Y-35883838D02*
X71168257Y-35836219D01*
X71168257Y-35836219D02*
X70977781Y-35836219D01*
X70977781Y-35836219D02*
X70882543Y-35883838D01*
X70882543Y-35883838D02*
X70834924Y-35931457D01*
X70834924Y-35931457D02*
X70787305Y-36026695D01*
X70787305Y-36026695D02*
X70787305Y-36264790D01*
X70787305Y-36264790D02*
X70834924Y-36360028D01*
X70834924Y-36360028D02*
X70882543Y-36407647D01*
X70882543Y-36407647D02*
X70977781Y-36455266D01*
X70977781Y-36455266D02*
X71168257Y-36455266D01*
X71168257Y-36455266D02*
X71263495Y-36407647D01*
X71263495Y-36407647D02*
X71311114Y-36360028D01*
X71311114Y-36360028D02*
X71358733Y-36264790D01*
X181697333Y-71225580D02*
X181649714Y-71273200D01*
X181649714Y-71273200D02*
X181506857Y-71320819D01*
X181506857Y-71320819D02*
X181411619Y-71320819D01*
X181411619Y-71320819D02*
X181268762Y-71273200D01*
X181268762Y-71273200D02*
X181173524Y-71177961D01*
X181173524Y-71177961D02*
X181125905Y-71082723D01*
X181125905Y-71082723D02*
X181078286Y-70892247D01*
X181078286Y-70892247D02*
X181078286Y-70749390D01*
X181078286Y-70749390D02*
X181125905Y-70558914D01*
X181125905Y-70558914D02*
X181173524Y-70463676D01*
X181173524Y-70463676D02*
X181268762Y-70368438D01*
X181268762Y-70368438D02*
X181411619Y-70320819D01*
X181411619Y-70320819D02*
X181506857Y-70320819D01*
X181506857Y-70320819D02*
X181649714Y-70368438D01*
X181649714Y-70368438D02*
X181697333Y-70416057D01*
X182554476Y-70320819D02*
X182364000Y-70320819D01*
X182364000Y-70320819D02*
X182268762Y-70368438D01*
X182268762Y-70368438D02*
X182221143Y-70416057D01*
X182221143Y-70416057D02*
X182125905Y-70558914D01*
X182125905Y-70558914D02*
X182078286Y-70749390D01*
X182078286Y-70749390D02*
X182078286Y-71130342D01*
X182078286Y-71130342D02*
X182125905Y-71225580D01*
X182125905Y-71225580D02*
X182173524Y-71273200D01*
X182173524Y-71273200D02*
X182268762Y-71320819D01*
X182268762Y-71320819D02*
X182459238Y-71320819D01*
X182459238Y-71320819D02*
X182554476Y-71273200D01*
X182554476Y-71273200D02*
X182602095Y-71225580D01*
X182602095Y-71225580D02*
X182649714Y-71130342D01*
X182649714Y-71130342D02*
X182649714Y-70892247D01*
X182649714Y-70892247D02*
X182602095Y-70797009D01*
X182602095Y-70797009D02*
X182554476Y-70749390D01*
X182554476Y-70749390D02*
X182459238Y-70701771D01*
X182459238Y-70701771D02*
X182268762Y-70701771D01*
X182268762Y-70701771D02*
X182173524Y-70749390D01*
X182173524Y-70749390D02*
X182125905Y-70797009D01*
X182125905Y-70797009D02*
X182078286Y-70892247D01*
D10*
X61323609Y-76952591D02*
X61823609Y-76785925D01*
X61823609Y-76785925D02*
X61323609Y-76619258D01*
X61775990Y-76166878D02*
X61799800Y-76190687D01*
X61799800Y-76190687D02*
X61823609Y-76262116D01*
X61823609Y-76262116D02*
X61823609Y-76309735D01*
X61823609Y-76309735D02*
X61799800Y-76381163D01*
X61799800Y-76381163D02*
X61752180Y-76428782D01*
X61752180Y-76428782D02*
X61704561Y-76452592D01*
X61704561Y-76452592D02*
X61609323Y-76476401D01*
X61609323Y-76476401D02*
X61537895Y-76476401D01*
X61537895Y-76476401D02*
X61442657Y-76452592D01*
X61442657Y-76452592D02*
X61395038Y-76428782D01*
X61395038Y-76428782D02*
X61347419Y-76381163D01*
X61347419Y-76381163D02*
X61323609Y-76309735D01*
X61323609Y-76309735D02*
X61323609Y-76262116D01*
X61323609Y-76262116D02*
X61347419Y-76190687D01*
X61347419Y-76190687D02*
X61371228Y-76166878D01*
X61775990Y-75666878D02*
X61799800Y-75690687D01*
X61799800Y-75690687D02*
X61823609Y-75762116D01*
X61823609Y-75762116D02*
X61823609Y-75809735D01*
X61823609Y-75809735D02*
X61799800Y-75881163D01*
X61799800Y-75881163D02*
X61752180Y-75928782D01*
X61752180Y-75928782D02*
X61704561Y-75952592D01*
X61704561Y-75952592D02*
X61609323Y-75976401D01*
X61609323Y-75976401D02*
X61537895Y-75976401D01*
X61537895Y-75976401D02*
X61442657Y-75952592D01*
X61442657Y-75952592D02*
X61395038Y-75928782D01*
X61395038Y-75928782D02*
X61347419Y-75881163D01*
X61347419Y-75881163D02*
X61323609Y-75809735D01*
X61323609Y-75809735D02*
X61323609Y-75762116D01*
X61323609Y-75762116D02*
X61347419Y-75690687D01*
X61347419Y-75690687D02*
X61371228Y-75666878D01*
X61730752Y-78554972D02*
X61730752Y-78316877D01*
X61873609Y-78602591D02*
X61373609Y-78435925D01*
X61373609Y-78435925D02*
X61873609Y-78269258D01*
X61373609Y-78007354D02*
X61373609Y-77959735D01*
X61373609Y-77959735D02*
X61397419Y-77912116D01*
X61397419Y-77912116D02*
X61421228Y-77888306D01*
X61421228Y-77888306D02*
X61468847Y-77864497D01*
X61468847Y-77864497D02*
X61564085Y-77840687D01*
X61564085Y-77840687D02*
X61683133Y-77840687D01*
X61683133Y-77840687D02*
X61778371Y-77864497D01*
X61778371Y-77864497D02*
X61825990Y-77888306D01*
X61825990Y-77888306D02*
X61849800Y-77912116D01*
X61849800Y-77912116D02*
X61873609Y-77959735D01*
X61873609Y-77959735D02*
X61873609Y-78007354D01*
X61873609Y-78007354D02*
X61849800Y-78054973D01*
X61849800Y-78054973D02*
X61825990Y-78078782D01*
X61825990Y-78078782D02*
X61778371Y-78102592D01*
X61778371Y-78102592D02*
X61683133Y-78126401D01*
X61683133Y-78126401D02*
X61564085Y-78126401D01*
X61564085Y-78126401D02*
X61468847Y-78102592D01*
X61468847Y-78102592D02*
X61421228Y-78078782D01*
X61421228Y-78078782D02*
X61397419Y-78054973D01*
X61397419Y-78054973D02*
X61373609Y-78007354D01*
X62930752Y-78554972D02*
X62930752Y-78316877D01*
X63073609Y-78602591D02*
X62573609Y-78435925D01*
X62573609Y-78435925D02*
X63073609Y-78269258D01*
X63073609Y-77840687D02*
X63073609Y-78126401D01*
X63073609Y-77983544D02*
X62573609Y-77983544D01*
X62573609Y-77983544D02*
X62645038Y-78031163D01*
X62645038Y-78031163D02*
X62692657Y-78078782D01*
X62692657Y-78078782D02*
X62716466Y-78126401D01*
X62935514Y-76535925D02*
X63173609Y-76535925D01*
X62673609Y-76702591D02*
X62935514Y-76535925D01*
X62935514Y-76535925D02*
X62673609Y-76369258D01*
X62673609Y-76107354D02*
X62673609Y-76059735D01*
X62673609Y-76059735D02*
X62697419Y-76012116D01*
X62697419Y-76012116D02*
X62721228Y-75988306D01*
X62721228Y-75988306D02*
X62768847Y-75964497D01*
X62768847Y-75964497D02*
X62864085Y-75940687D01*
X62864085Y-75940687D02*
X62983133Y-75940687D01*
X62983133Y-75940687D02*
X63078371Y-75964497D01*
X63078371Y-75964497D02*
X63125990Y-75988306D01*
X63125990Y-75988306D02*
X63149800Y-76012116D01*
X63149800Y-76012116D02*
X63173609Y-76059735D01*
X63173609Y-76059735D02*
X63173609Y-76107354D01*
X63173609Y-76107354D02*
X63149800Y-76154973D01*
X63149800Y-76154973D02*
X63125990Y-76178782D01*
X63125990Y-76178782D02*
X63078371Y-76202592D01*
X63078371Y-76202592D02*
X62983133Y-76226401D01*
X62983133Y-76226401D02*
X62864085Y-76226401D01*
X62864085Y-76226401D02*
X62768847Y-76202592D01*
X62768847Y-76202592D02*
X62721228Y-76178782D01*
X62721228Y-76178782D02*
X62697419Y-76154973D01*
X62697419Y-76154973D02*
X62673609Y-76107354D01*
X64180752Y-78554972D02*
X64180752Y-78316877D01*
X64323609Y-78602591D02*
X63823609Y-78435925D01*
X63823609Y-78435925D02*
X64323609Y-78269258D01*
X63871228Y-78126401D02*
X63847419Y-78102592D01*
X63847419Y-78102592D02*
X63823609Y-78054973D01*
X63823609Y-78054973D02*
X63823609Y-77935925D01*
X63823609Y-77935925D02*
X63847419Y-77888306D01*
X63847419Y-77888306D02*
X63871228Y-77864497D01*
X63871228Y-77864497D02*
X63918847Y-77840687D01*
X63918847Y-77840687D02*
X63966466Y-77840687D01*
X63966466Y-77840687D02*
X64037895Y-77864497D01*
X64037895Y-77864497D02*
X64323609Y-78150211D01*
X64323609Y-78150211D02*
X64323609Y-77840687D01*
X64135514Y-76435925D02*
X64373609Y-76435925D01*
X63873609Y-76602591D02*
X64135514Y-76435925D01*
X64135514Y-76435925D02*
X63873609Y-76269258D01*
X64373609Y-75840687D02*
X64373609Y-76126401D01*
X64373609Y-75983544D02*
X63873609Y-75983544D01*
X63873609Y-75983544D02*
X63945038Y-76031163D01*
X63945038Y-76031163D02*
X63992657Y-76078782D01*
X63992657Y-76078782D02*
X64016466Y-76126401D01*
X65361704Y-78581163D02*
X65361704Y-78414496D01*
X65623609Y-78343068D02*
X65623609Y-78581163D01*
X65623609Y-78581163D02*
X65123609Y-78581163D01*
X65123609Y-78581163D02*
X65123609Y-78343068D01*
X65623609Y-77866877D02*
X65623609Y-78152591D01*
X65623609Y-78009734D02*
X65123609Y-78009734D01*
X65123609Y-78009734D02*
X65195038Y-78057353D01*
X65195038Y-78057353D02*
X65242657Y-78104972D01*
X65242657Y-78104972D02*
X65266466Y-78152591D01*
X65435514Y-76435925D02*
X65673609Y-76435925D01*
X65173609Y-76602591D02*
X65435514Y-76435925D01*
X65435514Y-76435925D02*
X65173609Y-76269258D01*
X65221228Y-76126401D02*
X65197419Y-76102592D01*
X65197419Y-76102592D02*
X65173609Y-76054973D01*
X65173609Y-76054973D02*
X65173609Y-75935925D01*
X65173609Y-75935925D02*
X65197419Y-75888306D01*
X65197419Y-75888306D02*
X65221228Y-75864497D01*
X65221228Y-75864497D02*
X65268847Y-75840687D01*
X65268847Y-75840687D02*
X65316466Y-75840687D01*
X65316466Y-75840687D02*
X65387895Y-75864497D01*
X65387895Y-75864497D02*
X65673609Y-76150211D01*
X65673609Y-76150211D02*
X65673609Y-75840687D01*
X66661704Y-78581163D02*
X66661704Y-78414496D01*
X66923609Y-78343068D02*
X66923609Y-78581163D01*
X66923609Y-78581163D02*
X66423609Y-78581163D01*
X66423609Y-78581163D02*
X66423609Y-78343068D01*
X66471228Y-78152591D02*
X66447419Y-78128782D01*
X66447419Y-78128782D02*
X66423609Y-78081163D01*
X66423609Y-78081163D02*
X66423609Y-77962115D01*
X66423609Y-77962115D02*
X66447419Y-77914496D01*
X66447419Y-77914496D02*
X66471228Y-77890687D01*
X66471228Y-77890687D02*
X66518847Y-77866877D01*
X66518847Y-77866877D02*
X66566466Y-77866877D01*
X66566466Y-77866877D02*
X66637895Y-77890687D01*
X66637895Y-77890687D02*
X66923609Y-78176401D01*
X66923609Y-78176401D02*
X66923609Y-77866877D01*
X66735514Y-76435925D02*
X66973609Y-76435925D01*
X66473609Y-76602591D02*
X66735514Y-76435925D01*
X66735514Y-76435925D02*
X66473609Y-76269258D01*
X66473609Y-76150211D02*
X66473609Y-75840687D01*
X66473609Y-75840687D02*
X66664085Y-76007354D01*
X66664085Y-76007354D02*
X66664085Y-75935925D01*
X66664085Y-75935925D02*
X66687895Y-75888306D01*
X66687895Y-75888306D02*
X66711704Y-75864497D01*
X66711704Y-75864497D02*
X66759323Y-75840687D01*
X66759323Y-75840687D02*
X66878371Y-75840687D01*
X66878371Y-75840687D02*
X66925990Y-75864497D01*
X66925990Y-75864497D02*
X66949800Y-75888306D01*
X66949800Y-75888306D02*
X66973609Y-75935925D01*
X66973609Y-75935925D02*
X66973609Y-76078782D01*
X66973609Y-76078782D02*
X66949800Y-76126401D01*
X66949800Y-76126401D02*
X66925990Y-76150211D01*
X67911704Y-78581163D02*
X67911704Y-78414496D01*
X68173609Y-78343068D02*
X68173609Y-78581163D01*
X68173609Y-78581163D02*
X67673609Y-78581163D01*
X67673609Y-78581163D02*
X67673609Y-78343068D01*
X67673609Y-78176401D02*
X67673609Y-77866877D01*
X67673609Y-77866877D02*
X67864085Y-78033544D01*
X67864085Y-78033544D02*
X67864085Y-77962115D01*
X67864085Y-77962115D02*
X67887895Y-77914496D01*
X67887895Y-77914496D02*
X67911704Y-77890687D01*
X67911704Y-77890687D02*
X67959323Y-77866877D01*
X67959323Y-77866877D02*
X68078371Y-77866877D01*
X68078371Y-77866877D02*
X68125990Y-77890687D01*
X68125990Y-77890687D02*
X68149800Y-77914496D01*
X68149800Y-77914496D02*
X68173609Y-77962115D01*
X68173609Y-77962115D02*
X68173609Y-78104972D01*
X68173609Y-78104972D02*
X68149800Y-78152591D01*
X68149800Y-78152591D02*
X68125990Y-78176401D01*
X67985514Y-76385925D02*
X68223609Y-76385925D01*
X67723609Y-76552591D02*
X67985514Y-76385925D01*
X67985514Y-76385925D02*
X67723609Y-76219258D01*
X67890276Y-75838306D02*
X68223609Y-75838306D01*
X67699800Y-75957354D02*
X68056942Y-76076401D01*
X68056942Y-76076401D02*
X68056942Y-75766878D01*
X69235514Y-76435925D02*
X69473609Y-76435925D01*
X68973609Y-76602591D02*
X69235514Y-76435925D01*
X69235514Y-76435925D02*
X68973609Y-76269258D01*
X68973609Y-75864497D02*
X68973609Y-76102592D01*
X68973609Y-76102592D02*
X69211704Y-76126401D01*
X69211704Y-76126401D02*
X69187895Y-76102592D01*
X69187895Y-76102592D02*
X69164085Y-76054973D01*
X69164085Y-76054973D02*
X69164085Y-75935925D01*
X69164085Y-75935925D02*
X69187895Y-75888306D01*
X69187895Y-75888306D02*
X69211704Y-75864497D01*
X69211704Y-75864497D02*
X69259323Y-75840687D01*
X69259323Y-75840687D02*
X69378371Y-75840687D01*
X69378371Y-75840687D02*
X69425990Y-75864497D01*
X69425990Y-75864497D02*
X69449800Y-75888306D01*
X69449800Y-75888306D02*
X69473609Y-75935925D01*
X69473609Y-75935925D02*
X69473609Y-76054973D01*
X69473609Y-76054973D02*
X69449800Y-76102592D01*
X69449800Y-76102592D02*
X69425990Y-76126401D01*
X69235514Y-78485925D02*
X69473609Y-78485925D01*
X68973609Y-78652591D02*
X69235514Y-78485925D01*
X69235514Y-78485925D02*
X68973609Y-78319258D01*
X68973609Y-78200211D02*
X68973609Y-77866878D01*
X68973609Y-77866878D02*
X69473609Y-78081163D01*
X70485514Y-76435925D02*
X70723609Y-76435925D01*
X70223609Y-76602591D02*
X70485514Y-76435925D01*
X70485514Y-76435925D02*
X70223609Y-76269258D01*
X70223609Y-75888306D02*
X70223609Y-75983544D01*
X70223609Y-75983544D02*
X70247419Y-76031163D01*
X70247419Y-76031163D02*
X70271228Y-76054973D01*
X70271228Y-76054973D02*
X70342657Y-76102592D01*
X70342657Y-76102592D02*
X70437895Y-76126401D01*
X70437895Y-76126401D02*
X70628371Y-76126401D01*
X70628371Y-76126401D02*
X70675990Y-76102592D01*
X70675990Y-76102592D02*
X70699800Y-76078782D01*
X70699800Y-76078782D02*
X70723609Y-76031163D01*
X70723609Y-76031163D02*
X70723609Y-75935925D01*
X70723609Y-75935925D02*
X70699800Y-75888306D01*
X70699800Y-75888306D02*
X70675990Y-75864497D01*
X70675990Y-75864497D02*
X70628371Y-75840687D01*
X70628371Y-75840687D02*
X70509323Y-75840687D01*
X70509323Y-75840687D02*
X70461704Y-75864497D01*
X70461704Y-75864497D02*
X70437895Y-75888306D01*
X70437895Y-75888306D02*
X70414085Y-75935925D01*
X70414085Y-75935925D02*
X70414085Y-76031163D01*
X70414085Y-76031163D02*
X70437895Y-76078782D01*
X70437895Y-76078782D02*
X70461704Y-76102592D01*
X70461704Y-76102592D02*
X70509323Y-76126401D01*
X70247419Y-78344058D02*
X70223609Y-78391677D01*
X70223609Y-78391677D02*
X70223609Y-78463106D01*
X70223609Y-78463106D02*
X70247419Y-78534534D01*
X70247419Y-78534534D02*
X70295038Y-78582153D01*
X70295038Y-78582153D02*
X70342657Y-78605963D01*
X70342657Y-78605963D02*
X70437895Y-78629772D01*
X70437895Y-78629772D02*
X70509323Y-78629772D01*
X70509323Y-78629772D02*
X70604561Y-78605963D01*
X70604561Y-78605963D02*
X70652180Y-78582153D01*
X70652180Y-78582153D02*
X70699800Y-78534534D01*
X70699800Y-78534534D02*
X70723609Y-78463106D01*
X70723609Y-78463106D02*
X70723609Y-78415487D01*
X70723609Y-78415487D02*
X70699800Y-78344058D01*
X70699800Y-78344058D02*
X70675990Y-78320249D01*
X70675990Y-78320249D02*
X70509323Y-78320249D01*
X70509323Y-78320249D02*
X70509323Y-78415487D01*
X70723609Y-78105963D02*
X70223609Y-78105963D01*
X70223609Y-78105963D02*
X70723609Y-77820249D01*
X70723609Y-77820249D02*
X70223609Y-77820249D01*
X70723609Y-77582153D02*
X70223609Y-77582153D01*
X70223609Y-77582153D02*
X70223609Y-77463105D01*
X70223609Y-77463105D02*
X70247419Y-77391677D01*
X70247419Y-77391677D02*
X70295038Y-77344058D01*
X70295038Y-77344058D02*
X70342657Y-77320248D01*
X70342657Y-77320248D02*
X70437895Y-77296439D01*
X70437895Y-77296439D02*
X70509323Y-77296439D01*
X70509323Y-77296439D02*
X70604561Y-77320248D01*
X70604561Y-77320248D02*
X70652180Y-77344058D01*
X70652180Y-77344058D02*
X70699800Y-77391677D01*
X70699800Y-77391677D02*
X70723609Y-77463105D01*
X70723609Y-77463105D02*
X70723609Y-77582153D01*
D11*
X130389333Y-71225580D02*
X130341714Y-71273200D01*
X130341714Y-71273200D02*
X130198857Y-71320819D01*
X130198857Y-71320819D02*
X130103619Y-71320819D01*
X130103619Y-71320819D02*
X129960762Y-71273200D01*
X129960762Y-71273200D02*
X129865524Y-71177961D01*
X129865524Y-71177961D02*
X129817905Y-71082723D01*
X129817905Y-71082723D02*
X129770286Y-70892247D01*
X129770286Y-70892247D02*
X129770286Y-70749390D01*
X129770286Y-70749390D02*
X129817905Y-70558914D01*
X129817905Y-70558914D02*
X129865524Y-70463676D01*
X129865524Y-70463676D02*
X129960762Y-70368438D01*
X129960762Y-70368438D02*
X130103619Y-70320819D01*
X130103619Y-70320819D02*
X130198857Y-70320819D01*
X130198857Y-70320819D02*
X130341714Y-70368438D01*
X130341714Y-70368438D02*
X130389333Y-70416057D01*
X131246476Y-70654152D02*
X131246476Y-71320819D01*
X131008381Y-70273200D02*
X130770286Y-70987485D01*
X130770286Y-70987485D02*
X131389333Y-70987485D01*
X125563333Y-21282819D02*
X125230000Y-20806628D01*
X124991905Y-21282819D02*
X124991905Y-20282819D01*
X124991905Y-20282819D02*
X125372857Y-20282819D01*
X125372857Y-20282819D02*
X125468095Y-20330438D01*
X125468095Y-20330438D02*
X125515714Y-20378057D01*
X125515714Y-20378057D02*
X125563333Y-20473295D01*
X125563333Y-20473295D02*
X125563333Y-20616152D01*
X125563333Y-20616152D02*
X125515714Y-20711390D01*
X125515714Y-20711390D02*
X125468095Y-20759009D01*
X125468095Y-20759009D02*
X125372857Y-20806628D01*
X125372857Y-20806628D02*
X124991905Y-20806628D01*
X126420476Y-20282819D02*
X126230000Y-20282819D01*
X126230000Y-20282819D02*
X126134762Y-20330438D01*
X126134762Y-20330438D02*
X126087143Y-20378057D01*
X126087143Y-20378057D02*
X125991905Y-20520914D01*
X125991905Y-20520914D02*
X125944286Y-20711390D01*
X125944286Y-20711390D02*
X125944286Y-21092342D01*
X125944286Y-21092342D02*
X125991905Y-21187580D01*
X125991905Y-21187580D02*
X126039524Y-21235200D01*
X126039524Y-21235200D02*
X126134762Y-21282819D01*
X126134762Y-21282819D02*
X126325238Y-21282819D01*
X126325238Y-21282819D02*
X126420476Y-21235200D01*
X126420476Y-21235200D02*
X126468095Y-21187580D01*
X126468095Y-21187580D02*
X126515714Y-21092342D01*
X126515714Y-21092342D02*
X126515714Y-20854247D01*
X126515714Y-20854247D02*
X126468095Y-20759009D01*
X126468095Y-20759009D02*
X126420476Y-20711390D01*
X126420476Y-20711390D02*
X126325238Y-20663771D01*
X126325238Y-20663771D02*
X126134762Y-20663771D01*
X126134762Y-20663771D02*
X126039524Y-20711390D01*
X126039524Y-20711390D02*
X125991905Y-20759009D01*
X125991905Y-20759009D02*
X125944286Y-20854247D01*
X170370667Y-36983200D02*
X170513524Y-37030819D01*
X170513524Y-37030819D02*
X170751619Y-37030819D01*
X170751619Y-37030819D02*
X170846857Y-36983200D01*
X170846857Y-36983200D02*
X170894476Y-36935580D01*
X170894476Y-36935580D02*
X170942095Y-36840342D01*
X170942095Y-36840342D02*
X170942095Y-36745104D01*
X170942095Y-36745104D02*
X170894476Y-36649866D01*
X170894476Y-36649866D02*
X170846857Y-36602247D01*
X170846857Y-36602247D02*
X170751619Y-36554628D01*
X170751619Y-36554628D02*
X170561143Y-36507009D01*
X170561143Y-36507009D02*
X170465905Y-36459390D01*
X170465905Y-36459390D02*
X170418286Y-36411771D01*
X170418286Y-36411771D02*
X170370667Y-36316533D01*
X170370667Y-36316533D02*
X170370667Y-36221295D01*
X170370667Y-36221295D02*
X170418286Y-36126057D01*
X170418286Y-36126057D02*
X170465905Y-36078438D01*
X170465905Y-36078438D02*
X170561143Y-36030819D01*
X170561143Y-36030819D02*
X170799238Y-36030819D01*
X170799238Y-36030819D02*
X170942095Y-36078438D01*
X171275429Y-36030819D02*
X171513524Y-37030819D01*
X171513524Y-37030819D02*
X171704000Y-36316533D01*
X171704000Y-36316533D02*
X171894476Y-37030819D01*
X171894476Y-37030819D02*
X172132572Y-36030819D01*
X172418286Y-36030819D02*
X173084952Y-36030819D01*
X173084952Y-36030819D02*
X172656381Y-37030819D01*
X171212333Y-129137819D02*
X170879000Y-128661628D01*
X170640905Y-129137819D02*
X170640905Y-128137819D01*
X170640905Y-128137819D02*
X171021857Y-128137819D01*
X171021857Y-128137819D02*
X171117095Y-128185438D01*
X171117095Y-128185438D02*
X171164714Y-128233057D01*
X171164714Y-128233057D02*
X171212333Y-128328295D01*
X171212333Y-128328295D02*
X171212333Y-128471152D01*
X171212333Y-128471152D02*
X171164714Y-128566390D01*
X171164714Y-128566390D02*
X171117095Y-128614009D01*
X171117095Y-128614009D02*
X171021857Y-128661628D01*
X171021857Y-128661628D02*
X170640905Y-128661628D01*
X172069476Y-128471152D02*
X172069476Y-129137819D01*
X171831381Y-128090200D02*
X171593286Y-128804485D01*
X171593286Y-128804485D02*
X172212333Y-128804485D01*
X68770667Y-103023200D02*
X68913524Y-103070819D01*
X68913524Y-103070819D02*
X69151619Y-103070819D01*
X69151619Y-103070819D02*
X69246857Y-103023200D01*
X69246857Y-103023200D02*
X69294476Y-102975580D01*
X69294476Y-102975580D02*
X69342095Y-102880342D01*
X69342095Y-102880342D02*
X69342095Y-102785104D01*
X69342095Y-102785104D02*
X69294476Y-102689866D01*
X69294476Y-102689866D02*
X69246857Y-102642247D01*
X69246857Y-102642247D02*
X69151619Y-102594628D01*
X69151619Y-102594628D02*
X68961143Y-102547009D01*
X68961143Y-102547009D02*
X68865905Y-102499390D01*
X68865905Y-102499390D02*
X68818286Y-102451771D01*
X68818286Y-102451771D02*
X68770667Y-102356533D01*
X68770667Y-102356533D02*
X68770667Y-102261295D01*
X68770667Y-102261295D02*
X68818286Y-102166057D01*
X68818286Y-102166057D02*
X68865905Y-102118438D01*
X68865905Y-102118438D02*
X68961143Y-102070819D01*
X68961143Y-102070819D02*
X69199238Y-102070819D01*
X69199238Y-102070819D02*
X69342095Y-102118438D01*
X69675429Y-102070819D02*
X69913524Y-103070819D01*
X69913524Y-103070819D02*
X70104000Y-102356533D01*
X70104000Y-102356533D02*
X70294476Y-103070819D01*
X70294476Y-103070819D02*
X70532572Y-102070819D01*
X71342095Y-102404152D02*
X71342095Y-103070819D01*
X71104000Y-102023200D02*
X70865905Y-102737485D01*
X70865905Y-102737485D02*
X71484952Y-102737485D01*
X161631333Y-84433580D02*
X161583714Y-84481200D01*
X161583714Y-84481200D02*
X161440857Y-84528819D01*
X161440857Y-84528819D02*
X161345619Y-84528819D01*
X161345619Y-84528819D02*
X161202762Y-84481200D01*
X161202762Y-84481200D02*
X161107524Y-84385961D01*
X161107524Y-84385961D02*
X161059905Y-84290723D01*
X161059905Y-84290723D02*
X161012286Y-84100247D01*
X161012286Y-84100247D02*
X161012286Y-83957390D01*
X161012286Y-83957390D02*
X161059905Y-83766914D01*
X161059905Y-83766914D02*
X161107524Y-83671676D01*
X161107524Y-83671676D02*
X161202762Y-83576438D01*
X161202762Y-83576438D02*
X161345619Y-83528819D01*
X161345619Y-83528819D02*
X161440857Y-83528819D01*
X161440857Y-83528819D02*
X161583714Y-83576438D01*
X161583714Y-83576438D02*
X161631333Y-83624057D01*
X162536095Y-83528819D02*
X162059905Y-83528819D01*
X162059905Y-83528819D02*
X162012286Y-84005009D01*
X162012286Y-84005009D02*
X162059905Y-83957390D01*
X162059905Y-83957390D02*
X162155143Y-83909771D01*
X162155143Y-83909771D02*
X162393238Y-83909771D01*
X162393238Y-83909771D02*
X162488476Y-83957390D01*
X162488476Y-83957390D02*
X162536095Y-84005009D01*
X162536095Y-84005009D02*
X162583714Y-84100247D01*
X162583714Y-84100247D02*
X162583714Y-84338342D01*
X162583714Y-84338342D02*
X162536095Y-84433580D01*
X162536095Y-84433580D02*
X162488476Y-84481200D01*
X162488476Y-84481200D02*
X162393238Y-84528819D01*
X162393238Y-84528819D02*
X162155143Y-84528819D01*
X162155143Y-84528819D02*
X162059905Y-84481200D01*
X162059905Y-84481200D02*
X162012286Y-84433580D01*
X48047819Y-106775666D02*
X47571628Y-107108999D01*
X48047819Y-107347094D02*
X47047819Y-107347094D01*
X47047819Y-107347094D02*
X47047819Y-106966142D01*
X47047819Y-106966142D02*
X47095438Y-106870904D01*
X47095438Y-106870904D02*
X47143057Y-106823285D01*
X47143057Y-106823285D02*
X47238295Y-106775666D01*
X47238295Y-106775666D02*
X47381152Y-106775666D01*
X47381152Y-106775666D02*
X47476390Y-106823285D01*
X47476390Y-106823285D02*
X47524009Y-106870904D01*
X47524009Y-106870904D02*
X47571628Y-106966142D01*
X47571628Y-106966142D02*
X47571628Y-107347094D01*
X48047819Y-105823285D02*
X48047819Y-106394713D01*
X48047819Y-106108999D02*
X47047819Y-106108999D01*
X47047819Y-106108999D02*
X47190676Y-106204237D01*
X47190676Y-106204237D02*
X47285914Y-106299475D01*
X47285914Y-106299475D02*
X47333533Y-106394713D01*
X63066333Y-82749580D02*
X63018714Y-82797200D01*
X63018714Y-82797200D02*
X62875857Y-82844819D01*
X62875857Y-82844819D02*
X62780619Y-82844819D01*
X62780619Y-82844819D02*
X62637762Y-82797200D01*
X62637762Y-82797200D02*
X62542524Y-82701961D01*
X62542524Y-82701961D02*
X62494905Y-82606723D01*
X62494905Y-82606723D02*
X62447286Y-82416247D01*
X62447286Y-82416247D02*
X62447286Y-82273390D01*
X62447286Y-82273390D02*
X62494905Y-82082914D01*
X62494905Y-82082914D02*
X62542524Y-81987676D01*
X62542524Y-81987676D02*
X62637762Y-81892438D01*
X62637762Y-81892438D02*
X62780619Y-81844819D01*
X62780619Y-81844819D02*
X62875857Y-81844819D01*
X62875857Y-81844819D02*
X63018714Y-81892438D01*
X63018714Y-81892438D02*
X63066333Y-81940057D01*
X63637762Y-82273390D02*
X63542524Y-82225771D01*
X63542524Y-82225771D02*
X63494905Y-82178152D01*
X63494905Y-82178152D02*
X63447286Y-82082914D01*
X63447286Y-82082914D02*
X63447286Y-82035295D01*
X63447286Y-82035295D02*
X63494905Y-81940057D01*
X63494905Y-81940057D02*
X63542524Y-81892438D01*
X63542524Y-81892438D02*
X63637762Y-81844819D01*
X63637762Y-81844819D02*
X63828238Y-81844819D01*
X63828238Y-81844819D02*
X63923476Y-81892438D01*
X63923476Y-81892438D02*
X63971095Y-81940057D01*
X63971095Y-81940057D02*
X64018714Y-82035295D01*
X64018714Y-82035295D02*
X64018714Y-82082914D01*
X64018714Y-82082914D02*
X63971095Y-82178152D01*
X63971095Y-82178152D02*
X63923476Y-82225771D01*
X63923476Y-82225771D02*
X63828238Y-82273390D01*
X63828238Y-82273390D02*
X63637762Y-82273390D01*
X63637762Y-82273390D02*
X63542524Y-82321009D01*
X63542524Y-82321009D02*
X63494905Y-82368628D01*
X63494905Y-82368628D02*
X63447286Y-82463866D01*
X63447286Y-82463866D02*
X63447286Y-82654342D01*
X63447286Y-82654342D02*
X63494905Y-82749580D01*
X63494905Y-82749580D02*
X63542524Y-82797200D01*
X63542524Y-82797200D02*
X63637762Y-82844819D01*
X63637762Y-82844819D02*
X63828238Y-82844819D01*
X63828238Y-82844819D02*
X63923476Y-82797200D01*
X63923476Y-82797200D02*
X63971095Y-82749580D01*
X63971095Y-82749580D02*
X64018714Y-82654342D01*
X64018714Y-82654342D02*
X64018714Y-82463866D01*
X64018714Y-82463866D02*
X63971095Y-82368628D01*
X63971095Y-82368628D02*
X63923476Y-82321009D01*
X63923476Y-82321009D02*
X63828238Y-82273390D01*
D10*
X62231580Y-88651027D02*
X61231580Y-88984360D01*
X61231580Y-88984360D02*
X62231580Y-89317693D01*
X61326819Y-90222455D02*
X61279200Y-90174836D01*
X61279200Y-90174836D02*
X61231580Y-90031979D01*
X61231580Y-90031979D02*
X61231580Y-89936741D01*
X61231580Y-89936741D02*
X61279200Y-89793884D01*
X61279200Y-89793884D02*
X61374438Y-89698646D01*
X61374438Y-89698646D02*
X61469676Y-89651027D01*
X61469676Y-89651027D02*
X61660152Y-89603408D01*
X61660152Y-89603408D02*
X61803009Y-89603408D01*
X61803009Y-89603408D02*
X61993485Y-89651027D01*
X61993485Y-89651027D02*
X62088723Y-89698646D01*
X62088723Y-89698646D02*
X62183961Y-89793884D01*
X62183961Y-89793884D02*
X62231580Y-89936741D01*
X62231580Y-89936741D02*
X62231580Y-90031979D01*
X62231580Y-90031979D02*
X62183961Y-90174836D01*
X62183961Y-90174836D02*
X62136342Y-90222455D01*
X61326819Y-91222455D02*
X61279200Y-91174836D01*
X61279200Y-91174836D02*
X61231580Y-91031979D01*
X61231580Y-91031979D02*
X61231580Y-90936741D01*
X61231580Y-90936741D02*
X61279200Y-90793884D01*
X61279200Y-90793884D02*
X61374438Y-90698646D01*
X61374438Y-90698646D02*
X61469676Y-90651027D01*
X61469676Y-90651027D02*
X61660152Y-90603408D01*
X61660152Y-90603408D02*
X61803009Y-90603408D01*
X61803009Y-90603408D02*
X61993485Y-90651027D01*
X61993485Y-90651027D02*
X62088723Y-90698646D01*
X62088723Y-90698646D02*
X62183961Y-90793884D01*
X62183961Y-90793884D02*
X62231580Y-90936741D01*
X62231580Y-90936741D02*
X62231580Y-91031979D01*
X62231580Y-91031979D02*
X62183961Y-91174836D01*
X62183961Y-91174836D02*
X62136342Y-91222455D01*
X65183961Y-89317693D02*
X65231580Y-89222455D01*
X65231580Y-89222455D02*
X65231580Y-89079598D01*
X65231580Y-89079598D02*
X65183961Y-88936741D01*
X65183961Y-88936741D02*
X65088723Y-88841503D01*
X65088723Y-88841503D02*
X64993485Y-88793884D01*
X64993485Y-88793884D02*
X64803009Y-88746265D01*
X64803009Y-88746265D02*
X64660152Y-88746265D01*
X64660152Y-88746265D02*
X64469676Y-88793884D01*
X64469676Y-88793884D02*
X64374438Y-88841503D01*
X64374438Y-88841503D02*
X64279200Y-88936741D01*
X64279200Y-88936741D02*
X64231580Y-89079598D01*
X64231580Y-89079598D02*
X64231580Y-89174836D01*
X64231580Y-89174836D02*
X64279200Y-89317693D01*
X64279200Y-89317693D02*
X64326819Y-89365312D01*
X64326819Y-89365312D02*
X64660152Y-89365312D01*
X64660152Y-89365312D02*
X64660152Y-89174836D01*
X64231580Y-89793884D02*
X65231580Y-89793884D01*
X65231580Y-89793884D02*
X64231580Y-90365312D01*
X64231580Y-90365312D02*
X65231580Y-90365312D01*
X64231580Y-90841503D02*
X65231580Y-90841503D01*
X65231580Y-90841503D02*
X65231580Y-91079598D01*
X65231580Y-91079598D02*
X65183961Y-91222455D01*
X65183961Y-91222455D02*
X65088723Y-91317693D01*
X65088723Y-91317693D02*
X64993485Y-91365312D01*
X64993485Y-91365312D02*
X64803009Y-91412931D01*
X64803009Y-91412931D02*
X64660152Y-91412931D01*
X64660152Y-91412931D02*
X64469676Y-91365312D01*
X64469676Y-91365312D02*
X64374438Y-91317693D01*
X64374438Y-91317693D02*
X64279200Y-91222455D01*
X64279200Y-91222455D02*
X64231580Y-91079598D01*
X64231580Y-91079598D02*
X64231580Y-90841503D01*
X66779200Y-88746265D02*
X66731580Y-88889122D01*
X66731580Y-88889122D02*
X66731580Y-89127217D01*
X66731580Y-89127217D02*
X66779200Y-89222455D01*
X66779200Y-89222455D02*
X66826819Y-89270074D01*
X66826819Y-89270074D02*
X66922057Y-89317693D01*
X66922057Y-89317693D02*
X67017295Y-89317693D01*
X67017295Y-89317693D02*
X67112533Y-89270074D01*
X67112533Y-89270074D02*
X67160152Y-89222455D01*
X67160152Y-89222455D02*
X67207771Y-89127217D01*
X67207771Y-89127217D02*
X67255390Y-88936741D01*
X67255390Y-88936741D02*
X67303009Y-88841503D01*
X67303009Y-88841503D02*
X67350628Y-88793884D01*
X67350628Y-88793884D02*
X67445866Y-88746265D01*
X67445866Y-88746265D02*
X67541104Y-88746265D01*
X67541104Y-88746265D02*
X67636342Y-88793884D01*
X67636342Y-88793884D02*
X67683961Y-88841503D01*
X67683961Y-88841503D02*
X67731580Y-88936741D01*
X67731580Y-88936741D02*
X67731580Y-89174836D01*
X67731580Y-89174836D02*
X67683961Y-89317693D01*
X66826819Y-90317693D02*
X66779200Y-90270074D01*
X66779200Y-90270074D02*
X66731580Y-90127217D01*
X66731580Y-90127217D02*
X66731580Y-90031979D01*
X66731580Y-90031979D02*
X66779200Y-89889122D01*
X66779200Y-89889122D02*
X66874438Y-89793884D01*
X66874438Y-89793884D02*
X66969676Y-89746265D01*
X66969676Y-89746265D02*
X67160152Y-89698646D01*
X67160152Y-89698646D02*
X67303009Y-89698646D01*
X67303009Y-89698646D02*
X67493485Y-89746265D01*
X67493485Y-89746265D02*
X67588723Y-89793884D01*
X67588723Y-89793884D02*
X67683961Y-89889122D01*
X67683961Y-89889122D02*
X67731580Y-90031979D01*
X67731580Y-90031979D02*
X67731580Y-90127217D01*
X67731580Y-90127217D02*
X67683961Y-90270074D01*
X67683961Y-90270074D02*
X67636342Y-90317693D01*
X66731580Y-91222455D02*
X66731580Y-90746265D01*
X66731580Y-90746265D02*
X67731580Y-90746265D01*
X69779200Y-88746265D02*
X69731580Y-88889122D01*
X69731580Y-88889122D02*
X69731580Y-89127217D01*
X69731580Y-89127217D02*
X69779200Y-89222455D01*
X69779200Y-89222455D02*
X69826819Y-89270074D01*
X69826819Y-89270074D02*
X69922057Y-89317693D01*
X69922057Y-89317693D02*
X70017295Y-89317693D01*
X70017295Y-89317693D02*
X70112533Y-89270074D01*
X70112533Y-89270074D02*
X70160152Y-89222455D01*
X70160152Y-89222455D02*
X70207771Y-89127217D01*
X70207771Y-89127217D02*
X70255390Y-88936741D01*
X70255390Y-88936741D02*
X70303009Y-88841503D01*
X70303009Y-88841503D02*
X70350628Y-88793884D01*
X70350628Y-88793884D02*
X70445866Y-88746265D01*
X70445866Y-88746265D02*
X70541104Y-88746265D01*
X70541104Y-88746265D02*
X70636342Y-88793884D01*
X70636342Y-88793884D02*
X70683961Y-88841503D01*
X70683961Y-88841503D02*
X70731580Y-88936741D01*
X70731580Y-88936741D02*
X70731580Y-89174836D01*
X70731580Y-89174836D02*
X70683961Y-89317693D01*
X69731580Y-89746265D02*
X70731580Y-89746265D01*
X70731580Y-89746265D02*
X70731580Y-89984360D01*
X70731580Y-89984360D02*
X70683961Y-90127217D01*
X70683961Y-90127217D02*
X70588723Y-90222455D01*
X70588723Y-90222455D02*
X70493485Y-90270074D01*
X70493485Y-90270074D02*
X70303009Y-90317693D01*
X70303009Y-90317693D02*
X70160152Y-90317693D01*
X70160152Y-90317693D02*
X69969676Y-90270074D01*
X69969676Y-90270074D02*
X69874438Y-90222455D01*
X69874438Y-90222455D02*
X69779200Y-90127217D01*
X69779200Y-90127217D02*
X69731580Y-89984360D01*
X69731580Y-89984360D02*
X69731580Y-89746265D01*
X70017295Y-90698646D02*
X70017295Y-91174836D01*
X69731580Y-90603408D02*
X70731580Y-90936741D01*
X70731580Y-90936741D02*
X69731580Y-91270074D01*
X72231580Y-88793884D02*
X73231580Y-88793884D01*
X73231580Y-88793884D02*
X73231580Y-89031979D01*
X73231580Y-89031979D02*
X73183961Y-89174836D01*
X73183961Y-89174836D02*
X73088723Y-89270074D01*
X73088723Y-89270074D02*
X72993485Y-89317693D01*
X72993485Y-89317693D02*
X72803009Y-89365312D01*
X72803009Y-89365312D02*
X72660152Y-89365312D01*
X72660152Y-89365312D02*
X72469676Y-89317693D01*
X72469676Y-89317693D02*
X72374438Y-89270074D01*
X72374438Y-89270074D02*
X72279200Y-89174836D01*
X72279200Y-89174836D02*
X72231580Y-89031979D01*
X72231580Y-89031979D02*
X72231580Y-88793884D01*
X72326819Y-90365312D02*
X72279200Y-90317693D01*
X72279200Y-90317693D02*
X72231580Y-90174836D01*
X72231580Y-90174836D02*
X72231580Y-90079598D01*
X72231580Y-90079598D02*
X72279200Y-89936741D01*
X72279200Y-89936741D02*
X72374438Y-89841503D01*
X72374438Y-89841503D02*
X72469676Y-89793884D01*
X72469676Y-89793884D02*
X72660152Y-89746265D01*
X72660152Y-89746265D02*
X72803009Y-89746265D01*
X72803009Y-89746265D02*
X72993485Y-89793884D01*
X72993485Y-89793884D02*
X73088723Y-89841503D01*
X73088723Y-89841503D02*
X73183961Y-89936741D01*
X73183961Y-89936741D02*
X73231580Y-90079598D01*
X73231580Y-90079598D02*
X73231580Y-90174836D01*
X73231580Y-90174836D02*
X73183961Y-90317693D01*
X73183961Y-90317693D02*
X73136342Y-90365312D01*
X75326819Y-89365312D02*
X75279200Y-89317693D01*
X75279200Y-89317693D02*
X75231580Y-89174836D01*
X75231580Y-89174836D02*
X75231580Y-89079598D01*
X75231580Y-89079598D02*
X75279200Y-88936741D01*
X75279200Y-88936741D02*
X75374438Y-88841503D01*
X75374438Y-88841503D02*
X75469676Y-88793884D01*
X75469676Y-88793884D02*
X75660152Y-88746265D01*
X75660152Y-88746265D02*
X75803009Y-88746265D01*
X75803009Y-88746265D02*
X75993485Y-88793884D01*
X75993485Y-88793884D02*
X76088723Y-88841503D01*
X76088723Y-88841503D02*
X76183961Y-88936741D01*
X76183961Y-88936741D02*
X76231580Y-89079598D01*
X76231580Y-89079598D02*
X76231580Y-89174836D01*
X76231580Y-89174836D02*
X76183961Y-89317693D01*
X76183961Y-89317693D02*
X76136342Y-89365312D01*
X75279200Y-89746265D02*
X75231580Y-89889122D01*
X75231580Y-89889122D02*
X75231580Y-90127217D01*
X75231580Y-90127217D02*
X75279200Y-90222455D01*
X75279200Y-90222455D02*
X75326819Y-90270074D01*
X75326819Y-90270074D02*
X75422057Y-90317693D01*
X75422057Y-90317693D02*
X75517295Y-90317693D01*
X75517295Y-90317693D02*
X75612533Y-90270074D01*
X75612533Y-90270074D02*
X75660152Y-90222455D01*
X75660152Y-90222455D02*
X75707771Y-90127217D01*
X75707771Y-90127217D02*
X75755390Y-89936741D01*
X75755390Y-89936741D02*
X75803009Y-89841503D01*
X75803009Y-89841503D02*
X75850628Y-89793884D01*
X75850628Y-89793884D02*
X75945866Y-89746265D01*
X75945866Y-89746265D02*
X76041104Y-89746265D01*
X76041104Y-89746265D02*
X76136342Y-89793884D01*
X76136342Y-89793884D02*
X76183961Y-89841503D01*
X76183961Y-89841503D02*
X76231580Y-89936741D01*
X76231580Y-89936741D02*
X76231580Y-90174836D01*
X76231580Y-90174836D02*
X76183961Y-90317693D01*
D11*
X42523819Y-51545666D02*
X42047628Y-51878999D01*
X42523819Y-52117094D02*
X41523819Y-52117094D01*
X41523819Y-52117094D02*
X41523819Y-51736142D01*
X41523819Y-51736142D02*
X41571438Y-51640904D01*
X41571438Y-51640904D02*
X41619057Y-51593285D01*
X41619057Y-51593285D02*
X41714295Y-51545666D01*
X41714295Y-51545666D02*
X41857152Y-51545666D01*
X41857152Y-51545666D02*
X41952390Y-51593285D01*
X41952390Y-51593285D02*
X42000009Y-51640904D01*
X42000009Y-51640904D02*
X42047628Y-51736142D01*
X42047628Y-51736142D02*
X42047628Y-52117094D01*
X41952390Y-50974237D02*
X41904771Y-51069475D01*
X41904771Y-51069475D02*
X41857152Y-51117094D01*
X41857152Y-51117094D02*
X41761914Y-51164713D01*
X41761914Y-51164713D02*
X41714295Y-51164713D01*
X41714295Y-51164713D02*
X41619057Y-51117094D01*
X41619057Y-51117094D02*
X41571438Y-51069475D01*
X41571438Y-51069475D02*
X41523819Y-50974237D01*
X41523819Y-50974237D02*
X41523819Y-50783761D01*
X41523819Y-50783761D02*
X41571438Y-50688523D01*
X41571438Y-50688523D02*
X41619057Y-50640904D01*
X41619057Y-50640904D02*
X41714295Y-50593285D01*
X41714295Y-50593285D02*
X41761914Y-50593285D01*
X41761914Y-50593285D02*
X41857152Y-50640904D01*
X41857152Y-50640904D02*
X41904771Y-50688523D01*
X41904771Y-50688523D02*
X41952390Y-50783761D01*
X41952390Y-50783761D02*
X41952390Y-50974237D01*
X41952390Y-50974237D02*
X42000009Y-51069475D01*
X42000009Y-51069475D02*
X42047628Y-51117094D01*
X42047628Y-51117094D02*
X42142866Y-51164713D01*
X42142866Y-51164713D02*
X42333342Y-51164713D01*
X42333342Y-51164713D02*
X42428580Y-51117094D01*
X42428580Y-51117094D02*
X42476200Y-51069475D01*
X42476200Y-51069475D02*
X42523819Y-50974237D01*
X42523819Y-50974237D02*
X42523819Y-50783761D01*
X42523819Y-50783761D02*
X42476200Y-50688523D01*
X42476200Y-50688523D02*
X42428580Y-50640904D01*
X42428580Y-50640904D02*
X42333342Y-50593285D01*
X42333342Y-50593285D02*
X42142866Y-50593285D01*
X42142866Y-50593285D02*
X42047628Y-50640904D01*
X42047628Y-50640904D02*
X42000009Y-50688523D01*
X42000009Y-50688523D02*
X41952390Y-50783761D01*
%TO.C,U7*%
D10*
X139924000Y-110490000D02*
G75*
G02*
X101782400Y-110490000I-19070800J0D01*
G01*
X101782400Y-110490000D02*
G75*
G02*
X139924000Y-110490000I19070800J0D01*
G01*
X133578600Y-84990000D02*
X133578600Y-96310000D01*
X133578600Y-84930000D02*
X108178600Y-84930000D01*
X123418600Y-84990000D02*
X120878600Y-84990000D01*
X108178600Y-84990000D02*
X108178600Y-96310000D01*
D13*
%TO.C,U3*%
X54241574Y-69093508D02*
X54290850Y-69095287D01*
X54339618Y-69098335D01*
X54388639Y-69102399D01*
X54437407Y-69107732D01*
X54486175Y-69114336D01*
X54534690Y-69121956D01*
X54582950Y-69130847D01*
X54630955Y-69140752D01*
X54241574Y-69093508D01*
X37158295Y-86870715D02*
X37109527Y-86867667D01*
X37060506Y-86863603D01*
X37158295Y-86870715D01*
D14*
X37047000Y-88983000D02*
G75*
G02*
X36793000Y-88983000I-127000J0D01*
G01*
X36793000Y-88983000D02*
G75*
G02*
X37047000Y-88983000I127000J0D01*
G01*
D15*
X56220000Y-84883000D02*
G75*
G02*
X54220000Y-86883000I-2044857J44857D01*
G01*
X54220000Y-69083000D02*
G75*
G02*
X56220000Y-71083000I0J-2000000D01*
G01*
X37220000Y-86883000D02*
G75*
G02*
X35220000Y-84883000I44612J2044612D01*
G01*
X35220000Y-71083000D02*
G75*
G02*
X37220000Y-69083000I2044610J-44610D01*
G01*
D16*
X56220000Y-84883000D02*
X56220000Y-71083000D01*
X54220000Y-69083000D02*
X37220000Y-69083000D01*
X41149270Y-82483000D02*
X33795970Y-82483000D01*
X41149270Y-73483000D02*
X41149270Y-82483000D01*
X37220000Y-86883000D02*
X54220000Y-86883000D01*
X35220910Y-71083000D02*
X35220910Y-84883000D01*
X33795970Y-82483000D02*
X33795970Y-73483000D01*
X33795970Y-73483000D02*
X41149270Y-73483000D01*
%TO.C,R2*%
X74684000Y-131572000D02*
X73504000Y-131572000D01*
X73504000Y-132872000D02*
X73504000Y-131572000D01*
X73504000Y-131572000D02*
X73504000Y-130272000D01*
X73504000Y-130272000D02*
X66704000Y-130272000D01*
X66704000Y-132872000D02*
X73504000Y-132872000D01*
X66704000Y-131572000D02*
X66704000Y-132872000D01*
X66704000Y-130272000D02*
X66704000Y-131572000D01*
X65524000Y-131572000D02*
X66704000Y-131572000D01*
%TO.C,SW6*%
D15*
X164719000Y-103505000D02*
X178689000Y-103505000D01*
X164719000Y-117475000D02*
X164719000Y-103505000D01*
X178689000Y-103505000D02*
X178689000Y-117475000D01*
X178689000Y-117475000D02*
X164719000Y-117475000D01*
%TO.C,U4*%
D10*
X108178600Y-69950000D02*
X108178600Y-58630000D01*
X108178600Y-70010000D02*
X133578600Y-70010000D01*
X118338600Y-69950000D02*
X120878600Y-69950000D01*
X133578600Y-69950000D02*
X133578600Y-58630000D01*
X139974800Y-44450000D02*
G75*
G02*
X101833200Y-44450000I-19070800J0D01*
G01*
X101833200Y-44450000D02*
G75*
G02*
X139974800Y-44450000I19070800J0D01*
G01*
%TO.C,C3*%
D15*
X76567420Y-70102000D02*
X76848580Y-70102000D01*
X76567420Y-71122000D02*
X76848580Y-71122000D01*
%TO.C,R3*%
D16*
X116578000Y-131572000D02*
X117758000Y-131572000D01*
X117758000Y-130272000D02*
X117758000Y-131572000D01*
X117758000Y-131572000D02*
X117758000Y-132872000D01*
X117758000Y-132872000D02*
X124558000Y-132872000D01*
X124558000Y-130272000D02*
X117758000Y-130272000D01*
X124558000Y-131572000D02*
X124558000Y-130272000D01*
X124558000Y-132872000D02*
X124558000Y-131572000D01*
X125738000Y-131572000D02*
X124558000Y-131572000D01*
%TO.C,C7*%
D15*
X113145180Y-83564000D02*
X112864020Y-83564000D01*
X113145180Y-84584000D02*
X112864020Y-84584000D01*
%TO.C,U6*%
D10*
X184404000Y-84990000D02*
X184404000Y-96310000D01*
X184404000Y-84930000D02*
X159004000Y-84930000D01*
X174244000Y-84990000D02*
X171704000Y-84990000D01*
X159004000Y-84990000D02*
X159004000Y-96310000D01*
X190749400Y-110490000D02*
G75*
G02*
X152607800Y-110490000I-19070800J0D01*
G01*
X152607800Y-110490000D02*
G75*
G02*
X190749400Y-110490000I19070800J0D01*
G01*
%TO.C,R7*%
D16*
X65270000Y-22606000D02*
X66450000Y-22606000D01*
X66450000Y-21306000D02*
X66450000Y-22606000D01*
X66450000Y-22606000D02*
X66450000Y-23906000D01*
X66450000Y-23906000D02*
X73250000Y-23906000D01*
X73250000Y-21306000D02*
X66450000Y-21306000D01*
X73250000Y-22606000D02*
X73250000Y-21306000D01*
X73250000Y-23906000D02*
X73250000Y-22606000D01*
X74430000Y-22606000D02*
X73250000Y-22606000D01*
%TO.C,SW8*%
D15*
X113893600Y-37465000D02*
X127863600Y-37465000D01*
X113893600Y-51435000D02*
X113893600Y-37465000D01*
X127863600Y-37465000D02*
X127863600Y-51435000D01*
X127863600Y-51435000D02*
X113893600Y-51435000D01*
%TO.C,U1*%
D10*
X57325400Y-69755400D02*
X57325400Y-58435400D01*
X57325400Y-69815400D02*
X82725400Y-69815400D01*
X67485400Y-69755400D02*
X70025400Y-69755400D01*
X82725400Y-69755400D02*
X82725400Y-58435400D01*
X89121600Y-44255400D02*
G75*
G02*
X50980000Y-44255400I-19070800J0D01*
G01*
X50980000Y-44255400D02*
G75*
G02*
X89121600Y-44255400I19070800J0D01*
G01*
%TO.C,R5*%
D16*
X167124000Y-23114000D02*
X168304000Y-23114000D01*
X168304000Y-21814000D02*
X168304000Y-23114000D01*
X168304000Y-23114000D02*
X168304000Y-24414000D01*
X168304000Y-24414000D02*
X175104000Y-24414000D01*
X175104000Y-21814000D02*
X168304000Y-21814000D01*
X175104000Y-23114000D02*
X175104000Y-21814000D01*
X175104000Y-24414000D02*
X175104000Y-23114000D01*
X176284000Y-23114000D02*
X175104000Y-23114000D01*
%TO.C,U5*%
D10*
X184404000Y-69950000D02*
X184404000Y-58630000D01*
X169164000Y-69950000D02*
X171704000Y-69950000D01*
X159004000Y-70010000D02*
X184404000Y-70010000D01*
X159004000Y-69950000D02*
X159004000Y-58630000D01*
X190800200Y-44450000D02*
G75*
G02*
X152658600Y-44450000I-19070800J0D01*
G01*
X152658600Y-44450000D02*
G75*
G02*
X190800200Y-44450000I19070800J0D01*
G01*
%TO.C,SW5*%
D15*
X113893600Y-103505000D02*
X127863600Y-103505000D01*
X113893600Y-117475000D02*
X113893600Y-103505000D01*
X127863600Y-103505000D02*
X127863600Y-117475000D01*
X127863600Y-117475000D02*
X113893600Y-117475000D01*
%TO.C,SW9*%
X63040400Y-37270400D02*
X77010400Y-37270400D01*
X63040400Y-51240400D02*
X63040400Y-37270400D01*
X77010400Y-37270400D02*
X77010400Y-51240400D01*
X77010400Y-51240400D02*
X63040400Y-51240400D01*
%TO.C,C6*%
X178675420Y-70356000D02*
X178956580Y-70356000D01*
X178675420Y-71376000D02*
X178956580Y-71376000D01*
%TO.C,U10*%
D17*
X61036200Y-75641200D02*
X61036200Y-76911200D01*
X61036200Y-76911200D02*
X61036200Y-77520800D01*
X61036200Y-77520800D02*
X61036200Y-78790800D01*
X71043800Y-78790800D02*
X71043800Y-75641200D01*
X61036200Y-76911200D02*
G75*
G02*
X61036200Y-77520800I0J-304800D01*
G01*
%TO.C,C4*%
D15*
X127850020Y-70356000D02*
X128131180Y-70356000D01*
X127850020Y-71376000D02*
X128131180Y-71376000D01*
%TO.C,R6*%
D16*
X116324000Y-22606000D02*
X117504000Y-22606000D01*
X117504000Y-21306000D02*
X117504000Y-22606000D01*
X117504000Y-22606000D02*
X117504000Y-23906000D01*
X117504000Y-23906000D02*
X124304000Y-23906000D01*
X124304000Y-21306000D02*
X117504000Y-21306000D01*
X124304000Y-22606000D02*
X124304000Y-21306000D01*
X124304000Y-23906000D02*
X124304000Y-22606000D01*
X125484000Y-22606000D02*
X124304000Y-22606000D01*
%TO.C,SW7*%
D15*
X164719000Y-37465000D02*
X178689000Y-37465000D01*
X164719000Y-51435000D02*
X164719000Y-37465000D01*
X178689000Y-37465000D02*
X178689000Y-51435000D01*
X178689000Y-51435000D02*
X164719000Y-51435000D01*
%TO.C,R4*%
D16*
X167124000Y-131318000D02*
X168304000Y-131318000D01*
X168304000Y-130018000D02*
X168304000Y-131318000D01*
X168304000Y-131318000D02*
X168304000Y-132618000D01*
X168304000Y-132618000D02*
X175104000Y-132618000D01*
X175104000Y-130018000D02*
X168304000Y-130018000D01*
X175104000Y-131318000D02*
X175104000Y-130018000D01*
X175104000Y-132618000D02*
X175104000Y-131318000D01*
X176284000Y-131318000D02*
X175104000Y-131318000D01*
%TO.C,SW4*%
D15*
X63119000Y-103505000D02*
X77089000Y-103505000D01*
X63119000Y-117475000D02*
X63119000Y-103505000D01*
X77089000Y-103505000D02*
X77089000Y-117475000D01*
X77089000Y-117475000D02*
X63119000Y-117475000D01*
%TO.C,C2*%
X59180000Y-76848580D02*
X59180000Y-76567420D01*
X60200000Y-76848580D02*
X60200000Y-76567420D01*
%TO.C,C5*%
X164719580Y-84584000D02*
X164438420Y-84584000D01*
X164719580Y-83564000D02*
X164438420Y-83564000D01*
%TO.C,R1*%
D16*
X44958000Y-102354000D02*
X44958000Y-103534000D01*
X46258000Y-103534000D02*
X44958000Y-103534000D01*
X44958000Y-103534000D02*
X43658000Y-103534000D01*
X43658000Y-103534000D02*
X43658000Y-110334000D01*
X46258000Y-110334000D02*
X46258000Y-103534000D01*
X44958000Y-110334000D02*
X46258000Y-110334000D01*
X43658000Y-110334000D02*
X44958000Y-110334000D01*
X44958000Y-111514000D02*
X44958000Y-110334000D01*
%TO.C,C8*%
D15*
X63092420Y-83310000D02*
X63373580Y-83310000D01*
X63092420Y-84330000D02*
X63373580Y-84330000D01*
%TO.C,U2*%
D10*
X57404000Y-84990000D02*
X57404000Y-96310000D01*
X72644000Y-84990000D02*
X70104000Y-84990000D01*
X82804000Y-84930000D02*
X57404000Y-84930000D01*
X82804000Y-84990000D02*
X82804000Y-96310000D01*
X89149400Y-110490000D02*
G75*
G02*
X51007800Y-110490000I-19070800J0D01*
G01*
X51007800Y-110490000D02*
G75*
G02*
X89149400Y-110490000I19070800J0D01*
G01*
%TO.C,R8*%
D16*
X44704000Y-55634000D02*
X44704000Y-54454000D01*
X43404000Y-54454000D02*
X44704000Y-54454000D01*
X44704000Y-54454000D02*
X46004000Y-54454000D01*
X46004000Y-54454000D02*
X46004000Y-47654000D01*
X43404000Y-47654000D02*
X43404000Y-54454000D01*
X44704000Y-47654000D02*
X43404000Y-47654000D01*
X46004000Y-47654000D02*
X44704000Y-47654000D01*
X44704000Y-46474000D02*
X44704000Y-47654000D01*
%TD*%
M02*
